G75*
G70*
%OFA0B0*%
%FSLAX24Y24*%
%IPPOS*%
%LPD*%
%AMOC8*
5,1,8,0,0,1.08239X$1,22.5*
%
%ADD10C,0.0750*%
%ADD11OC8,0.0750*%
%ADD12C,0.0520*%
%ADD13C,0.0630*%
%ADD14OC8,0.1005*%
%ADD15C,0.0515*%
%ADD16C,0.0860*%
%ADD17C,0.1000*%
%ADD18C,0.0700*%
%ADD19OC8,0.0660*%
%ADD20C,0.0160*%
%ADD21C,0.0560*%
D10*
X008603Y023105D03*
X008603Y026105D03*
D11*
X010603Y026105D03*
X010603Y023105D03*
D12*
X012843Y022105D02*
X013363Y022105D01*
X014843Y022105D02*
X015363Y022105D01*
X015363Y026605D02*
X014843Y026605D01*
X013363Y026605D02*
X012843Y026605D01*
X005363Y022105D02*
X004843Y022105D01*
X003363Y022105D02*
X002843Y022105D01*
X005343Y016605D02*
X005863Y016605D01*
X008343Y016605D02*
X008863Y016605D01*
X013103Y012365D02*
X013103Y011845D01*
X014103Y011845D02*
X014103Y012365D01*
X015103Y012365D02*
X015103Y011845D01*
X014843Y008105D02*
X015363Y008105D01*
X013363Y008105D02*
X012843Y008105D01*
X018843Y009105D02*
X019363Y009105D01*
X019363Y010105D02*
X018843Y010105D01*
X020843Y010105D02*
X021363Y010105D01*
X021363Y009105D02*
X020843Y009105D01*
D13*
X015918Y014105D02*
X015288Y014105D01*
X015288Y015105D02*
X015918Y015105D01*
X015918Y016105D02*
X015288Y016105D01*
X015288Y017105D02*
X015918Y017105D01*
X015918Y018105D02*
X015288Y018105D01*
X015288Y019105D02*
X015918Y019105D01*
X015918Y020105D02*
X015288Y020105D01*
X012918Y020105D02*
X012288Y020105D01*
X012288Y019105D02*
X012918Y019105D01*
X012918Y018105D02*
X012288Y018105D01*
X012288Y017105D02*
X012918Y017105D01*
X012918Y016105D02*
X012288Y016105D01*
X012288Y015105D02*
X012918Y015105D01*
X012918Y014105D02*
X012288Y014105D01*
D14*
X016603Y012605D03*
X017103Y003105D03*
X019103Y003105D03*
X014603Y003105D03*
X012603Y003105D03*
X009603Y003105D03*
X007603Y003105D03*
X002603Y008105D03*
X001603Y013105D03*
X001603Y015105D03*
X003603Y015105D03*
X003603Y013105D03*
X003603Y018105D03*
X003603Y020105D03*
X001603Y020105D03*
X001603Y018105D03*
X012603Y028605D03*
X015603Y028605D03*
D15*
X014360Y025605D02*
X013846Y025605D01*
X013846Y024605D02*
X014360Y024605D01*
X014360Y023605D02*
X013846Y023605D01*
D16*
X010603Y021105D03*
X009103Y019605D03*
X009103Y018105D03*
X006603Y021105D03*
X005103Y019605D03*
X005103Y018105D03*
X005103Y015105D03*
X005103Y013605D03*
X005103Y012105D03*
X009103Y012105D03*
X009103Y013605D03*
X009103Y015105D03*
X012103Y010105D03*
X013103Y006105D03*
X014603Y006105D03*
X014603Y004605D03*
X012603Y004605D03*
X009103Y006105D03*
X008603Y004605D03*
X016103Y010105D03*
X017103Y011105D03*
X019103Y014605D03*
X019103Y017605D03*
X019103Y020605D03*
X019103Y023605D03*
X023103Y023605D03*
X023103Y020605D03*
X023103Y017605D03*
X023103Y014605D03*
X024103Y011605D03*
X021103Y011105D03*
X024103Y007605D03*
X018603Y006105D03*
X018603Y004605D03*
D17*
X010603Y028605D03*
X006603Y028605D03*
D18*
X006603Y027605D01*
X008603Y026105D01*
X010603Y028605D02*
X012603Y028605D01*
X015103Y026605D02*
X015603Y027105D01*
X015603Y028605D01*
X016103Y027105D02*
X017103Y027105D01*
X018103Y026105D01*
X022103Y026105D01*
X024103Y024105D01*
X024103Y022355D01*
X024103Y019355D01*
X024103Y016355D01*
X024103Y013355D01*
X024103Y013005D02*
X024103Y013705D01*
X023103Y013705D02*
X023103Y013005D01*
X022103Y013005D02*
X022103Y013705D01*
X022103Y016005D02*
X022103Y016705D01*
X023103Y016705D02*
X023103Y016005D01*
X024103Y016005D02*
X024103Y016705D01*
X024103Y019005D02*
X024103Y019705D01*
X023103Y019705D02*
X023103Y019005D01*
X022103Y019005D02*
X022103Y019705D01*
X022103Y022005D02*
X022103Y022705D01*
X023103Y022705D02*
X023103Y022005D01*
X024103Y022005D02*
X024103Y022705D01*
X015603Y021605D02*
X015603Y020105D01*
X015603Y021605D02*
X015103Y022105D01*
X012603Y021605D02*
X012603Y021105D01*
X010603Y021105D01*
X012603Y021105D02*
X012603Y020105D01*
X003103Y022105D02*
X001603Y020605D01*
X001603Y020105D01*
X001603Y018105D01*
X001603Y016605D01*
X001603Y015105D01*
X001603Y014605D02*
X001603Y013105D01*
X001603Y010605D01*
X002103Y010105D01*
X002103Y009605D01*
X002603Y009105D01*
X012603Y004605D02*
X012603Y003105D01*
X012603Y004605D02*
X014603Y004605D01*
X014603Y003105D01*
D19*
X003103Y010105D03*
X002103Y010105D03*
D20*
X000683Y003263D02*
X000683Y000685D01*
X026393Y000685D01*
X026393Y002921D01*
X026387Y002906D01*
X026387Y002906D01*
X026034Y002394D01*
X026034Y002394D01*
X025569Y001981D01*
X025569Y001981D01*
X025018Y001692D01*
X025018Y001692D01*
X024414Y001544D01*
X024414Y001544D01*
X023792Y001544D01*
X023792Y001544D01*
X023188Y001692D01*
X023188Y001692D01*
X022637Y001981D01*
X022637Y001981D01*
X022172Y002394D01*
X022172Y002394D01*
X022172Y002394D01*
X021819Y002906D01*
X021819Y002906D01*
X021598Y003487D01*
X021598Y003487D01*
X021523Y004105D01*
X021523Y004105D01*
X021598Y004722D01*
X021598Y004722D01*
X021796Y005245D01*
X019463Y005245D01*
X019463Y005135D01*
X019544Y004995D01*
X019586Y004838D01*
X019832Y004592D01*
X019963Y004276D01*
X019963Y003934D01*
X021544Y003934D01*
X021563Y003776D02*
X019963Y003776D01*
X019963Y003934D01*
X019963Y003776D02*
X020185Y003553D01*
X020185Y002656D01*
X019551Y002022D01*
X018655Y002022D01*
X018432Y002245D01*
X017774Y002245D01*
X017551Y002022D01*
X016655Y002022D01*
X016020Y002656D01*
X016020Y003553D01*
X016655Y004187D01*
X017551Y004187D01*
X017774Y003965D01*
X017815Y003965D01*
X017795Y003985D01*
X017662Y004215D01*
X017593Y004472D01*
X017593Y004738D01*
X017662Y004995D01*
X017743Y005135D01*
X017743Y005574D01*
X017662Y005715D01*
X017593Y005972D01*
X017593Y006238D01*
X017662Y006495D01*
X017795Y006725D01*
X017983Y006913D01*
X018213Y007046D01*
X018470Y007115D01*
X018736Y007115D01*
X018993Y007046D01*
X019133Y006965D01*
X021816Y006965D01*
X023155Y007969D01*
X023162Y007995D01*
X023295Y008225D01*
X023483Y008413D01*
X023713Y008546D01*
X023970Y008615D01*
X024236Y008615D01*
X024493Y008546D01*
X024723Y008413D01*
X024911Y008225D01*
X025044Y007995D01*
X025113Y007738D01*
X025113Y007472D01*
X025044Y007215D01*
X024911Y006985D01*
X024723Y006796D01*
X024493Y006664D01*
X024459Y006655D01*
X025018Y006517D01*
X025018Y006517D01*
X025569Y006228D01*
X025569Y006228D01*
X026034Y005816D01*
X026034Y005816D01*
X026034Y005816D01*
X026387Y005304D01*
X026387Y005304D01*
X026393Y005289D01*
X026393Y026921D01*
X026387Y026906D01*
X026387Y026906D01*
X026034Y026394D01*
X026034Y026394D01*
X025569Y025981D01*
X025569Y025981D01*
X025018Y025692D01*
X025018Y025692D01*
X024414Y025544D01*
X024414Y025544D01*
X023792Y025544D01*
X023792Y025544D01*
X023188Y025692D01*
X023188Y025692D01*
X022637Y025981D01*
X022637Y025981D01*
X022172Y026394D01*
X022172Y026394D01*
X022172Y026394D01*
X021819Y026906D01*
X021819Y026906D01*
X021598Y027487D01*
X021598Y027487D01*
X021523Y028105D01*
X021523Y028105D01*
X021598Y028722D01*
X021598Y028722D01*
X021819Y029304D01*
X021819Y029304D01*
X022172Y029816D01*
X022172Y029816D01*
X022637Y030228D01*
X022637Y030228D01*
X023188Y030517D01*
X023188Y030517D01*
X023203Y030521D01*
X004003Y030521D01*
X004018Y030517D01*
X004018Y030517D01*
X004569Y030228D01*
X004569Y030228D01*
X005034Y029816D01*
X005034Y029816D01*
X005034Y029816D01*
X005387Y029304D01*
X005387Y029304D01*
X005554Y028864D01*
X005597Y029022D01*
X005739Y029268D01*
X005940Y029469D01*
X006186Y029611D01*
X006461Y029685D01*
X006745Y029685D01*
X007020Y029611D01*
X007266Y029469D01*
X007467Y029268D01*
X007609Y029022D01*
X007683Y028747D01*
X007683Y028463D01*
X007609Y028188D01*
X007539Y028065D01*
X008572Y027290D01*
X008874Y027592D01*
X009116Y027834D01*
X009432Y027965D01*
X009725Y027965D01*
X009597Y028188D01*
X009523Y028463D01*
X009523Y028747D01*
X009597Y029022D01*
X009739Y029268D01*
X009940Y029469D01*
X010186Y029611D01*
X010461Y029685D01*
X010745Y029685D01*
X011020Y029611D01*
X011152Y029535D01*
X012002Y029535D01*
X012155Y029687D01*
X013051Y029687D01*
X013685Y029053D01*
X013685Y028156D01*
X013051Y027522D01*
X012902Y027522D01*
X012959Y027465D01*
X013274Y027465D01*
X013322Y027445D01*
X013530Y027445D01*
X013839Y027317D01*
X014075Y027081D01*
X014203Y026772D01*
X014203Y026465D01*
X014274Y026465D01*
X014328Y026442D01*
X014433Y026442D01*
X014414Y026502D01*
X014403Y026570D01*
X014403Y026604D01*
X015103Y026604D01*
X015103Y026165D01*
X015398Y026165D01*
X015466Y026176D01*
X015532Y026197D01*
X015594Y026228D01*
X015650Y026269D01*
X015699Y026318D01*
X015739Y026374D01*
X015771Y026436D01*
X015792Y026502D01*
X015803Y026570D01*
X015803Y026604D01*
X015103Y026604D01*
X015103Y026604D01*
X015103Y026165D01*
X014985Y026165D01*
X015070Y026079D01*
X015198Y025771D01*
X015198Y025438D01*
X015070Y025130D01*
X014835Y024895D01*
X014724Y024849D01*
X014735Y024834D01*
X014766Y024773D01*
X014787Y024707D01*
X014798Y024639D01*
X014798Y024605D01*
X014103Y024605D01*
X014103Y024604D01*
X014798Y024604D01*
X014798Y024570D01*
X014787Y024502D01*
X014775Y024465D01*
X015747Y024465D01*
X017116Y025834D01*
X017432Y025965D01*
X017774Y025965D01*
X020274Y025965D01*
X020590Y025834D01*
X020832Y025592D01*
X022260Y024164D01*
X022295Y024225D01*
X022483Y024413D01*
X022713Y024546D01*
X022970Y024615D01*
X023236Y024615D01*
X023493Y024546D01*
X023723Y024413D01*
X023911Y024225D01*
X024044Y023995D01*
X024113Y023738D01*
X024113Y023472D01*
X024049Y023233D01*
X024061Y023235D01*
X024103Y023235D01*
X024103Y022355D01*
X024103Y022355D01*
X024103Y023235D01*
X024145Y023235D01*
X024227Y023222D01*
X024306Y023196D01*
X024381Y023158D01*
X024448Y023109D01*
X024507Y023050D01*
X024556Y022982D01*
X024594Y022908D01*
X024620Y022829D01*
X024633Y022746D01*
X024633Y022355D01*
X024103Y022355D01*
X024103Y022354D01*
X024103Y021475D01*
X024145Y021475D01*
X024227Y021488D01*
X024306Y021514D01*
X024381Y021551D01*
X024448Y021600D01*
X024507Y021659D01*
X024556Y021727D01*
X024594Y021801D01*
X024620Y021881D01*
X024633Y021963D01*
X024633Y022354D01*
X024103Y022354D01*
X024103Y022354D01*
X024103Y021475D01*
X024061Y021475D01*
X023979Y021488D01*
X023905Y021512D01*
X023891Y021478D01*
X023775Y021361D01*
X023911Y021225D01*
X024044Y020995D01*
X024113Y020738D01*
X024113Y020472D01*
X024049Y020233D01*
X024061Y020235D01*
X024103Y020235D01*
X024103Y019355D01*
X024103Y019355D01*
X024103Y020235D01*
X024145Y020235D01*
X024227Y020222D01*
X024306Y020196D01*
X024381Y020158D01*
X024448Y020109D01*
X024507Y020050D01*
X024556Y019982D01*
X024594Y019908D01*
X024620Y019829D01*
X024633Y019746D01*
X024633Y019355D01*
X024103Y019355D01*
X024103Y019354D01*
X024103Y018475D01*
X024145Y018475D01*
X024227Y018488D01*
X024306Y018514D01*
X024381Y018551D01*
X024448Y018600D01*
X024507Y018659D01*
X024556Y018727D01*
X024594Y018801D01*
X024620Y018881D01*
X024633Y018963D01*
X024633Y019354D01*
X024103Y019354D01*
X024103Y019354D01*
X024103Y018475D01*
X024061Y018475D01*
X023979Y018488D01*
X023905Y018512D01*
X023891Y018478D01*
X023775Y018361D01*
X023911Y018225D01*
X024044Y017995D01*
X024113Y017738D01*
X024113Y017472D01*
X024049Y017233D01*
X024061Y017235D01*
X024103Y017235D01*
X024103Y016355D01*
X024103Y016355D01*
X024103Y017235D01*
X024145Y017235D01*
X024227Y017222D01*
X024306Y017196D01*
X024381Y017158D01*
X024448Y017109D01*
X024507Y017050D01*
X024556Y016982D01*
X024594Y016908D01*
X024620Y016829D01*
X024633Y016746D01*
X024633Y016355D01*
X024103Y016355D01*
X024103Y016354D01*
X024103Y015475D01*
X024145Y015475D01*
X024227Y015488D01*
X024306Y015514D01*
X024381Y015551D01*
X024448Y015600D01*
X024507Y015659D01*
X024556Y015727D01*
X024594Y015801D01*
X024620Y015881D01*
X024633Y015963D01*
X024633Y016354D01*
X024103Y016354D01*
X024103Y016354D01*
X024103Y015475D01*
X024061Y015475D01*
X023979Y015488D01*
X023905Y015512D01*
X023891Y015478D01*
X023775Y015361D01*
X023911Y015225D01*
X024044Y014995D01*
X024113Y014738D01*
X024113Y014472D01*
X024049Y014233D01*
X024061Y014235D01*
X024103Y014235D01*
X024103Y013355D01*
X024103Y013355D01*
X024103Y014235D01*
X024145Y014235D01*
X024227Y014222D01*
X024306Y014196D01*
X024381Y014158D01*
X024448Y014109D01*
X024507Y014050D01*
X024556Y013982D01*
X024594Y013908D01*
X024620Y013829D01*
X024633Y013746D01*
X024633Y013355D01*
X024103Y013355D01*
X024103Y013354D01*
X024633Y013354D01*
X024633Y012963D01*
X024620Y012881D01*
X024594Y012801D01*
X024556Y012727D01*
X024507Y012659D01*
X024448Y012600D01*
X024405Y012569D01*
X024493Y012546D01*
X024723Y012413D01*
X024911Y012225D01*
X025044Y011995D01*
X025113Y011738D01*
X025113Y011472D01*
X025044Y011215D01*
X024911Y010985D01*
X024723Y010796D01*
X024493Y010664D01*
X024236Y010595D01*
X023970Y010595D01*
X023713Y010664D01*
X023573Y010745D01*
X022052Y010745D01*
X022044Y010715D01*
X022006Y010649D01*
X022075Y010581D01*
X022203Y010272D01*
X022203Y009938D01*
X022075Y009629D01*
X022051Y009605D01*
X022075Y009581D01*
X022203Y009272D01*
X022203Y008938D01*
X022075Y008629D01*
X021839Y008393D01*
X021530Y008265D01*
X021322Y008265D01*
X021274Y008245D01*
X020932Y008245D01*
X020884Y008265D01*
X020676Y008265D01*
X020367Y008393D01*
X020131Y008629D01*
X020003Y008938D01*
X020003Y009272D01*
X020131Y009581D01*
X020155Y009605D01*
X020131Y009629D01*
X020103Y009696D01*
X020075Y009629D01*
X019839Y009393D01*
X019730Y009348D01*
X019739Y009335D01*
X019771Y009274D01*
X019792Y009208D01*
X019803Y009139D01*
X019803Y009105D01*
X019103Y009105D01*
X019103Y009104D01*
X019103Y008665D01*
X019398Y008665D01*
X019466Y008676D01*
X019532Y008697D01*
X019594Y008728D01*
X019650Y008769D01*
X019699Y008818D01*
X019739Y008874D01*
X019771Y008936D01*
X019792Y009002D01*
X019803Y009070D01*
X019803Y009104D01*
X019103Y009104D01*
X019103Y009104D01*
X019103Y008665D01*
X018808Y008665D01*
X018740Y008676D01*
X018674Y008697D01*
X018612Y008728D01*
X018556Y008769D01*
X018507Y008818D01*
X018467Y008874D01*
X018435Y008936D01*
X018414Y009002D01*
X018403Y009070D01*
X018403Y009104D01*
X019103Y009104D01*
X019103Y009105D01*
X018403Y009105D01*
X018403Y009139D01*
X018414Y009208D01*
X018426Y009245D01*
X018274Y009245D01*
X017932Y009245D01*
X017616Y009376D01*
X017093Y009898D01*
X017044Y009715D01*
X016911Y009485D01*
X016723Y009296D01*
X016493Y009164D01*
X016236Y009095D01*
X015970Y009095D01*
X015713Y009164D01*
X015483Y009296D01*
X015295Y009485D01*
X015162Y009715D01*
X015093Y009972D01*
X015093Y010238D01*
X015129Y010370D01*
X015116Y010376D01*
X014844Y010647D01*
X014832Y010618D01*
X014590Y010376D01*
X013590Y009376D01*
X013274Y009245D01*
X013179Y009245D01*
X013479Y008945D01*
X013530Y008945D01*
X013839Y008817D01*
X014075Y008581D01*
X014103Y008513D01*
X014131Y008581D01*
X014367Y008817D01*
X014676Y008945D01*
X014884Y008945D01*
X014932Y008965D01*
X015274Y008965D01*
X015322Y008945D01*
X015530Y008945D01*
X015839Y008817D01*
X016075Y008581D01*
X016203Y008272D01*
X016203Y007938D01*
X016075Y007629D01*
X015963Y007517D01*
X015963Y005934D01*
X015832Y005618D01*
X015590Y005376D01*
X015274Y005245D01*
X015133Y005245D01*
X014993Y005164D01*
X014899Y005138D01*
X014923Y005126D01*
X015000Y005070D01*
X015068Y005002D01*
X015125Y004924D01*
X015168Y004839D01*
X015198Y004748D01*
X015213Y004653D01*
X015213Y004605D01*
X014603Y004605D01*
X014603Y004604D01*
X014603Y003995D01*
X014651Y003995D01*
X014746Y004010D01*
X014837Y004039D01*
X014923Y004083D01*
X015000Y004139D01*
X015068Y004207D01*
X015125Y004285D01*
X015168Y004371D01*
X015198Y004462D01*
X015213Y004557D01*
X015213Y004604D01*
X014603Y004604D01*
X014603Y004604D01*
X014603Y003995D01*
X014555Y003995D01*
X014460Y004010D01*
X014369Y004039D01*
X014283Y004083D01*
X014206Y004139D01*
X014138Y004207D01*
X014081Y004285D01*
X014038Y004371D01*
X014008Y004462D01*
X013993Y004557D01*
X013993Y004604D01*
X014603Y004604D01*
X014603Y004605D01*
X013993Y004605D01*
X013993Y004653D01*
X014008Y004748D01*
X014038Y004839D01*
X014081Y004924D01*
X014138Y005002D01*
X014206Y005070D01*
X014283Y005126D01*
X014307Y005138D01*
X014213Y005164D01*
X014073Y005245D01*
X013633Y005245D01*
X013493Y005164D01*
X013236Y005095D01*
X012970Y005095D01*
X012964Y005096D01*
X013000Y005070D01*
X013068Y005002D01*
X013125Y004924D01*
X013168Y004839D01*
X013198Y004748D01*
X013213Y004653D01*
X013213Y004605D01*
X012603Y004605D01*
X012603Y004605D01*
X012603Y005215D01*
X012625Y005215D01*
X012483Y005296D01*
X012295Y005485D01*
X012162Y005715D01*
X012093Y005972D01*
X012093Y006238D01*
X012162Y006495D01*
X012295Y006725D01*
X012483Y006913D01*
X012713Y007046D01*
X012970Y007115D01*
X013236Y007115D01*
X013493Y007046D01*
X013633Y006965D01*
X014073Y006965D01*
X014213Y007046D01*
X014243Y007054D01*
X014243Y007517D01*
X014131Y007629D01*
X014103Y007696D01*
X014075Y007629D01*
X013839Y007393D01*
X013530Y007265D01*
X013322Y007265D01*
X013274Y007245D01*
X012932Y007245D01*
X012884Y007265D01*
X012676Y007265D01*
X012367Y007393D01*
X012131Y007629D01*
X012003Y007938D01*
X012003Y007988D01*
X011616Y008376D01*
X011374Y008618D01*
X011243Y008934D01*
X011243Y009574D01*
X011162Y009715D01*
X011093Y009972D01*
X011093Y010238D01*
X011162Y010495D01*
X011295Y010725D01*
X011483Y010913D01*
X011713Y011046D01*
X011970Y011115D01*
X012236Y011115D01*
X012493Y011046D01*
X012633Y010965D01*
X012747Y010965D01*
X013196Y011414D01*
X013138Y011405D01*
X013103Y011405D01*
X013103Y012104D01*
X013103Y012104D01*
X013103Y011405D01*
X013068Y011405D01*
X013000Y011416D01*
X012934Y011437D01*
X012872Y011468D01*
X012816Y011509D01*
X012767Y011558D01*
X012727Y011614D01*
X012695Y011676D01*
X012674Y011742D01*
X012663Y011810D01*
X012663Y012104D01*
X013103Y012104D01*
X013103Y012105D01*
X013103Y012105D01*
X013103Y012805D01*
X013138Y012805D01*
X013206Y012794D01*
X013272Y012772D01*
X013334Y012741D01*
X013346Y012732D01*
X013391Y012841D01*
X013627Y013077D01*
X013936Y013205D01*
X014270Y013205D01*
X014579Y013077D01*
X014603Y013053D01*
X014627Y013077D01*
X014936Y013205D01*
X015270Y013205D01*
X015299Y013193D01*
X015282Y013210D01*
X015110Y013210D01*
X014781Y013346D01*
X014529Y013598D01*
X014393Y013927D01*
X014393Y014283D01*
X014526Y014605D01*
X014393Y014927D01*
X014393Y015283D01*
X014526Y015605D01*
X014393Y015927D01*
X014393Y016283D01*
X014526Y016605D01*
X014393Y016927D01*
X014393Y017283D01*
X014526Y017605D01*
X014393Y017927D01*
X014393Y018283D01*
X014526Y018605D01*
X014393Y018927D01*
X014393Y019283D01*
X014529Y019612D01*
X014781Y019863D01*
X014842Y019889D01*
X014829Y019915D01*
X014805Y019989D01*
X014793Y020066D01*
X014793Y020104D01*
X015603Y020104D01*
X015603Y020105D01*
X015603Y020105D01*
X015603Y020600D01*
X015957Y020600D01*
X016034Y020587D01*
X016108Y020563D01*
X016177Y020528D01*
X016240Y020482D01*
X016296Y020427D01*
X016341Y020364D01*
X016377Y020295D01*
X016401Y020221D01*
X016413Y020144D01*
X016413Y020131D01*
X016743Y020461D01*
X016743Y020934D01*
X016743Y021276D01*
X016874Y021592D01*
X018243Y022961D01*
X018243Y023074D01*
X018162Y023215D01*
X018093Y023472D01*
X018093Y023738D01*
X018162Y023995D01*
X018295Y024225D01*
X018315Y024245D01*
X017959Y024245D01*
X016832Y023118D01*
X018218Y023118D01*
X018241Y022959D02*
X016674Y022959D01*
X016590Y022876D02*
X016832Y023118D01*
X016991Y023276D02*
X018145Y023276D01*
X018103Y023435D02*
X017149Y023435D01*
X017308Y023594D02*
X018093Y023594D01*
X018097Y023752D02*
X017467Y023752D01*
X017625Y023911D02*
X018139Y023911D01*
X018205Y024069D02*
X017784Y024069D01*
X017942Y024228D02*
X018298Y024228D01*
X018083Y022801D02*
X016409Y022801D01*
X016274Y022745D02*
X016590Y022876D01*
X016274Y022745D02*
X013963Y022745D01*
X013963Y022693D01*
X014075Y022581D01*
X014203Y022272D01*
X014203Y021938D01*
X014075Y021629D01*
X013839Y021393D01*
X013533Y021266D01*
X013533Y020920D01*
X013533Y020755D01*
X013677Y020612D01*
X013813Y020283D01*
X013813Y019927D01*
X013680Y019605D01*
X013813Y019283D01*
X013813Y018927D01*
X013680Y018605D01*
X013813Y018283D01*
X013813Y017927D01*
X013680Y017605D01*
X013813Y017283D01*
X013813Y016927D01*
X013680Y016605D01*
X013813Y016283D01*
X013813Y015927D01*
X013680Y015605D01*
X013813Y015283D01*
X013813Y014927D01*
X013680Y014605D01*
X013813Y014283D01*
X013813Y013927D01*
X013677Y013598D01*
X013425Y013346D01*
X013096Y013210D01*
X012110Y013210D01*
X012025Y013245D01*
X011959Y013245D01*
X010090Y011376D01*
X009774Y011245D01*
X009633Y011245D01*
X009493Y011164D01*
X009236Y011095D01*
X008970Y011095D01*
X008713Y011164D01*
X008483Y011296D01*
X008295Y011485D01*
X008162Y011715D01*
X008093Y011972D01*
X008093Y012238D01*
X008162Y012495D01*
X008295Y012725D01*
X008425Y012855D01*
X008295Y012985D01*
X008162Y013215D01*
X008093Y013472D01*
X008093Y013738D01*
X008162Y013995D01*
X008295Y014225D01*
X008425Y014355D01*
X008295Y014485D01*
X008162Y014715D01*
X008093Y014972D01*
X008093Y015238D01*
X008162Y015495D01*
X008295Y015725D01*
X008315Y015745D01*
X007774Y015745D01*
X007432Y015745D01*
X007116Y015876D01*
X006616Y016376D01*
X006616Y016376D01*
X006374Y016618D01*
X006303Y016618D01*
X006303Y016605D02*
X006303Y016639D01*
X006292Y016708D01*
X006271Y016774D01*
X006239Y016835D01*
X006199Y016891D01*
X006150Y016940D01*
X006094Y016981D01*
X006032Y017012D01*
X005966Y017034D01*
X005898Y017045D01*
X005603Y017045D01*
X005603Y016605D01*
X005603Y016605D01*
X005603Y017045D01*
X005308Y017045D01*
X005240Y017034D01*
X005174Y017012D01*
X005112Y016981D01*
X005056Y016940D01*
X005007Y016891D01*
X004967Y016835D01*
X004935Y016774D01*
X004914Y016708D01*
X004903Y016639D01*
X004903Y016605D01*
X005603Y016605D01*
X006303Y016605D01*
X006303Y016604D02*
X005603Y016604D01*
X005603Y016165D01*
X005898Y016165D01*
X005966Y016176D01*
X006032Y016197D01*
X006094Y016228D01*
X006150Y016269D01*
X006199Y016318D01*
X006239Y016374D01*
X006271Y016436D01*
X006292Y016502D01*
X006303Y016570D01*
X006303Y016604D01*
X006374Y016618D02*
X006243Y016934D01*
X006243Y020156D01*
X006213Y020164D01*
X005983Y020296D01*
X005795Y020485D01*
X005662Y020715D01*
X005593Y020972D01*
X005593Y021238D01*
X005595Y021245D01*
X004932Y021245D01*
X004884Y021265D01*
X004676Y021265D01*
X004367Y021393D01*
X004131Y021629D01*
X004003Y021938D01*
X004003Y022272D01*
X004131Y022581D01*
X004367Y022817D01*
X004676Y022945D01*
X004884Y022945D01*
X004932Y022965D01*
X006274Y022965D01*
X006590Y022834D01*
X006832Y022592D01*
X007332Y022092D01*
X007463Y021776D01*
X007463Y021635D01*
X007544Y021495D01*
X007586Y021338D01*
X007832Y021092D01*
X007963Y020776D01*
X007963Y020434D01*
X007963Y017465D01*
X008315Y017465D01*
X008295Y017485D01*
X008162Y017715D01*
X008093Y017972D01*
X008093Y018238D01*
X008162Y018495D01*
X008295Y018725D01*
X008425Y018855D01*
X008295Y018985D01*
X008162Y019215D01*
X008093Y019472D01*
X008093Y019738D01*
X008162Y019995D01*
X008295Y020225D01*
X008483Y020413D01*
X008544Y020448D01*
X008116Y020876D01*
X007874Y021118D01*
X007743Y021434D01*
X007743Y022685D01*
X007648Y022915D01*
X007648Y023295D01*
X007793Y023646D01*
X008062Y023914D01*
X008413Y024060D01*
X008793Y024060D01*
X009144Y023914D01*
X009413Y023646D01*
X009558Y023295D01*
X009558Y022915D01*
X009463Y022685D01*
X009463Y021965D01*
X010073Y021965D01*
X010213Y022046D01*
X010470Y022115D01*
X010736Y022115D01*
X010993Y022046D01*
X011012Y022035D01*
X011774Y022035D01*
X011815Y022131D01*
X012037Y022354D01*
X012131Y022581D01*
X012243Y022693D01*
X012243Y023276D01*
X012374Y023592D01*
X012616Y023834D01*
X013116Y024334D01*
X013431Y024464D01*
X013419Y024502D01*
X013408Y024570D01*
X013408Y024604D01*
X014103Y024604D01*
X014103Y024605D01*
X013408Y024605D01*
X013408Y024639D01*
X013419Y024707D01*
X013431Y024745D01*
X013116Y024876D01*
X012616Y025376D01*
X012374Y025618D01*
X012298Y025800D01*
X012116Y025876D01*
X011874Y026118D01*
X011747Y026245D01*
X011158Y026245D01*
X011158Y026105D01*
X010603Y026105D01*
X010603Y026104D01*
X010603Y025550D01*
X010833Y025550D01*
X011158Y025875D01*
X011158Y026104D01*
X010603Y026104D01*
X010603Y026104D01*
X010603Y025550D01*
X010373Y025550D01*
X010048Y025875D01*
X010048Y026104D01*
X010603Y026104D01*
X010603Y026105D01*
X010048Y026105D01*
X010048Y026245D01*
X009959Y026245D01*
X009508Y025793D01*
X009413Y025564D01*
X009144Y025295D01*
X008793Y025150D01*
X008413Y025150D01*
X008062Y025295D01*
X007851Y025506D01*
X006139Y026790D01*
X006076Y026816D01*
X005992Y026900D01*
X005897Y026972D01*
X005863Y027030D01*
X005815Y027078D01*
X005769Y027188D01*
X005709Y027290D01*
X005699Y027357D01*
X005673Y027420D01*
X005673Y027539D01*
X005656Y027656D01*
X005673Y027722D01*
X005673Y028023D01*
X005608Y027487D01*
X005608Y027487D01*
X005387Y026906D01*
X005387Y026906D01*
X005034Y026394D01*
X005034Y026394D01*
X004569Y025981D01*
X004569Y025981D01*
X004018Y025692D01*
X003414Y025544D01*
X002792Y025544D01*
X002188Y025692D01*
X001637Y025981D01*
X001172Y026394D01*
X001172Y026394D01*
X001172Y026394D01*
X000819Y026906D01*
X000819Y026906D01*
X000683Y027263D01*
X000683Y004946D01*
X000819Y005304D01*
X000819Y005304D01*
X001172Y005816D01*
X001172Y005816D01*
X001637Y006228D01*
X001637Y006228D01*
X002188Y006517D01*
X002188Y006517D01*
X002792Y006666D01*
X002792Y006666D01*
X003414Y006666D01*
X003414Y006666D01*
X004018Y006517D01*
X004018Y006517D01*
X004569Y006228D01*
X004569Y006228D01*
X005034Y005816D01*
X005387Y005304D01*
X005387Y005304D01*
X005608Y004722D01*
X005683Y004105D01*
X005608Y003487D01*
X005608Y003487D01*
X005387Y002906D01*
X005387Y002906D01*
X005034Y002394D01*
X005034Y002394D01*
X004569Y001981D01*
X004569Y001981D01*
X004018Y001692D01*
X004018Y001692D01*
X003414Y001544D01*
X003414Y001544D01*
X002792Y001544D01*
X002792Y001544D01*
X002188Y001692D01*
X002188Y001692D01*
X001637Y001981D01*
X001637Y001981D01*
X001172Y002394D01*
X001172Y002394D01*
X001172Y002394D01*
X000819Y002906D01*
X000819Y002906D01*
X000683Y003263D01*
X000683Y003141D02*
X000729Y003141D01*
X000683Y002983D02*
X000789Y002983D01*
X000875Y002824D02*
X000683Y002824D01*
X000683Y002666D02*
X000984Y002666D01*
X001094Y002507D02*
X000683Y002507D01*
X000683Y002349D02*
X001223Y002349D01*
X001402Y002190D02*
X000683Y002190D01*
X000683Y002032D02*
X001581Y002032D01*
X001844Y001873D02*
X000683Y001873D01*
X000683Y001715D02*
X002146Y001715D01*
X002741Y001556D02*
X000683Y001556D01*
X000683Y001397D02*
X026393Y001397D01*
X026393Y001239D02*
X000683Y001239D01*
X000683Y001080D02*
X026393Y001080D01*
X026393Y000922D02*
X000683Y000922D01*
X000683Y000763D02*
X026393Y000763D01*
X026393Y001556D02*
X024464Y001556D01*
X025060Y001715D02*
X026393Y001715D01*
X026393Y001873D02*
X025362Y001873D01*
X025625Y002032D02*
X026393Y002032D01*
X026393Y002190D02*
X025804Y002190D01*
X025983Y002349D02*
X026393Y002349D01*
X026393Y002507D02*
X026112Y002507D01*
X026222Y002666D02*
X026393Y002666D01*
X026393Y002824D02*
X026331Y002824D01*
X026348Y005361D02*
X026393Y005361D01*
X026393Y005520D02*
X026238Y005520D01*
X026129Y005678D02*
X026393Y005678D01*
X026393Y005837D02*
X026010Y005837D01*
X025831Y005995D02*
X026393Y005995D01*
X026393Y006154D02*
X025652Y006154D01*
X025408Y006312D02*
X026393Y006312D01*
X026393Y006471D02*
X025106Y006471D01*
X024708Y006788D02*
X026393Y006788D01*
X026393Y006946D02*
X024873Y006946D01*
X024981Y007105D02*
X026393Y007105D01*
X026393Y007264D02*
X025057Y007264D01*
X025100Y007422D02*
X026393Y007422D01*
X026393Y007581D02*
X025113Y007581D01*
X025113Y007739D02*
X026393Y007739D01*
X026393Y007898D02*
X025070Y007898D01*
X025009Y008056D02*
X026393Y008056D01*
X026393Y008215D02*
X024917Y008215D01*
X024763Y008373D02*
X026393Y008373D01*
X026393Y008532D02*
X024517Y008532D01*
X023689Y008532D02*
X021978Y008532D01*
X022101Y008690D02*
X026393Y008690D01*
X026393Y008849D02*
X022166Y008849D01*
X022203Y009008D02*
X026393Y009008D01*
X026393Y009166D02*
X022203Y009166D01*
X022181Y009325D02*
X026393Y009325D01*
X026393Y009483D02*
X022115Y009483D01*
X022080Y009642D02*
X026393Y009642D01*
X026393Y009800D02*
X022146Y009800D01*
X022203Y009959D02*
X026393Y009959D01*
X026393Y010117D02*
X022203Y010117D01*
X022201Y010276D02*
X026393Y010276D01*
X026393Y010434D02*
X022136Y010434D01*
X022063Y010593D02*
X026393Y010593D01*
X026393Y010751D02*
X024645Y010751D01*
X024837Y010910D02*
X026393Y010910D01*
X026393Y011069D02*
X024960Y011069D01*
X025047Y011227D02*
X026393Y011227D01*
X026393Y011386D02*
X025090Y011386D01*
X025113Y011544D02*
X026393Y011544D01*
X026393Y011703D02*
X025113Y011703D01*
X025080Y011861D02*
X026393Y011861D01*
X026393Y012020D02*
X025030Y012020D01*
X024938Y012178D02*
X026393Y012178D01*
X026393Y012337D02*
X024799Y012337D01*
X024580Y012495D02*
X026393Y012495D01*
X026393Y012654D02*
X024502Y012654D01*
X024598Y012813D02*
X026393Y012813D01*
X026393Y012971D02*
X024633Y012971D01*
X024633Y013130D02*
X026393Y013130D01*
X026393Y013288D02*
X024633Y013288D01*
X024633Y013447D02*
X026393Y013447D01*
X026393Y013605D02*
X024633Y013605D01*
X024630Y013764D02*
X026393Y013764D01*
X026393Y013922D02*
X024587Y013922D01*
X024476Y014081D02*
X026393Y014081D01*
X026393Y014239D02*
X024051Y014239D01*
X024093Y014398D02*
X026393Y014398D01*
X026393Y014557D02*
X024113Y014557D01*
X024113Y014715D02*
X026393Y014715D01*
X026393Y014874D02*
X024077Y014874D01*
X024022Y015032D02*
X026393Y015032D01*
X026393Y015191D02*
X023931Y015191D01*
X023787Y015349D02*
X026393Y015349D01*
X026393Y015508D02*
X024289Y015508D01*
X024103Y015508D02*
X024103Y015508D01*
X024103Y015666D02*
X024103Y015666D01*
X024103Y015825D02*
X024103Y015825D01*
X024103Y015983D02*
X024103Y015983D01*
X024103Y016142D02*
X024103Y016142D01*
X024103Y016301D02*
X024103Y016301D01*
X024103Y016459D02*
X024103Y016459D01*
X024103Y016618D02*
X024103Y016618D01*
X024103Y016776D02*
X024103Y016776D01*
X024103Y016935D02*
X024103Y016935D01*
X024103Y017093D02*
X024103Y017093D01*
X024054Y017252D02*
X026393Y017252D01*
X026393Y017410D02*
X024096Y017410D01*
X024113Y017569D02*
X026393Y017569D01*
X026393Y017727D02*
X024113Y017727D01*
X024073Y017886D02*
X026393Y017886D01*
X026393Y018044D02*
X024015Y018044D01*
X023924Y018203D02*
X026393Y018203D01*
X026393Y018362D02*
X023775Y018362D01*
X024103Y018520D02*
X024103Y018520D01*
X024103Y018679D02*
X024103Y018679D01*
X024103Y018837D02*
X024103Y018837D01*
X024103Y018996D02*
X024103Y018996D01*
X024103Y019154D02*
X024103Y019154D01*
X024103Y019313D02*
X024103Y019313D01*
X024103Y019471D02*
X024103Y019471D01*
X024103Y019630D02*
X024103Y019630D01*
X024103Y019788D02*
X024103Y019788D01*
X024103Y019947D02*
X024103Y019947D01*
X024103Y020106D02*
X024103Y020106D01*
X024057Y020264D02*
X026393Y020264D01*
X026393Y020106D02*
X024452Y020106D01*
X024574Y019947D02*
X026393Y019947D01*
X026393Y019788D02*
X024626Y019788D01*
X024633Y019630D02*
X026393Y019630D01*
X026393Y019471D02*
X024633Y019471D01*
X024633Y019313D02*
X026393Y019313D01*
X026393Y019154D02*
X024633Y019154D01*
X024633Y018996D02*
X026393Y018996D01*
X026393Y018837D02*
X024606Y018837D01*
X024521Y018679D02*
X026393Y018679D01*
X026393Y018520D02*
X024319Y018520D01*
X024464Y017093D02*
X026393Y017093D01*
X026393Y016935D02*
X024581Y016935D01*
X024628Y016776D02*
X026393Y016776D01*
X026393Y016618D02*
X024633Y016618D01*
X024633Y016459D02*
X026393Y016459D01*
X026393Y016301D02*
X024633Y016301D01*
X024633Y016142D02*
X026393Y016142D01*
X026393Y015983D02*
X024633Y015983D01*
X024602Y015825D02*
X026393Y015825D01*
X026393Y015666D02*
X024512Y015666D01*
X023917Y015508D02*
X023904Y015508D01*
X024103Y014081D02*
X024103Y014081D01*
X024103Y013922D02*
X024103Y013922D01*
X024103Y013764D02*
X024103Y013764D01*
X024103Y013605D02*
X024103Y013605D01*
X024103Y013447D02*
X024103Y013447D01*
X021603Y011605D02*
X021103Y011105D01*
X020126Y009642D02*
X020080Y009642D01*
X020091Y009483D02*
X019929Y009483D01*
X020025Y009325D02*
X019745Y009325D01*
X019799Y009166D02*
X020003Y009166D01*
X020003Y009008D02*
X019793Y009008D01*
X019721Y008849D02*
X020040Y008849D01*
X020105Y008690D02*
X019512Y008690D01*
X019103Y008690D02*
X019103Y008690D01*
X019103Y008849D02*
X019103Y008849D01*
X019103Y009008D02*
X019103Y009008D01*
X018694Y008690D02*
X015965Y008690D01*
X016095Y008532D02*
X020228Y008532D01*
X020414Y008373D02*
X016161Y008373D01*
X016203Y008215D02*
X023289Y008215D01*
X023197Y008056D02*
X016203Y008056D01*
X016186Y007898D02*
X023060Y007898D01*
X022849Y007739D02*
X016121Y007739D01*
X016027Y007581D02*
X022638Y007581D01*
X022426Y007422D02*
X015963Y007422D01*
X015963Y007264D02*
X022215Y007264D01*
X022003Y007105D02*
X018772Y007105D01*
X018434Y007105D02*
X015963Y007105D01*
X015963Y006946D02*
X018041Y006946D01*
X017858Y006788D02*
X015963Y006788D01*
X015963Y006629D02*
X017740Y006629D01*
X017655Y006471D02*
X015963Y006471D01*
X015963Y006312D02*
X017613Y006312D01*
X017593Y006154D02*
X015963Y006154D01*
X015963Y005995D02*
X017593Y005995D01*
X017629Y005837D02*
X015923Y005837D01*
X015857Y005678D02*
X017683Y005678D01*
X017743Y005520D02*
X015734Y005520D01*
X015555Y005361D02*
X017743Y005361D01*
X017743Y005202D02*
X015060Y005202D01*
X015026Y005044D02*
X017690Y005044D01*
X017633Y004885D02*
X015145Y004885D01*
X015201Y004727D02*
X017593Y004727D01*
X017593Y004568D02*
X015213Y004568D01*
X015181Y004410D02*
X017610Y004410D01*
X017652Y004251D02*
X015100Y004251D01*
X014936Y004093D02*
X016560Y004093D01*
X016402Y003934D02*
X010304Y003934D01*
X010146Y004093D02*
X012270Y004093D01*
X012283Y004083D02*
X012369Y004039D01*
X012460Y004010D01*
X012555Y003995D01*
X012603Y003995D01*
X012651Y003995D01*
X012746Y004010D01*
X012837Y004039D01*
X012923Y004083D01*
X013000Y004139D01*
X013068Y004207D01*
X013125Y004285D01*
X013168Y004371D01*
X013198Y004462D01*
X013213Y004557D01*
X013213Y004604D01*
X012603Y004604D01*
X012603Y003995D01*
X012603Y004604D01*
X012603Y004604D01*
X012603Y004605D01*
X012603Y005215D01*
X012555Y005215D01*
X012460Y005200D01*
X012369Y005170D01*
X012283Y005126D01*
X012206Y005070D01*
X012138Y005002D01*
X012081Y004924D01*
X012038Y004839D01*
X012008Y004748D01*
X011993Y004653D01*
X011993Y004605D01*
X012603Y004605D01*
X012603Y004604D01*
X011993Y004604D01*
X011993Y004557D01*
X012008Y004462D01*
X012038Y004371D01*
X012081Y004285D01*
X012138Y004207D01*
X012206Y004139D01*
X012283Y004083D01*
X012106Y004251D02*
X009554Y004251D01*
X009544Y004215D02*
X009586Y004372D01*
X009832Y004618D01*
X009963Y004934D01*
X009963Y005276D01*
X009963Y005574D01*
X010044Y005715D01*
X010113Y005972D01*
X010113Y006238D01*
X010044Y006495D01*
X009911Y006725D01*
X009723Y006913D01*
X009493Y007046D01*
X009236Y007115D01*
X008970Y007115D01*
X008713Y007046D01*
X008483Y006913D01*
X008295Y006725D01*
X008162Y006495D01*
X008093Y006238D01*
X008093Y005972D01*
X008162Y005715D01*
X008243Y005574D01*
X008243Y005554D01*
X008213Y005546D01*
X008072Y005465D01*
X007932Y005465D01*
X007616Y005334D01*
X007374Y005092D01*
X006874Y004592D01*
X006743Y004276D01*
X006743Y003934D01*
X005662Y003934D01*
X005643Y003776D02*
X006743Y003776D01*
X006520Y003553D01*
X006520Y002656D01*
X007155Y002022D01*
X008051Y002022D01*
X008274Y002245D01*
X008932Y002245D01*
X009155Y002022D01*
X010051Y002022D01*
X010685Y002656D01*
X010685Y003553D01*
X010051Y004187D01*
X009528Y004187D01*
X009544Y004215D01*
X009624Y004410D02*
X012025Y004410D01*
X011993Y004568D02*
X009783Y004568D01*
X009877Y004727D02*
X012005Y004727D01*
X012061Y004885D02*
X009943Y004885D01*
X009963Y005044D02*
X012180Y005044D01*
X012418Y005361D02*
X009963Y005361D01*
X009963Y005202D02*
X012478Y005202D01*
X012603Y005202D02*
X012603Y005202D01*
X012603Y005044D02*
X012603Y005044D01*
X012603Y004885D02*
X012603Y004885D01*
X012603Y004727D02*
X012603Y004727D01*
X012603Y004568D02*
X012603Y004568D01*
X012603Y004410D02*
X012603Y004410D01*
X012603Y004251D02*
X012603Y004251D01*
X012603Y004093D02*
X012603Y004093D01*
X012683Y003787D02*
X012886Y003787D01*
X013285Y003387D01*
X013285Y003185D01*
X012683Y003185D01*
X012523Y003185D01*
X012523Y003787D01*
X012320Y003787D01*
X011920Y003387D01*
X011920Y003185D01*
X012523Y003185D01*
X012523Y003025D01*
X011920Y003025D01*
X011920Y002822D01*
X012320Y002422D01*
X012523Y002422D01*
X012523Y003025D01*
X012683Y003025D01*
X012683Y003185D01*
X012683Y003787D01*
X012683Y003776D02*
X012523Y003776D01*
X012523Y003617D02*
X012683Y003617D01*
X012683Y003459D02*
X012523Y003459D01*
X012523Y003300D02*
X012683Y003300D01*
X012683Y003141D02*
X014523Y003141D01*
X014523Y003185D02*
X014523Y003025D01*
X013920Y003025D01*
X013920Y002822D01*
X014320Y002422D01*
X014523Y002422D01*
X014523Y003025D01*
X014683Y003025D01*
X014683Y003185D01*
X014523Y003185D01*
X014523Y003787D01*
X014320Y003787D01*
X013920Y003387D01*
X013920Y003185D01*
X014523Y003185D01*
X014523Y003300D02*
X014683Y003300D01*
X014683Y003185D02*
X014683Y003787D01*
X014886Y003787D01*
X015285Y003387D01*
X015285Y003185D01*
X014683Y003185D01*
X014683Y003141D02*
X016020Y003141D01*
X016020Y002983D02*
X015285Y002983D01*
X015285Y003025D02*
X014683Y003025D01*
X014683Y002422D01*
X014886Y002422D01*
X015285Y002822D01*
X015285Y003025D01*
X015285Y002824D02*
X016020Y002824D01*
X016020Y002666D02*
X015129Y002666D01*
X014971Y002507D02*
X016170Y002507D01*
X016328Y002349D02*
X010378Y002349D01*
X010536Y002507D02*
X012235Y002507D01*
X012077Y002666D02*
X010685Y002666D01*
X010685Y002824D02*
X011920Y002824D01*
X011920Y002983D02*
X010685Y002983D01*
X010685Y003141D02*
X012523Y003141D01*
X012523Y002983D02*
X012683Y002983D01*
X012683Y003025D02*
X012683Y002422D01*
X012886Y002422D01*
X013285Y002822D01*
X013285Y003025D01*
X012683Y003025D01*
X012683Y002824D02*
X012523Y002824D01*
X012523Y002666D02*
X012683Y002666D01*
X012683Y002507D02*
X012523Y002507D01*
X012971Y002507D02*
X014235Y002507D01*
X014077Y002666D02*
X013129Y002666D01*
X013285Y002824D02*
X013920Y002824D01*
X013920Y002983D02*
X013285Y002983D01*
X013285Y003300D02*
X013920Y003300D01*
X013992Y003459D02*
X013214Y003459D01*
X013056Y003617D02*
X014150Y003617D01*
X014309Y003776D02*
X012897Y003776D01*
X012936Y004093D02*
X014270Y004093D01*
X014106Y004251D02*
X013100Y004251D01*
X013181Y004410D02*
X014025Y004410D01*
X013993Y004568D02*
X013213Y004568D01*
X013201Y004727D02*
X014005Y004727D01*
X014061Y004885D02*
X013145Y004885D01*
X013026Y005044D02*
X014180Y005044D01*
X014146Y005202D02*
X013560Y005202D01*
X014603Y004568D02*
X014603Y004568D01*
X014603Y004410D02*
X014603Y004410D01*
X014603Y004251D02*
X014603Y004251D01*
X014603Y004093D02*
X014603Y004093D01*
X014523Y003776D02*
X014683Y003776D01*
X014683Y003617D02*
X014523Y003617D01*
X014523Y003459D02*
X014683Y003459D01*
X014897Y003776D02*
X016243Y003776D01*
X016084Y003617D02*
X015056Y003617D01*
X015214Y003459D02*
X016020Y003459D01*
X016020Y003300D02*
X015285Y003300D01*
X014683Y002983D02*
X014523Y002983D01*
X014523Y002824D02*
X014683Y002824D01*
X014683Y002666D02*
X014523Y002666D01*
X014523Y002507D02*
X014683Y002507D01*
X016487Y002190D02*
X010219Y002190D01*
X010061Y002032D02*
X016645Y002032D01*
X017561Y002032D02*
X018645Y002032D01*
X018487Y002190D02*
X017719Y002190D01*
X017732Y004093D02*
X017646Y004093D01*
X019463Y005202D02*
X021780Y005202D01*
X021720Y005044D02*
X019516Y005044D01*
X019573Y004885D02*
X021660Y004885D01*
X021600Y004727D02*
X019697Y004727D01*
X019842Y004568D02*
X021579Y004568D01*
X021560Y004410D02*
X019907Y004410D01*
X019963Y004251D02*
X021541Y004251D01*
X021524Y004093D02*
X019963Y004093D01*
X020121Y003617D02*
X021582Y003617D01*
X021609Y003459D02*
X020185Y003459D01*
X020185Y003300D02*
X021669Y003300D01*
X021729Y003141D02*
X020185Y003141D01*
X020185Y002983D02*
X021789Y002983D01*
X021875Y002824D02*
X020185Y002824D01*
X020185Y002666D02*
X021984Y002666D01*
X022094Y002507D02*
X020036Y002507D01*
X019878Y002349D02*
X022223Y002349D01*
X022402Y002190D02*
X019719Y002190D01*
X019561Y002032D02*
X022581Y002032D01*
X022844Y001873D02*
X004362Y001873D01*
X004625Y002032D02*
X007145Y002032D01*
X006987Y002190D02*
X004804Y002190D01*
X004983Y002349D02*
X006828Y002349D01*
X006670Y002507D02*
X005112Y002507D01*
X005222Y002666D02*
X006520Y002666D01*
X006520Y002824D02*
X005331Y002824D01*
X005417Y002983D02*
X006520Y002983D01*
X006520Y003141D02*
X005477Y003141D01*
X005537Y003300D02*
X006520Y003300D01*
X006520Y003459D02*
X005597Y003459D01*
X005624Y003617D02*
X006584Y003617D01*
X006743Y003776D02*
X006743Y003934D01*
X006743Y004093D02*
X005681Y004093D01*
X005665Y004251D02*
X006743Y004251D01*
X006799Y004410D02*
X005646Y004410D01*
X005627Y004568D02*
X006864Y004568D01*
X007009Y004727D02*
X005606Y004727D01*
X005546Y004885D02*
X007167Y004885D01*
X007326Y005044D02*
X005486Y005044D01*
X005426Y005202D02*
X007485Y005202D01*
X007374Y005092D02*
X007374Y005092D01*
X007682Y005361D02*
X005348Y005361D01*
X005238Y005520D02*
X008168Y005520D01*
X008183Y005678D02*
X005129Y005678D01*
X005010Y005837D02*
X008129Y005837D01*
X008093Y005995D02*
X004831Y005995D01*
X004652Y006154D02*
X008093Y006154D01*
X008113Y006312D02*
X004408Y006312D01*
X004106Y006471D02*
X008155Y006471D01*
X008240Y006629D02*
X003562Y006629D01*
X002886Y007422D02*
X003285Y007822D01*
X003285Y008025D01*
X002683Y008025D01*
X002683Y008185D01*
X002523Y008185D01*
X002523Y008787D01*
X002320Y008787D01*
X001920Y008387D01*
X001920Y008185D01*
X002523Y008185D01*
X002523Y008025D01*
X001920Y008025D01*
X001920Y007822D01*
X002320Y007422D01*
X002523Y007422D01*
X002523Y008025D01*
X002683Y008025D01*
X002683Y007422D01*
X002886Y007422D01*
X003044Y007581D02*
X012179Y007581D01*
X012085Y007739D02*
X003203Y007739D01*
X003285Y007898D02*
X012019Y007898D01*
X011935Y008056D02*
X002683Y008056D01*
X002683Y008185D02*
X003285Y008185D01*
X003285Y008387D01*
X002886Y008787D01*
X002683Y008787D01*
X002683Y008185D01*
X002683Y008215D02*
X002523Y008215D01*
X002523Y008373D02*
X002683Y008373D01*
X002683Y008532D02*
X002523Y008532D01*
X002523Y008690D02*
X002683Y008690D01*
X002224Y008690D02*
X000683Y008690D01*
X000683Y008532D02*
X002065Y008532D01*
X001920Y008373D02*
X000683Y008373D01*
X000683Y008215D02*
X001920Y008215D01*
X001920Y007898D02*
X000683Y007898D01*
X000683Y008056D02*
X002523Y008056D01*
X002523Y007898D02*
X002683Y007898D01*
X002683Y007739D02*
X002523Y007739D01*
X002523Y007581D02*
X002683Y007581D01*
X002162Y007581D02*
X000683Y007581D01*
X000683Y007739D02*
X002003Y007739D01*
X002644Y006629D02*
X000683Y006629D01*
X000683Y006471D02*
X002100Y006471D01*
X001798Y006312D02*
X000683Y006312D01*
X000683Y006154D02*
X001554Y006154D01*
X001375Y005995D02*
X000683Y005995D01*
X000683Y005837D02*
X001196Y005837D01*
X001077Y005678D02*
X000683Y005678D01*
X000683Y005520D02*
X000968Y005520D01*
X000858Y005361D02*
X000683Y005361D01*
X000683Y005202D02*
X000780Y005202D01*
X000720Y005044D02*
X000683Y005044D01*
X000683Y006788D02*
X008358Y006788D01*
X008541Y006946D02*
X000683Y006946D01*
X000683Y007105D02*
X008934Y007105D01*
X009272Y007105D02*
X012934Y007105D01*
X012886Y007264D02*
X000683Y007264D01*
X000683Y007422D02*
X012338Y007422D01*
X012541Y006946D02*
X009665Y006946D01*
X009848Y006788D02*
X012358Y006788D01*
X012240Y006629D02*
X009966Y006629D01*
X010051Y006471D02*
X012155Y006471D01*
X012113Y006312D02*
X010093Y006312D01*
X010113Y006154D02*
X012093Y006154D01*
X012093Y005995D02*
X010113Y005995D01*
X010077Y005837D02*
X012129Y005837D01*
X012183Y005678D02*
X010023Y005678D01*
X009963Y005520D02*
X012275Y005520D01*
X012309Y003776D02*
X010463Y003776D01*
X010621Y003617D02*
X012150Y003617D01*
X011992Y003459D02*
X010685Y003459D01*
X010685Y003300D02*
X011920Y003300D01*
X009145Y002032D02*
X008061Y002032D01*
X008219Y002190D02*
X008987Y002190D01*
X013272Y007105D02*
X014243Y007105D01*
X014243Y007264D02*
X013319Y007264D01*
X013868Y007422D02*
X014243Y007422D01*
X014179Y007581D02*
X014027Y007581D01*
X014095Y008532D02*
X014111Y008532D01*
X014241Y008690D02*
X013965Y008690D01*
X013761Y008849D02*
X014445Y008849D01*
X013856Y009642D02*
X015204Y009642D01*
X015139Y009800D02*
X014015Y009800D01*
X014173Y009959D02*
X015096Y009959D01*
X015093Y010117D02*
X014332Y010117D01*
X014490Y010276D02*
X015103Y010276D01*
X015057Y010434D02*
X014649Y010434D01*
X014807Y010593D02*
X014899Y010593D01*
X015296Y009483D02*
X013698Y009483D01*
X013467Y009325D02*
X015455Y009325D01*
X015709Y009166D02*
X013258Y009166D01*
X013416Y009008D02*
X018413Y009008D01*
X018407Y009166D02*
X016497Y009166D01*
X016751Y009325D02*
X017739Y009325D01*
X017508Y009483D02*
X016910Y009483D01*
X017002Y009642D02*
X017350Y009642D01*
X017191Y009800D02*
X017067Y009800D01*
X015761Y008849D02*
X018485Y008849D01*
X021792Y008373D02*
X023443Y008373D01*
X024562Y006629D02*
X026393Y006629D01*
X023146Y001715D02*
X004060Y001715D01*
X003464Y001556D02*
X023741Y001556D01*
X014755Y013130D02*
X014451Y013130D01*
X014680Y013447D02*
X013526Y013447D01*
X013680Y013605D02*
X014526Y013605D01*
X014460Y013764D02*
X013745Y013764D01*
X013811Y013922D02*
X014395Y013922D01*
X014393Y014081D02*
X013813Y014081D01*
X013813Y014239D02*
X014393Y014239D01*
X014441Y014398D02*
X013765Y014398D01*
X013700Y014557D02*
X014506Y014557D01*
X014481Y014715D02*
X013725Y014715D01*
X013791Y014874D02*
X014415Y014874D01*
X014393Y015032D02*
X013813Y015032D01*
X013813Y015191D02*
X014393Y015191D01*
X014421Y015349D02*
X013785Y015349D01*
X013720Y015508D02*
X014486Y015508D01*
X014501Y015666D02*
X013705Y015666D01*
X013771Y015825D02*
X014435Y015825D01*
X014393Y015983D02*
X013813Y015983D01*
X013813Y016142D02*
X014393Y016142D01*
X014400Y016301D02*
X013806Y016301D01*
X013740Y016459D02*
X014466Y016459D01*
X014521Y016618D02*
X013685Y016618D01*
X013751Y016776D02*
X014455Y016776D01*
X014393Y016935D02*
X013813Y016935D01*
X013813Y017093D02*
X014393Y017093D01*
X014393Y017252D02*
X013813Y017252D01*
X013760Y017410D02*
X014446Y017410D01*
X014512Y017569D02*
X013694Y017569D01*
X013730Y017727D02*
X014476Y017727D01*
X014410Y017886D02*
X013796Y017886D01*
X013813Y018044D02*
X014393Y018044D01*
X014393Y018203D02*
X013813Y018203D01*
X013780Y018362D02*
X014426Y018362D01*
X014491Y018520D02*
X013715Y018520D01*
X013710Y018679D02*
X014496Y018679D01*
X014430Y018837D02*
X013776Y018837D01*
X013813Y018996D02*
X014393Y018996D01*
X014393Y019154D02*
X013813Y019154D01*
X013801Y019313D02*
X014405Y019313D01*
X014471Y019471D02*
X013735Y019471D01*
X013690Y019630D02*
X014547Y019630D01*
X014706Y019788D02*
X013756Y019788D01*
X013813Y019947D02*
X014819Y019947D01*
X014793Y020105D02*
X015603Y020105D01*
X015603Y020600D01*
X015249Y020600D01*
X015172Y020587D01*
X015098Y020563D01*
X015029Y020528D01*
X014966Y020482D01*
X014910Y020427D01*
X014865Y020364D01*
X014829Y020295D01*
X014805Y020221D01*
X014793Y020144D01*
X014793Y020105D01*
X014793Y020106D02*
X013813Y020106D01*
X013813Y020264D02*
X014819Y020264D01*
X014907Y020423D02*
X013755Y020423D01*
X013689Y020581D02*
X015153Y020581D01*
X015603Y020581D02*
X015603Y020581D01*
X015603Y020423D02*
X015603Y020423D01*
X015603Y020264D02*
X015603Y020264D01*
X015603Y020106D02*
X015603Y020106D01*
X016053Y020581D02*
X016743Y020581D01*
X016743Y020740D02*
X013549Y020740D01*
X013533Y020898D02*
X016743Y020898D01*
X016743Y021057D02*
X013533Y021057D01*
X013533Y021215D02*
X016743Y021215D01*
X016784Y021374D02*
X013794Y021374D01*
X013979Y021532D02*
X016849Y021532D01*
X016973Y021691D02*
X015513Y021691D01*
X015532Y021697D02*
X015594Y021728D01*
X015650Y021769D01*
X015699Y021818D01*
X015739Y021874D01*
X015771Y021936D01*
X015792Y022002D01*
X015803Y022070D01*
X015803Y022104D01*
X015103Y022104D01*
X015103Y021665D01*
X015398Y021665D01*
X015466Y021676D01*
X015532Y021697D01*
X015721Y021850D02*
X017132Y021850D01*
X017290Y022008D02*
X015793Y022008D01*
X015803Y022105D02*
X015803Y022139D01*
X015792Y022208D01*
X015771Y022274D01*
X015739Y022335D01*
X015699Y022391D01*
X015650Y022440D01*
X015594Y022481D01*
X015532Y022512D01*
X015466Y022534D01*
X015398Y022545D01*
X015103Y022545D01*
X015103Y022105D01*
X015103Y022105D01*
X015103Y022545D01*
X014808Y022545D01*
X014740Y022534D01*
X014674Y022512D01*
X014612Y022481D01*
X014556Y022440D01*
X014507Y022391D01*
X014467Y022335D01*
X014435Y022274D01*
X014414Y022208D01*
X014403Y022139D01*
X014403Y022105D01*
X015103Y022105D01*
X015803Y022105D01*
X015799Y022167D02*
X017449Y022167D01*
X017607Y022325D02*
X015744Y022325D01*
X015588Y022484D02*
X017766Y022484D01*
X017924Y022642D02*
X014013Y022642D01*
X014115Y022484D02*
X014618Y022484D01*
X014461Y022325D02*
X014181Y022325D01*
X014203Y022167D02*
X014407Y022167D01*
X014403Y022104D02*
X014403Y022070D01*
X014414Y022002D01*
X014435Y021936D01*
X014467Y021874D01*
X014507Y021818D01*
X014556Y021769D01*
X014612Y021728D01*
X014674Y021697D01*
X014740Y021676D01*
X014808Y021665D01*
X015103Y021665D01*
X015103Y022104D01*
X015103Y022104D01*
X015103Y022105D01*
X015103Y022104D01*
X014403Y022104D01*
X014413Y022008D02*
X014203Y022008D01*
X014166Y021850D02*
X014484Y021850D01*
X014692Y021691D02*
X014101Y021691D01*
X015103Y021691D02*
X015103Y021691D01*
X015103Y021850D02*
X015103Y021850D01*
X015103Y022008D02*
X015103Y022008D01*
X015103Y022167D02*
X015103Y022167D01*
X015103Y022325D02*
X015103Y022325D01*
X015103Y022484D02*
X015103Y022484D01*
X014794Y024545D02*
X015827Y024545D01*
X015985Y024703D02*
X014788Y024703D01*
X014755Y024862D02*
X016144Y024862D01*
X016302Y025020D02*
X014961Y025020D01*
X015091Y025179D02*
X016461Y025179D01*
X016620Y025337D02*
X015156Y025337D01*
X015198Y025496D02*
X016778Y025496D01*
X016937Y025655D02*
X015198Y025655D01*
X015181Y025813D02*
X017095Y025813D01*
X016103Y027105D02*
X015603Y027105D01*
X015532Y027012D02*
X015466Y027034D01*
X015398Y027045D01*
X015103Y027045D01*
X015103Y026605D01*
X015103Y026605D01*
X015103Y027045D01*
X014808Y027045D01*
X014740Y027034D01*
X014674Y027012D01*
X014612Y026981D01*
X014556Y026940D01*
X014507Y026891D01*
X014467Y026835D01*
X014435Y026774D01*
X014414Y026708D01*
X014403Y026639D01*
X014403Y026605D01*
X015103Y026605D01*
X015803Y026605D01*
X015803Y026639D01*
X015792Y026708D01*
X015771Y026774D01*
X015739Y026835D01*
X015699Y026891D01*
X015650Y026940D01*
X015594Y026981D01*
X015532Y027012D01*
X015667Y026923D02*
X021812Y026923D01*
X021752Y027081D02*
X014074Y027081D01*
X014140Y026923D02*
X014539Y026923D01*
X014432Y026764D02*
X014203Y026764D01*
X014203Y026606D02*
X014403Y026606D01*
X014431Y026447D02*
X014316Y026447D01*
X015019Y026130D02*
X022469Y026130D01*
X022290Y026289D02*
X015669Y026289D01*
X015774Y026447D02*
X022135Y026447D01*
X022026Y026606D02*
X015803Y026606D01*
X015774Y026764D02*
X021916Y026764D01*
X021692Y027240D02*
X013916Y027240D01*
X013641Y027399D02*
X021632Y027399D01*
X021589Y027557D02*
X013086Y027557D01*
X013245Y027716D02*
X021570Y027716D01*
X021551Y027874D02*
X013403Y027874D01*
X013562Y028033D02*
X015210Y028033D01*
X015320Y027922D02*
X015523Y027922D01*
X015523Y028525D01*
X014920Y028525D01*
X014920Y028322D01*
X015320Y027922D01*
X015523Y028033D02*
X015683Y028033D01*
X015683Y027922D02*
X015886Y027922D01*
X016285Y028322D01*
X016285Y028525D01*
X015683Y028525D01*
X015683Y028685D01*
X015523Y028685D01*
X015523Y029287D01*
X015320Y029287D01*
X014920Y028887D01*
X014920Y028685D01*
X015523Y028685D01*
X015523Y028525D01*
X015683Y028525D01*
X015683Y027922D01*
X015683Y028191D02*
X015523Y028191D01*
X015523Y028350D02*
X015683Y028350D01*
X015683Y028508D02*
X015523Y028508D01*
X015523Y028667D02*
X013685Y028667D01*
X013685Y028825D02*
X014920Y028825D01*
X015017Y028984D02*
X013685Y028984D01*
X013596Y029143D02*
X015176Y029143D01*
X015523Y029143D02*
X015683Y029143D01*
X015683Y029287D02*
X015886Y029287D01*
X016285Y028887D01*
X016285Y028685D01*
X015683Y028685D01*
X015683Y029287D01*
X015683Y028984D02*
X015523Y028984D01*
X015523Y028825D02*
X015683Y028825D01*
X015683Y028667D02*
X021591Y028667D01*
X021572Y028508D02*
X016285Y028508D01*
X016285Y028350D02*
X021553Y028350D01*
X021534Y028191D02*
X016155Y028191D01*
X015996Y028033D02*
X021532Y028033D01*
X021637Y028825D02*
X016285Y028825D01*
X016189Y028984D02*
X021697Y028984D01*
X021757Y029143D02*
X016030Y029143D01*
X014920Y028508D02*
X013685Y028508D01*
X013685Y028350D02*
X014920Y028350D01*
X015051Y028191D02*
X013685Y028191D01*
X013437Y029301D02*
X021818Y029301D01*
X021926Y029460D02*
X013279Y029460D01*
X013120Y029618D02*
X022036Y029618D01*
X022145Y029777D02*
X005061Y029777D01*
X005170Y029618D02*
X006212Y029618D01*
X005931Y029460D02*
X005280Y029460D01*
X005388Y029301D02*
X005772Y029301D01*
X005666Y029143D02*
X005449Y029143D01*
X005509Y028984D02*
X005587Y028984D01*
X005655Y027874D02*
X005673Y027874D01*
X005671Y027716D02*
X005636Y027716D01*
X005616Y027557D02*
X005670Y027557D01*
X005682Y027399D02*
X005574Y027399D01*
X005514Y027240D02*
X005738Y027240D01*
X005813Y027081D02*
X005454Y027081D01*
X005394Y026923D02*
X005962Y026923D01*
X006173Y026764D02*
X005290Y026764D01*
X005180Y026606D02*
X006385Y026606D01*
X006596Y026447D02*
X005071Y026447D01*
X004915Y026289D02*
X006808Y026289D01*
X007019Y026130D02*
X004736Y026130D01*
X004550Y025972D02*
X007230Y025972D01*
X007442Y025813D02*
X004248Y025813D01*
X003864Y025655D02*
X007653Y025655D01*
X007861Y025496D02*
X000683Y025496D01*
X000683Y025337D02*
X008020Y025337D01*
X008342Y025179D02*
X000683Y025179D01*
X000683Y025020D02*
X012971Y025020D01*
X012813Y025179D02*
X008863Y025179D01*
X009186Y025337D02*
X012654Y025337D01*
X012495Y025496D02*
X009345Y025496D01*
X009450Y025655D02*
X010268Y025655D01*
X010110Y025813D02*
X009528Y025813D01*
X009686Y025972D02*
X010048Y025972D01*
X010048Y026130D02*
X009845Y026130D01*
X010603Y025972D02*
X010603Y025972D01*
X010603Y025813D02*
X010603Y025813D01*
X010603Y025655D02*
X010603Y025655D01*
X010938Y025655D02*
X012359Y025655D01*
X012267Y025813D02*
X011096Y025813D01*
X011158Y025972D02*
X012020Y025972D01*
X011861Y026130D02*
X011158Y026130D01*
X009686Y028033D02*
X007582Y028033D01*
X007610Y028191D02*
X009596Y028191D01*
X009553Y028350D02*
X007653Y028350D01*
X007683Y028508D02*
X009523Y028508D01*
X009523Y028667D02*
X007683Y028667D01*
X007662Y028825D02*
X009544Y028825D01*
X009587Y028984D02*
X007619Y028984D01*
X007540Y029143D02*
X009666Y029143D01*
X009772Y029301D02*
X007434Y029301D01*
X007275Y029460D02*
X009931Y029460D01*
X010212Y029618D02*
X006994Y029618D01*
X007794Y027874D02*
X009213Y027874D01*
X008998Y027716D02*
X008005Y027716D01*
X008216Y027557D02*
X008839Y027557D01*
X008681Y027399D02*
X008428Y027399D01*
X010994Y029618D02*
X012086Y029618D01*
X015103Y026923D02*
X015103Y026923D01*
X015103Y026764D02*
X015103Y026764D01*
X015103Y026606D02*
X015103Y026606D01*
X015103Y026605D02*
X015103Y026604D01*
X015103Y026605D01*
X015103Y026447D02*
X015103Y026447D01*
X015103Y026289D02*
X015103Y026289D01*
X015115Y025972D02*
X022656Y025972D01*
X022958Y025813D02*
X020611Y025813D01*
X020769Y025655D02*
X023341Y025655D01*
X023495Y024545D02*
X026393Y024545D01*
X026393Y024703D02*
X021721Y024703D01*
X021879Y024545D02*
X022711Y024545D01*
X022456Y024386D02*
X022038Y024386D01*
X022196Y024228D02*
X022298Y024228D01*
X021562Y024862D02*
X026393Y024862D01*
X026393Y025020D02*
X021404Y025020D01*
X021245Y025179D02*
X026393Y025179D01*
X026393Y025337D02*
X021086Y025337D01*
X020928Y025496D02*
X026393Y025496D01*
X026393Y025655D02*
X024864Y025655D01*
X025248Y025813D02*
X026393Y025813D01*
X026393Y025972D02*
X025550Y025972D01*
X025736Y026130D02*
X026393Y026130D01*
X026393Y026289D02*
X025915Y026289D01*
X026071Y026447D02*
X026393Y026447D01*
X026393Y026606D02*
X026180Y026606D01*
X026290Y026764D02*
X026393Y026764D01*
X026393Y024386D02*
X023750Y024386D01*
X023908Y024228D02*
X026393Y024228D01*
X026393Y024069D02*
X024001Y024069D01*
X024067Y023911D02*
X026393Y023911D01*
X026393Y023752D02*
X024109Y023752D01*
X024113Y023594D02*
X026393Y023594D01*
X026393Y023435D02*
X024103Y023435D01*
X024061Y023276D02*
X026393Y023276D01*
X026393Y023118D02*
X024436Y023118D01*
X024568Y022959D02*
X026393Y022959D01*
X026393Y022801D02*
X024624Y022801D01*
X024633Y022642D02*
X026393Y022642D01*
X026393Y022484D02*
X024633Y022484D01*
X024633Y022325D02*
X026393Y022325D01*
X026393Y022167D02*
X024633Y022167D01*
X024633Y022008D02*
X026393Y022008D01*
X026393Y021850D02*
X024610Y021850D01*
X024530Y021691D02*
X026393Y021691D01*
X026393Y021532D02*
X024344Y021532D01*
X024103Y021532D02*
X024103Y021532D01*
X024103Y021691D02*
X024103Y021691D01*
X024103Y021850D02*
X024103Y021850D01*
X024103Y022008D02*
X024103Y022008D01*
X024103Y022167D02*
X024103Y022167D01*
X024103Y022325D02*
X024103Y022325D01*
X024103Y022484D02*
X024103Y022484D01*
X024103Y022642D02*
X024103Y022642D01*
X024103Y022801D02*
X024103Y022801D01*
X024103Y022959D02*
X024103Y022959D01*
X024103Y023118D02*
X024103Y023118D01*
X023787Y021374D02*
X026393Y021374D01*
X026393Y021215D02*
X023917Y021215D01*
X024008Y021057D02*
X026393Y021057D01*
X026393Y020898D02*
X024070Y020898D01*
X024112Y020740D02*
X026393Y020740D01*
X026393Y020581D02*
X024113Y020581D01*
X024100Y020423D02*
X026393Y020423D01*
X022307Y029935D02*
X004899Y029935D01*
X004720Y030094D02*
X022486Y030094D01*
X022684Y030252D02*
X004522Y030252D01*
X004220Y030411D02*
X022986Y030411D01*
X016705Y020423D02*
X016299Y020423D01*
X016387Y020264D02*
X016546Y020264D01*
X013010Y024228D02*
X000683Y024228D01*
X000683Y024386D02*
X013242Y024386D01*
X013412Y024545D02*
X000683Y024545D01*
X000683Y024703D02*
X013418Y024703D01*
X013149Y024862D02*
X000683Y024862D01*
X000683Y024069D02*
X012851Y024069D01*
X012693Y023911D02*
X009148Y023911D01*
X009306Y023752D02*
X012534Y023752D01*
X012376Y023594D02*
X010899Y023594D01*
X010833Y023660D02*
X010603Y023660D01*
X010603Y023105D01*
X010603Y023105D01*
X010603Y023660D01*
X010373Y023660D01*
X010048Y023335D01*
X010048Y023105D01*
X010603Y023105D01*
X011158Y023105D01*
X011158Y023335D01*
X010833Y023660D01*
X010603Y023594D02*
X010603Y023594D01*
X010603Y023435D02*
X010603Y023435D01*
X010603Y023276D02*
X010603Y023276D01*
X010603Y023118D02*
X010603Y023118D01*
X010603Y023105D02*
X010603Y023104D01*
X010603Y022550D01*
X010833Y022550D01*
X011158Y022875D01*
X011158Y023104D01*
X010603Y023104D01*
X010603Y023104D01*
X010603Y022550D01*
X010373Y022550D01*
X010048Y022875D01*
X010048Y023104D01*
X010603Y023104D01*
X010603Y023105D01*
X010603Y022959D02*
X010603Y022959D01*
X010603Y022801D02*
X010603Y022801D01*
X010603Y022642D02*
X010603Y022642D01*
X010925Y022642D02*
X012193Y022642D01*
X012243Y022801D02*
X011084Y022801D01*
X011158Y022959D02*
X012243Y022959D01*
X012243Y023118D02*
X011158Y023118D01*
X011158Y023276D02*
X012243Y023276D01*
X012309Y023435D02*
X011058Y023435D01*
X010307Y023594D02*
X009434Y023594D01*
X009500Y023435D02*
X010148Y023435D01*
X010048Y023276D02*
X009558Y023276D01*
X009558Y023118D02*
X010048Y023118D01*
X010048Y022959D02*
X009558Y022959D01*
X009511Y022801D02*
X010122Y022801D01*
X010281Y022642D02*
X009463Y022642D01*
X009463Y022484D02*
X012091Y022484D01*
X012008Y022325D02*
X009463Y022325D01*
X009463Y022167D02*
X011850Y022167D01*
X010148Y022008D02*
X009463Y022008D01*
X008252Y020740D02*
X007963Y020740D01*
X007963Y020581D02*
X008410Y020581D01*
X008500Y020423D02*
X007963Y020423D01*
X007963Y020264D02*
X008334Y020264D01*
X008226Y020106D02*
X007963Y020106D01*
X007963Y019947D02*
X008149Y019947D01*
X008107Y019788D02*
X007963Y019788D01*
X007963Y019630D02*
X008093Y019630D01*
X008093Y019471D02*
X007963Y019471D01*
X007963Y019313D02*
X008136Y019313D01*
X008197Y019154D02*
X007963Y019154D01*
X007963Y018996D02*
X008288Y018996D01*
X008407Y018837D02*
X007963Y018837D01*
X007963Y018679D02*
X008268Y018679D01*
X008177Y018520D02*
X007963Y018520D01*
X007963Y018362D02*
X008126Y018362D01*
X008093Y018203D02*
X007963Y018203D01*
X007963Y018044D02*
X008093Y018044D01*
X008116Y017886D02*
X007963Y017886D01*
X007963Y017727D02*
X008158Y017727D01*
X008246Y017569D02*
X007963Y017569D01*
X006691Y016301D02*
X006181Y016301D01*
X006278Y016459D02*
X006532Y016459D01*
X006308Y016776D02*
X006269Y016776D01*
X006243Y016935D02*
X006155Y016935D01*
X006243Y017093D02*
X004122Y017093D01*
X004051Y017022D02*
X004274Y017245D01*
X004572Y017245D01*
X004713Y017164D01*
X004970Y017095D01*
X005236Y017095D01*
X005493Y017164D01*
X005723Y017296D01*
X005911Y017485D01*
X006044Y017715D01*
X006113Y017972D01*
X006113Y018238D01*
X006044Y018495D01*
X005911Y018725D01*
X005781Y018855D01*
X005911Y018985D01*
X006044Y019215D01*
X006113Y019472D01*
X006113Y019738D01*
X006044Y019995D01*
X005911Y020225D01*
X005723Y020413D01*
X005493Y020546D01*
X005336Y020588D01*
X005332Y020592D01*
X005090Y020834D01*
X004774Y020965D01*
X004274Y020965D01*
X004051Y021187D01*
X003155Y021187D01*
X002520Y020553D01*
X002520Y019656D01*
X003072Y019105D01*
X002520Y018553D01*
X002520Y017656D01*
X003155Y017022D01*
X004051Y017022D01*
X004051Y016187D02*
X003155Y016187D01*
X002520Y015553D01*
X002520Y014656D01*
X003072Y014105D01*
X002520Y013553D01*
X002520Y012656D01*
X003155Y012022D01*
X004051Y012022D01*
X004093Y012064D01*
X004093Y011972D01*
X004127Y011845D01*
X003297Y011015D01*
X002726Y011015D01*
X002320Y010609D01*
X002314Y010615D01*
X002103Y010615D01*
X002103Y010105D01*
X002103Y010105D01*
X002103Y010615D01*
X001892Y010615D01*
X001593Y010316D01*
X001593Y010105D01*
X002103Y010105D01*
X002103Y010104D01*
X002103Y009595D01*
X002314Y009595D01*
X002320Y009601D01*
X002726Y009195D01*
X003480Y009195D01*
X003530Y009245D01*
X003774Y009245D01*
X004090Y009376D01*
X005832Y011118D01*
X005963Y011434D01*
X005963Y011574D01*
X006044Y011715D01*
X006113Y011972D01*
X006113Y012238D01*
X006044Y012495D01*
X005911Y012725D01*
X005781Y012855D01*
X005911Y012985D01*
X006044Y013215D01*
X006113Y013472D01*
X006113Y013738D01*
X006044Y013995D01*
X005911Y014225D01*
X005781Y014355D01*
X005911Y014485D01*
X006044Y014715D01*
X008162Y014715D01*
X008119Y014874D02*
X006087Y014874D01*
X006113Y014972D02*
X006113Y015238D01*
X006044Y015495D01*
X005911Y015725D01*
X005723Y015913D01*
X005493Y016046D01*
X005236Y016115D01*
X004970Y016115D01*
X004713Y016046D01*
X004573Y015965D01*
X004274Y015965D01*
X004051Y016187D01*
X004097Y016142D02*
X006849Y016142D01*
X007008Y015983D02*
X005601Y015983D01*
X005603Y016165D02*
X005603Y016604D01*
X005603Y016604D01*
X005603Y016605D01*
X005603Y016604D01*
X004903Y016604D01*
X004903Y016570D01*
X004914Y016502D01*
X004935Y016436D01*
X004967Y016374D01*
X005007Y016318D01*
X005056Y016269D01*
X005112Y016228D01*
X005174Y016197D01*
X005240Y016176D01*
X005308Y016165D01*
X005603Y016165D01*
X005603Y016301D02*
X005603Y016301D01*
X005603Y016459D02*
X005603Y016459D01*
X005603Y016618D02*
X005603Y016618D01*
X005603Y016776D02*
X005603Y016776D01*
X005603Y016935D02*
X005603Y016935D01*
X005646Y017252D02*
X006243Y017252D01*
X006243Y017410D02*
X005837Y017410D01*
X005960Y017569D02*
X006243Y017569D01*
X006243Y017727D02*
X006047Y017727D01*
X006090Y017886D02*
X006243Y017886D01*
X006243Y018044D02*
X006113Y018044D01*
X006113Y018203D02*
X006243Y018203D01*
X006243Y018362D02*
X006080Y018362D01*
X006029Y018520D02*
X006243Y018520D01*
X006243Y018679D02*
X005938Y018679D01*
X005799Y018837D02*
X006243Y018837D01*
X006243Y018996D02*
X005918Y018996D01*
X006009Y019154D02*
X006243Y019154D01*
X006243Y019313D02*
X006070Y019313D01*
X006113Y019471D02*
X006243Y019471D01*
X006243Y019630D02*
X006113Y019630D01*
X006099Y019788D02*
X006243Y019788D01*
X006243Y019947D02*
X006057Y019947D01*
X005980Y020106D02*
X006243Y020106D01*
X006039Y020264D02*
X005872Y020264D01*
X005857Y020423D02*
X005706Y020423D01*
X005739Y020581D02*
X005361Y020581D01*
X005332Y020592D02*
X005332Y020592D01*
X005184Y020740D02*
X005655Y020740D01*
X005613Y020898D02*
X004934Y020898D01*
X005593Y021057D02*
X004182Y021057D01*
X004412Y021374D02*
X000683Y021374D01*
X000683Y021532D02*
X004227Y021532D01*
X004105Y021691D02*
X003513Y021691D01*
X003532Y021697D02*
X003466Y021676D01*
X003398Y021665D01*
X003103Y021665D01*
X003103Y022104D01*
X003103Y022104D01*
X003103Y021665D01*
X002808Y021665D01*
X002740Y021676D01*
X002674Y021697D01*
X002612Y021728D01*
X002556Y021769D01*
X002507Y021818D01*
X002467Y021874D01*
X002435Y021936D01*
X002414Y022002D01*
X002403Y022070D01*
X002403Y022104D01*
X003103Y022104D01*
X003103Y022105D01*
X003103Y022105D01*
X003103Y022545D01*
X003398Y022545D01*
X003466Y022534D01*
X003532Y022512D01*
X003594Y022481D01*
X003650Y022440D01*
X003699Y022391D01*
X003739Y022335D01*
X003771Y022274D01*
X003792Y022208D01*
X003803Y022139D01*
X003803Y022105D01*
X003103Y022105D01*
X003103Y022545D01*
X002808Y022545D01*
X002740Y022534D01*
X002674Y022512D01*
X002612Y022481D01*
X002556Y022440D01*
X002507Y022391D01*
X002467Y022335D01*
X002435Y022274D01*
X002414Y022208D01*
X002403Y022139D01*
X002403Y022105D01*
X003103Y022105D01*
X003103Y022104D01*
X003803Y022104D01*
X003803Y022070D01*
X003792Y022002D01*
X003771Y021936D01*
X003739Y021874D01*
X003699Y021818D01*
X003650Y021769D01*
X003594Y021728D01*
X003532Y021697D01*
X003721Y021850D02*
X004039Y021850D01*
X004003Y022008D02*
X003793Y022008D01*
X003799Y022167D02*
X004003Y022167D01*
X004025Y022325D02*
X003744Y022325D01*
X003588Y022484D02*
X004091Y022484D01*
X004193Y022642D02*
X000683Y022642D01*
X000683Y022484D02*
X002618Y022484D01*
X002461Y022325D02*
X000683Y022325D01*
X000683Y022167D02*
X002407Y022167D01*
X002413Y022008D02*
X000683Y022008D01*
X000683Y021850D02*
X002484Y021850D01*
X002692Y021691D02*
X000683Y021691D01*
X000683Y021215D02*
X005593Y021215D01*
X006940Y022484D02*
X007743Y022484D01*
X007743Y022642D02*
X006782Y022642D01*
X006623Y022801D02*
X007695Y022801D01*
X007648Y022959D02*
X006287Y022959D01*
X007099Y022325D02*
X007743Y022325D01*
X007743Y022167D02*
X007257Y022167D01*
X007367Y022008D02*
X007743Y022008D01*
X007743Y021850D02*
X007432Y021850D01*
X007463Y021691D02*
X007743Y021691D01*
X007743Y021532D02*
X007522Y021532D01*
X007576Y021374D02*
X007768Y021374D01*
X007709Y021215D02*
X007833Y021215D01*
X007847Y021057D02*
X007935Y021057D01*
X007912Y020898D02*
X008093Y020898D01*
X007648Y023118D02*
X000683Y023118D01*
X000683Y023276D02*
X007648Y023276D01*
X007706Y023435D02*
X000683Y023435D01*
X000683Y023594D02*
X007772Y023594D01*
X007900Y023752D02*
X000683Y023752D01*
X000683Y023911D02*
X008058Y023911D01*
X004919Y022959D02*
X000683Y022959D01*
X000683Y022801D02*
X004351Y022801D01*
X003103Y022484D02*
X003103Y022484D01*
X003103Y022325D02*
X003103Y022325D01*
X003103Y022167D02*
X003103Y022167D01*
X003103Y022008D02*
X003103Y022008D01*
X003103Y021850D02*
X003103Y021850D01*
X003103Y021691D02*
X003103Y021691D01*
X003024Y021057D02*
X000683Y021057D01*
X000683Y020898D02*
X002866Y020898D01*
X002707Y020740D02*
X001933Y020740D01*
X001886Y020787D02*
X002285Y020387D01*
X002285Y020185D01*
X001683Y020185D01*
X001523Y020185D01*
X001523Y020787D01*
X001320Y020787D01*
X000920Y020387D01*
X000920Y020185D01*
X001523Y020185D01*
X001523Y020025D01*
X000920Y020025D01*
X000920Y019822D01*
X001320Y019422D01*
X001523Y019422D01*
X001523Y020025D01*
X001683Y020025D01*
X001683Y020185D01*
X001683Y020787D01*
X001886Y020787D01*
X001683Y020740D02*
X001523Y020740D01*
X001523Y020581D02*
X001683Y020581D01*
X001683Y020423D02*
X001523Y020423D01*
X001523Y020264D02*
X001683Y020264D01*
X001683Y020106D02*
X002520Y020106D01*
X002520Y020264D02*
X002285Y020264D01*
X002250Y020423D02*
X002520Y020423D01*
X002549Y020581D02*
X002092Y020581D01*
X002285Y020025D02*
X001683Y020025D01*
X001683Y019422D01*
X001886Y019422D01*
X002285Y019822D01*
X002285Y020025D01*
X002285Y019947D02*
X002520Y019947D01*
X002520Y019788D02*
X002252Y019788D01*
X002093Y019630D02*
X002547Y019630D01*
X002705Y019471D02*
X001935Y019471D01*
X001683Y019471D02*
X001523Y019471D01*
X001523Y019630D02*
X001683Y019630D01*
X001683Y019788D02*
X001523Y019788D01*
X001523Y019947D02*
X001683Y019947D01*
X001523Y020106D02*
X000683Y020106D01*
X000683Y020264D02*
X000920Y020264D01*
X000956Y020423D02*
X000683Y020423D01*
X000683Y020581D02*
X001114Y020581D01*
X001273Y020740D02*
X000683Y020740D01*
X000683Y019947D02*
X000920Y019947D01*
X000954Y019788D02*
X000683Y019788D01*
X000683Y019630D02*
X001113Y019630D01*
X001271Y019471D02*
X000683Y019471D01*
X000683Y019313D02*
X002864Y019313D01*
X003023Y019154D02*
X000683Y019154D01*
X000683Y018996D02*
X002963Y018996D01*
X002805Y018837D02*
X000683Y018837D01*
X000683Y018679D02*
X001212Y018679D01*
X001320Y018787D02*
X000920Y018387D01*
X000920Y018185D01*
X001523Y018185D01*
X001523Y018787D01*
X001320Y018787D01*
X001523Y018679D02*
X001683Y018679D01*
X001683Y018787D02*
X001683Y018185D01*
X001523Y018185D01*
X001523Y018025D01*
X000920Y018025D01*
X000920Y017822D01*
X001320Y017422D01*
X001523Y017422D01*
X001523Y018025D01*
X001683Y018025D01*
X001683Y018185D01*
X002285Y018185D01*
X002285Y018387D01*
X001886Y018787D01*
X001683Y018787D01*
X001683Y018520D02*
X001523Y018520D01*
X001523Y018362D02*
X001683Y018362D01*
X001683Y018203D02*
X001523Y018203D01*
X001523Y018044D02*
X000683Y018044D01*
X000683Y017886D02*
X000920Y017886D01*
X001015Y017727D02*
X000683Y017727D01*
X000683Y017569D02*
X001174Y017569D01*
X001523Y017569D02*
X001683Y017569D01*
X001683Y017422D02*
X001886Y017422D01*
X002285Y017822D01*
X002285Y018025D01*
X001683Y018025D01*
X001683Y017422D01*
X001683Y017727D02*
X001523Y017727D01*
X001523Y017886D02*
X001683Y017886D01*
X001683Y018044D02*
X002520Y018044D01*
X002520Y017886D02*
X002285Y017886D01*
X002191Y017727D02*
X002520Y017727D01*
X002608Y017569D02*
X002032Y017569D01*
X002285Y018203D02*
X002520Y018203D01*
X002520Y018362D02*
X002285Y018362D01*
X002153Y018520D02*
X002520Y018520D01*
X002646Y018679D02*
X001994Y018679D01*
X001053Y018520D02*
X000683Y018520D01*
X000683Y018362D02*
X000920Y018362D01*
X000920Y018203D02*
X000683Y018203D01*
X000683Y017410D02*
X002766Y017410D01*
X002925Y017252D02*
X000683Y017252D01*
X000683Y017093D02*
X003084Y017093D01*
X003109Y016142D02*
X000683Y016142D01*
X000683Y016301D02*
X005025Y016301D01*
X004928Y016459D02*
X000683Y016459D01*
X000683Y016618D02*
X004903Y016618D01*
X004937Y016776D02*
X000683Y016776D01*
X000683Y016935D02*
X005051Y016935D01*
X004605Y015983D02*
X004255Y015983D01*
X002951Y015983D02*
X000683Y015983D01*
X000683Y015825D02*
X002792Y015825D01*
X002634Y015666D02*
X002007Y015666D01*
X001886Y015787D02*
X002285Y015387D01*
X002285Y015185D01*
X001683Y015185D01*
X001523Y015185D01*
X001523Y015787D01*
X001320Y015787D01*
X000920Y015387D01*
X000920Y015185D01*
X001523Y015185D01*
X001523Y015025D01*
X000920Y015025D01*
X000920Y014822D01*
X001320Y014422D01*
X001523Y014422D01*
X001523Y015025D01*
X001683Y015025D01*
X001683Y015185D01*
X001683Y015787D01*
X001886Y015787D01*
X001683Y015666D02*
X001523Y015666D01*
X001523Y015508D02*
X001683Y015508D01*
X001683Y015349D02*
X001523Y015349D01*
X001523Y015191D02*
X001683Y015191D01*
X001683Y015032D02*
X002520Y015032D01*
X002520Y014874D02*
X002285Y014874D01*
X002285Y014822D02*
X002285Y015025D01*
X001683Y015025D01*
X001683Y014422D01*
X001886Y014422D01*
X002285Y014822D01*
X002179Y014715D02*
X002520Y014715D01*
X002620Y014557D02*
X002020Y014557D01*
X001683Y014557D02*
X001523Y014557D01*
X001523Y014715D02*
X001683Y014715D01*
X001683Y014874D02*
X001523Y014874D01*
X001523Y015032D02*
X000683Y015032D01*
X000683Y014874D02*
X000920Y014874D01*
X001027Y014715D02*
X000683Y014715D01*
X000683Y014557D02*
X001186Y014557D01*
X000683Y014398D02*
X002779Y014398D01*
X002937Y014239D02*
X000683Y014239D01*
X000683Y014081D02*
X003048Y014081D01*
X002890Y013922D02*
X000683Y013922D01*
X000683Y013764D02*
X001297Y013764D01*
X001320Y013787D02*
X000920Y013387D01*
X000920Y013185D01*
X001523Y013185D01*
X001523Y013787D01*
X001320Y013787D01*
X001523Y013764D02*
X001683Y013764D01*
X001683Y013787D02*
X001886Y013787D01*
X002285Y013387D01*
X002285Y013185D01*
X001683Y013185D01*
X001523Y013185D01*
X001523Y013025D01*
X000920Y013025D01*
X000920Y012822D01*
X001320Y012422D01*
X001523Y012422D01*
X001523Y013025D01*
X001683Y013025D01*
X001683Y013185D01*
X001683Y013787D01*
X001683Y013605D02*
X001523Y013605D01*
X001523Y013447D02*
X001683Y013447D01*
X001683Y013288D02*
X001523Y013288D01*
X001523Y013130D02*
X000683Y013130D01*
X000683Y013288D02*
X000920Y013288D01*
X000980Y013447D02*
X000683Y013447D01*
X000683Y013605D02*
X001138Y013605D01*
X000920Y012971D02*
X000683Y012971D01*
X000683Y012813D02*
X000930Y012813D01*
X001088Y012654D02*
X000683Y012654D01*
X000683Y012495D02*
X001247Y012495D01*
X001523Y012495D02*
X001683Y012495D01*
X001683Y012422D02*
X001886Y012422D01*
X002285Y012822D01*
X002285Y013025D01*
X001683Y013025D01*
X001683Y012422D01*
X001683Y012654D02*
X001523Y012654D01*
X001523Y012813D02*
X001683Y012813D01*
X001683Y012971D02*
X001523Y012971D01*
X001683Y013130D02*
X002520Y013130D01*
X002520Y013288D02*
X002285Y013288D01*
X002226Y013447D02*
X002520Y013447D01*
X002573Y013605D02*
X002068Y013605D01*
X001909Y013764D02*
X002731Y013764D01*
X002520Y012971D02*
X002285Y012971D01*
X002276Y012813D02*
X002520Y012813D01*
X002523Y012654D02*
X002117Y012654D01*
X001959Y012495D02*
X002681Y012495D01*
X002840Y012337D02*
X000683Y012337D01*
X000683Y012178D02*
X002998Y012178D01*
X003668Y011386D02*
X000683Y011386D01*
X000683Y011544D02*
X003826Y011544D01*
X003985Y011703D02*
X000683Y011703D01*
X000683Y011861D02*
X004123Y011861D01*
X004093Y012020D02*
X000683Y012020D01*
X000683Y011227D02*
X003509Y011227D01*
X003351Y011069D02*
X000683Y011069D01*
X000683Y010910D02*
X002621Y010910D01*
X002463Y010751D02*
X000683Y010751D01*
X000683Y010593D02*
X001870Y010593D01*
X001711Y010434D02*
X000683Y010434D01*
X000683Y010276D02*
X001593Y010276D01*
X001593Y010117D02*
X000683Y010117D01*
X000683Y009959D02*
X001593Y009959D01*
X001593Y009893D02*
X001892Y009595D01*
X002103Y009595D01*
X002103Y010104D01*
X002103Y010104D01*
X001593Y010104D01*
X001593Y009893D01*
X001686Y009800D02*
X000683Y009800D01*
X000683Y009642D02*
X001845Y009642D01*
X002103Y009642D02*
X002103Y009642D01*
X002103Y009800D02*
X002103Y009800D01*
X002103Y009959D02*
X002103Y009959D01*
X002103Y010117D02*
X002103Y010117D01*
X002103Y010276D02*
X002103Y010276D01*
X002103Y010434D02*
X002103Y010434D01*
X002103Y010593D02*
X002103Y010593D01*
X002438Y009483D02*
X000683Y009483D01*
X000683Y009325D02*
X002596Y009325D01*
X002982Y008690D02*
X011344Y008690D01*
X011278Y008849D02*
X000683Y008849D01*
X000683Y009008D02*
X011243Y009008D01*
X011243Y009166D02*
X000683Y009166D01*
X003141Y008532D02*
X011460Y008532D01*
X011618Y008373D02*
X003285Y008373D01*
X003285Y008215D02*
X011777Y008215D01*
X011243Y009325D02*
X003967Y009325D01*
X004198Y009483D02*
X011243Y009483D01*
X011204Y009642D02*
X004356Y009642D01*
X004515Y009800D02*
X011139Y009800D01*
X011096Y009959D02*
X004673Y009959D01*
X004832Y010117D02*
X011093Y010117D01*
X011103Y010276D02*
X004990Y010276D01*
X005149Y010434D02*
X011146Y010434D01*
X011219Y010593D02*
X005307Y010593D01*
X005466Y010751D02*
X011321Y010751D01*
X011480Y010910D02*
X005625Y010910D01*
X005783Y011069D02*
X011798Y011069D01*
X012408Y011069D02*
X012851Y011069D01*
X013009Y011227D02*
X009603Y011227D01*
X010100Y011386D02*
X013168Y011386D01*
X013103Y011544D02*
X013103Y011544D01*
X013103Y011703D02*
X013103Y011703D01*
X013103Y011861D02*
X013103Y011861D01*
X013103Y012020D02*
X013103Y012020D01*
X013103Y012105D02*
X012663Y012105D01*
X012663Y012399D01*
X012674Y012468D01*
X012695Y012534D01*
X012727Y012595D01*
X012767Y012651D01*
X012816Y012700D01*
X012872Y012741D01*
X012934Y012772D01*
X013000Y012794D01*
X013068Y012805D01*
X013103Y012805D01*
X013103Y012105D01*
X013103Y012178D02*
X013103Y012178D01*
X013103Y012337D02*
X013103Y012337D01*
X013103Y012495D02*
X013103Y012495D01*
X013103Y012654D02*
X013103Y012654D01*
X013379Y012813D02*
X011527Y012813D01*
X011686Y012971D02*
X013521Y012971D01*
X013755Y013130D02*
X011844Y013130D01*
X011369Y012654D02*
X012770Y012654D01*
X012683Y012495D02*
X011210Y012495D01*
X011051Y012337D02*
X012663Y012337D01*
X012663Y012178D02*
X010893Y012178D01*
X010734Y012020D02*
X012663Y012020D01*
X012663Y011861D02*
X010576Y011861D01*
X010417Y011703D02*
X012686Y011703D01*
X012781Y011544D02*
X010259Y011544D01*
X008603Y011227D02*
X005877Y011227D01*
X005943Y011386D02*
X008394Y011386D01*
X008260Y011544D02*
X005963Y011544D01*
X006037Y011703D02*
X008169Y011703D01*
X008123Y011861D02*
X006083Y011861D01*
X006113Y012020D02*
X008093Y012020D01*
X008093Y012178D02*
X006113Y012178D01*
X006086Y012337D02*
X008120Y012337D01*
X008162Y012495D02*
X006044Y012495D01*
X005952Y012654D02*
X008254Y012654D01*
X008383Y012813D02*
X005823Y012813D01*
X005898Y012971D02*
X008308Y012971D01*
X008211Y013130D02*
X005995Y013130D01*
X006064Y013288D02*
X008142Y013288D01*
X008100Y013447D02*
X006106Y013447D01*
X006113Y013605D02*
X008093Y013605D01*
X008100Y013764D02*
X006106Y013764D01*
X006064Y013922D02*
X008142Y013922D01*
X008212Y014081D02*
X005994Y014081D01*
X005897Y014239D02*
X008309Y014239D01*
X008381Y014398D02*
X005825Y014398D01*
X005953Y014557D02*
X008253Y014557D01*
X008093Y015032D02*
X006113Y015032D01*
X006113Y014972D02*
X006044Y014715D01*
X006113Y015191D02*
X008093Y015191D01*
X008123Y015349D02*
X006083Y015349D01*
X006037Y015508D02*
X008169Y015508D01*
X008261Y015666D02*
X005945Y015666D01*
X005811Y015825D02*
X007238Y015825D01*
X002520Y015508D02*
X002165Y015508D01*
X002285Y015349D02*
X002520Y015349D01*
X002520Y015191D02*
X002285Y015191D01*
X001199Y015666D02*
X000683Y015666D01*
X000683Y015508D02*
X001041Y015508D01*
X000920Y015349D02*
X000683Y015349D01*
X000683Y015191D02*
X000920Y015191D01*
X000683Y025655D02*
X002341Y025655D01*
X001958Y025813D02*
X000683Y025813D01*
X000683Y025972D02*
X001656Y025972D01*
X001469Y026130D02*
X000683Y026130D01*
X000683Y026289D02*
X001290Y026289D01*
X001135Y026447D02*
X000683Y026447D01*
X000683Y026606D02*
X001026Y026606D01*
X000916Y026764D02*
X000683Y026764D01*
X000683Y026923D02*
X000812Y026923D01*
X000752Y027081D02*
X000683Y027081D01*
X000683Y027240D02*
X000692Y027240D01*
X013285Y013288D02*
X014920Y013288D01*
D21*
X014103Y013605D02*
X014103Y019605D01*
X014603Y020105D01*
X015603Y020105D01*
X015603Y019105D02*
X016603Y019105D01*
X017603Y020105D01*
X017603Y021105D01*
X019103Y022605D01*
X019103Y023605D01*
X020103Y025105D02*
X017603Y025105D01*
X016103Y023605D01*
X014103Y023605D01*
X013603Y023605D01*
X013103Y023105D01*
X013103Y022105D01*
X012603Y021605D01*
X010603Y021105D02*
X009103Y021105D01*
X008603Y021605D01*
X008603Y023105D01*
X006603Y021605D02*
X006603Y021105D01*
X007103Y020605D01*
X007103Y017105D01*
X007603Y016605D01*
X008603Y016605D01*
X009603Y016605D01*
X010103Y017105D01*
X012603Y017105D01*
X012603Y016105D02*
X010603Y016105D01*
X009603Y015105D01*
X009103Y015105D01*
X009103Y013605D02*
X009603Y013605D01*
X011103Y015105D01*
X012603Y015105D01*
X012603Y014105D02*
X011603Y014105D01*
X009603Y012105D01*
X009103Y012105D01*
X010103Y010105D02*
X012103Y012105D01*
X013103Y012105D01*
X013103Y012605D01*
X014103Y013605D01*
X014103Y012105D02*
X014103Y011105D01*
X013103Y010105D01*
X012103Y010105D01*
X012103Y009105D01*
X013103Y008105D01*
X013103Y006105D02*
X014603Y006105D01*
X015103Y006105D01*
X015103Y008105D01*
X016603Y006605D02*
X018103Y008105D01*
X019103Y009105D01*
X019103Y010105D02*
X018103Y010105D01*
X017103Y011105D01*
X016103Y011105D01*
X015603Y011105D01*
X015103Y011605D01*
X015103Y012105D01*
X016103Y011105D02*
X016103Y010105D01*
X017103Y011105D02*
X018103Y012105D01*
X018103Y013105D01*
X016103Y015105D01*
X015603Y015105D01*
X015603Y016105D02*
X016103Y016105D01*
X018103Y016105D01*
X019103Y015105D01*
X019103Y014605D01*
X018603Y017105D02*
X017103Y017105D01*
X015603Y017105D01*
X015603Y018105D02*
X017103Y018105D01*
X019103Y020105D01*
X019103Y020605D01*
X019103Y017605D02*
X018603Y017105D01*
X015603Y014105D02*
X016603Y013105D01*
X016603Y012605D01*
X021103Y011105D02*
X021103Y010105D01*
X021103Y009105D01*
X021103Y011105D02*
X022103Y012105D01*
X022103Y013355D01*
X022103Y016355D01*
X022103Y019355D01*
X022103Y022355D01*
X022103Y023105D01*
X020103Y025105D01*
X023103Y023605D02*
X023103Y022355D01*
X023103Y020605D02*
X023103Y019355D01*
X023103Y017605D02*
X023103Y016355D01*
X023103Y014605D02*
X023103Y013355D01*
X024103Y011605D02*
X021603Y011605D01*
X024103Y007605D02*
X022103Y006105D01*
X018603Y006105D01*
X018603Y004605D01*
X019103Y004105D01*
X019103Y003105D01*
X017103Y003105D01*
X016103Y004605D02*
X016603Y005105D01*
X016603Y006605D01*
X016103Y004605D02*
X014603Y004605D01*
X012603Y004605D02*
X011603Y004605D01*
X010603Y005605D01*
X010603Y007605D01*
X010103Y008105D01*
X010103Y010105D01*
X010103Y008105D02*
X003103Y008105D01*
X002603Y008105D02*
X002603Y009105D01*
X003103Y010105D02*
X003603Y010105D01*
X005103Y011605D01*
X005103Y012105D01*
X005103Y013605D02*
X004103Y013605D01*
X003603Y013105D01*
X003603Y015105D02*
X005103Y015105D01*
X005603Y016605D02*
X001603Y016605D01*
X003603Y018105D02*
X005103Y018105D01*
X005103Y019605D02*
X004603Y020105D01*
X003603Y020105D01*
X003103Y022105D02*
X003103Y023105D01*
X004603Y024605D01*
X010603Y024605D01*
X014103Y024605D01*
X014603Y024605D01*
X016103Y026105D01*
X016103Y027105D01*
X014103Y025605D02*
X013603Y025605D01*
X013103Y026105D01*
X013103Y026605D01*
X012603Y026605D01*
X012103Y027105D01*
X009603Y027105D01*
X008603Y026105D01*
X010603Y026105D02*
X010603Y024605D01*
X010603Y023105D01*
X009603Y019605D02*
X009103Y019605D01*
X009603Y019605D02*
X010103Y019105D01*
X012603Y019105D01*
X012603Y018105D02*
X009103Y018105D01*
X006603Y021605D02*
X006103Y022105D01*
X005103Y022105D01*
X009103Y006105D02*
X009103Y005105D01*
X008603Y004605D01*
X008103Y004605D01*
X007603Y004105D01*
X007603Y003105D01*
X009603Y003105D01*
M02*
