G75*
G70*
%OFA0B0*%
%FSLAX24Y24*%
%IPPOS*%
%LPD*%
%AMOC8*
5,1,8,0,0,1.08239X$1,22.5*
%
%ADD10C,0.0000*%
%ADD11C,0.0060*%
%ADD12R,0.0200X0.0800*%
%ADD13C,0.0050*%
%ADD14C,0.0120*%
%ADD15R,0.0340X0.0240*%
%ADD16R,0.0200X0.1000*%
%ADD17R,0.0750X0.0300*%
%ADD18R,0.0750X0.0600*%
%ADD19C,0.0020*%
%ADD20C,0.0100*%
%ADD21R,0.0240X0.0340*%
D10*
X000103Y000105D02*
X000103Y031101D01*
X026973Y031101D01*
X026973Y000105D01*
X000103Y000105D01*
X002296Y004105D02*
X002298Y004161D01*
X002304Y004217D01*
X002314Y004273D01*
X002327Y004327D01*
X002345Y004381D01*
X002366Y004433D01*
X002390Y004484D01*
X002419Y004533D01*
X002450Y004579D01*
X002485Y004624D01*
X002522Y004666D01*
X002563Y004705D01*
X002606Y004741D01*
X002652Y004774D01*
X002699Y004804D01*
X002749Y004830D01*
X002801Y004853D01*
X002854Y004873D01*
X002908Y004888D01*
X002963Y004900D01*
X003019Y004908D01*
X003075Y004912D01*
X003131Y004912D01*
X003187Y004908D01*
X003243Y004900D01*
X003298Y004888D01*
X003352Y004873D01*
X003405Y004853D01*
X003457Y004830D01*
X003506Y004804D01*
X003554Y004774D01*
X003600Y004741D01*
X003643Y004705D01*
X003684Y004666D01*
X003721Y004624D01*
X003756Y004579D01*
X003787Y004533D01*
X003816Y004484D01*
X003840Y004433D01*
X003861Y004381D01*
X003879Y004327D01*
X003892Y004273D01*
X003902Y004217D01*
X003908Y004161D01*
X003910Y004105D01*
X003908Y004049D01*
X003902Y003993D01*
X003892Y003937D01*
X003879Y003883D01*
X003861Y003829D01*
X003840Y003777D01*
X003816Y003726D01*
X003787Y003677D01*
X003756Y003631D01*
X003721Y003586D01*
X003684Y003544D01*
X003643Y003505D01*
X003600Y003469D01*
X003554Y003436D01*
X003507Y003406D01*
X003457Y003380D01*
X003405Y003357D01*
X003352Y003337D01*
X003298Y003322D01*
X003243Y003310D01*
X003187Y003302D01*
X003131Y003298D01*
X003075Y003298D01*
X003019Y003302D01*
X002963Y003310D01*
X002908Y003322D01*
X002854Y003337D01*
X002801Y003357D01*
X002749Y003380D01*
X002699Y003406D01*
X002652Y003436D01*
X002606Y003469D01*
X002563Y003505D01*
X002522Y003544D01*
X002485Y003586D01*
X002450Y003631D01*
X002419Y003677D01*
X002390Y003726D01*
X002366Y003777D01*
X002345Y003829D01*
X002327Y003883D01*
X002314Y003937D01*
X002304Y003993D01*
X002298Y004049D01*
X002296Y004105D01*
X002296Y028105D02*
X002298Y028161D01*
X002304Y028217D01*
X002314Y028273D01*
X002327Y028327D01*
X002345Y028381D01*
X002366Y028433D01*
X002390Y028484D01*
X002419Y028533D01*
X002450Y028579D01*
X002485Y028624D01*
X002522Y028666D01*
X002563Y028705D01*
X002606Y028741D01*
X002652Y028774D01*
X002699Y028804D01*
X002749Y028830D01*
X002801Y028853D01*
X002854Y028873D01*
X002908Y028888D01*
X002963Y028900D01*
X003019Y028908D01*
X003075Y028912D01*
X003131Y028912D01*
X003187Y028908D01*
X003243Y028900D01*
X003298Y028888D01*
X003352Y028873D01*
X003405Y028853D01*
X003457Y028830D01*
X003506Y028804D01*
X003554Y028774D01*
X003600Y028741D01*
X003643Y028705D01*
X003684Y028666D01*
X003721Y028624D01*
X003756Y028579D01*
X003787Y028533D01*
X003816Y028484D01*
X003840Y028433D01*
X003861Y028381D01*
X003879Y028327D01*
X003892Y028273D01*
X003902Y028217D01*
X003908Y028161D01*
X003910Y028105D01*
X003908Y028049D01*
X003902Y027993D01*
X003892Y027937D01*
X003879Y027883D01*
X003861Y027829D01*
X003840Y027777D01*
X003816Y027726D01*
X003787Y027677D01*
X003756Y027631D01*
X003721Y027586D01*
X003684Y027544D01*
X003643Y027505D01*
X003600Y027469D01*
X003554Y027436D01*
X003507Y027406D01*
X003457Y027380D01*
X003405Y027357D01*
X003352Y027337D01*
X003298Y027322D01*
X003243Y027310D01*
X003187Y027302D01*
X003131Y027298D01*
X003075Y027298D01*
X003019Y027302D01*
X002963Y027310D01*
X002908Y027322D01*
X002854Y027337D01*
X002801Y027357D01*
X002749Y027380D01*
X002699Y027406D01*
X002652Y027436D01*
X002606Y027469D01*
X002563Y027505D01*
X002522Y027544D01*
X002485Y027586D01*
X002450Y027631D01*
X002419Y027677D01*
X002390Y027726D01*
X002366Y027777D01*
X002345Y027829D01*
X002327Y027883D01*
X002314Y027937D01*
X002304Y027993D01*
X002298Y028049D01*
X002296Y028105D01*
X023296Y028105D02*
X023298Y028161D01*
X023304Y028217D01*
X023314Y028273D01*
X023327Y028327D01*
X023345Y028381D01*
X023366Y028433D01*
X023390Y028484D01*
X023419Y028533D01*
X023450Y028579D01*
X023485Y028624D01*
X023522Y028666D01*
X023563Y028705D01*
X023606Y028741D01*
X023652Y028774D01*
X023699Y028804D01*
X023749Y028830D01*
X023801Y028853D01*
X023854Y028873D01*
X023908Y028888D01*
X023963Y028900D01*
X024019Y028908D01*
X024075Y028912D01*
X024131Y028912D01*
X024187Y028908D01*
X024243Y028900D01*
X024298Y028888D01*
X024352Y028873D01*
X024405Y028853D01*
X024457Y028830D01*
X024506Y028804D01*
X024554Y028774D01*
X024600Y028741D01*
X024643Y028705D01*
X024684Y028666D01*
X024721Y028624D01*
X024756Y028579D01*
X024787Y028533D01*
X024816Y028484D01*
X024840Y028433D01*
X024861Y028381D01*
X024879Y028327D01*
X024892Y028273D01*
X024902Y028217D01*
X024908Y028161D01*
X024910Y028105D01*
X024908Y028049D01*
X024902Y027993D01*
X024892Y027937D01*
X024879Y027883D01*
X024861Y027829D01*
X024840Y027777D01*
X024816Y027726D01*
X024787Y027677D01*
X024756Y027631D01*
X024721Y027586D01*
X024684Y027544D01*
X024643Y027505D01*
X024600Y027469D01*
X024554Y027436D01*
X024507Y027406D01*
X024457Y027380D01*
X024405Y027357D01*
X024352Y027337D01*
X024298Y027322D01*
X024243Y027310D01*
X024187Y027302D01*
X024131Y027298D01*
X024075Y027298D01*
X024019Y027302D01*
X023963Y027310D01*
X023908Y027322D01*
X023854Y027337D01*
X023801Y027357D01*
X023749Y027380D01*
X023699Y027406D01*
X023652Y027436D01*
X023606Y027469D01*
X023563Y027505D01*
X023522Y027544D01*
X023485Y027586D01*
X023450Y027631D01*
X023419Y027677D01*
X023390Y027726D01*
X023366Y027777D01*
X023345Y027829D01*
X023327Y027883D01*
X023314Y027937D01*
X023304Y027993D01*
X023298Y028049D01*
X023296Y028105D01*
X023296Y004105D02*
X023298Y004161D01*
X023304Y004217D01*
X023314Y004273D01*
X023327Y004327D01*
X023345Y004381D01*
X023366Y004433D01*
X023390Y004484D01*
X023419Y004533D01*
X023450Y004579D01*
X023485Y004624D01*
X023522Y004666D01*
X023563Y004705D01*
X023606Y004741D01*
X023652Y004774D01*
X023699Y004804D01*
X023749Y004830D01*
X023801Y004853D01*
X023854Y004873D01*
X023908Y004888D01*
X023963Y004900D01*
X024019Y004908D01*
X024075Y004912D01*
X024131Y004912D01*
X024187Y004908D01*
X024243Y004900D01*
X024298Y004888D01*
X024352Y004873D01*
X024405Y004853D01*
X024457Y004830D01*
X024506Y004804D01*
X024554Y004774D01*
X024600Y004741D01*
X024643Y004705D01*
X024684Y004666D01*
X024721Y004624D01*
X024756Y004579D01*
X024787Y004533D01*
X024816Y004484D01*
X024840Y004433D01*
X024861Y004381D01*
X024879Y004327D01*
X024892Y004273D01*
X024902Y004217D01*
X024908Y004161D01*
X024910Y004105D01*
X024908Y004049D01*
X024902Y003993D01*
X024892Y003937D01*
X024879Y003883D01*
X024861Y003829D01*
X024840Y003777D01*
X024816Y003726D01*
X024787Y003677D01*
X024756Y003631D01*
X024721Y003586D01*
X024684Y003544D01*
X024643Y003505D01*
X024600Y003469D01*
X024554Y003436D01*
X024507Y003406D01*
X024457Y003380D01*
X024405Y003357D01*
X024352Y003337D01*
X024298Y003322D01*
X024243Y003310D01*
X024187Y003302D01*
X024131Y003298D01*
X024075Y003298D01*
X024019Y003302D01*
X023963Y003310D01*
X023908Y003322D01*
X023854Y003337D01*
X023801Y003357D01*
X023749Y003380D01*
X023699Y003406D01*
X023652Y003436D01*
X023606Y003469D01*
X023563Y003505D01*
X023522Y003544D01*
X023485Y003586D01*
X023450Y003631D01*
X023419Y003677D01*
X023390Y003726D01*
X023366Y003777D01*
X023345Y003829D01*
X023327Y003883D01*
X023314Y003937D01*
X023304Y003993D01*
X023298Y004049D01*
X023296Y004105D01*
D11*
X023257Y004105D02*
X023259Y004163D01*
X023265Y004220D01*
X023275Y004277D01*
X023288Y004333D01*
X023306Y004388D01*
X023327Y004442D01*
X023352Y004494D01*
X023380Y004545D01*
X023412Y004593D01*
X023447Y004639D01*
X023485Y004682D01*
X023526Y004723D01*
X023569Y004761D01*
X023615Y004796D01*
X023663Y004828D01*
X023714Y004856D01*
X023766Y004881D01*
X023820Y004902D01*
X023875Y004920D01*
X023931Y004933D01*
X023988Y004943D01*
X024045Y004949D01*
X024103Y004951D01*
X024161Y004949D01*
X024218Y004943D01*
X024275Y004933D01*
X024331Y004920D01*
X024386Y004902D01*
X024440Y004881D01*
X024492Y004856D01*
X024543Y004828D01*
X024591Y004796D01*
X024637Y004761D01*
X024680Y004723D01*
X024721Y004682D01*
X024759Y004639D01*
X024794Y004593D01*
X024826Y004545D01*
X024854Y004494D01*
X024879Y004442D01*
X024900Y004388D01*
X024918Y004333D01*
X024931Y004277D01*
X024941Y004220D01*
X024947Y004163D01*
X024949Y004105D01*
X024947Y004047D01*
X024941Y003990D01*
X024931Y003933D01*
X024918Y003877D01*
X024900Y003822D01*
X024879Y003768D01*
X024854Y003716D01*
X024826Y003665D01*
X024794Y003617D01*
X024759Y003571D01*
X024721Y003528D01*
X024680Y003487D01*
X024637Y003449D01*
X024591Y003414D01*
X024543Y003382D01*
X024492Y003354D01*
X024440Y003329D01*
X024386Y003308D01*
X024331Y003290D01*
X024275Y003277D01*
X024218Y003267D01*
X024161Y003261D01*
X024103Y003259D01*
X024045Y003261D01*
X023988Y003267D01*
X023931Y003277D01*
X023875Y003290D01*
X023820Y003308D01*
X023766Y003329D01*
X023714Y003354D01*
X023663Y003382D01*
X023615Y003414D01*
X023569Y003449D01*
X023526Y003487D01*
X023485Y003528D01*
X023447Y003571D01*
X023412Y003617D01*
X023380Y003665D01*
X023352Y003716D01*
X023327Y003768D01*
X023306Y003822D01*
X023288Y003877D01*
X023275Y003933D01*
X023265Y003990D01*
X023259Y004047D01*
X023257Y004105D01*
X022333Y004105D02*
X022335Y004192D01*
X022342Y004278D01*
X022352Y004365D01*
X022367Y004450D01*
X022386Y004535D01*
X022409Y004619D01*
X022436Y004701D01*
X022468Y004782D01*
X022503Y004862D01*
X022542Y004939D01*
X022585Y005015D01*
X022631Y005088D01*
X022681Y005159D01*
X022735Y005228D01*
X022792Y005294D01*
X022851Y005357D01*
X022914Y005416D01*
X022980Y005473D01*
X023049Y005527D01*
X023120Y005577D01*
X023193Y005623D01*
X023269Y005666D01*
X023346Y005705D01*
X023426Y005740D01*
X023507Y005772D01*
X023589Y005799D01*
X023673Y005822D01*
X023758Y005841D01*
X023843Y005856D01*
X023930Y005866D01*
X024016Y005873D01*
X024103Y005875D01*
X024190Y005873D01*
X024276Y005866D01*
X024363Y005856D01*
X024448Y005841D01*
X024533Y005822D01*
X024617Y005799D01*
X024699Y005772D01*
X024780Y005740D01*
X024860Y005705D01*
X024937Y005666D01*
X025013Y005623D01*
X025086Y005577D01*
X025157Y005527D01*
X025226Y005473D01*
X025292Y005416D01*
X025355Y005357D01*
X025414Y005294D01*
X025471Y005228D01*
X025525Y005159D01*
X025575Y005088D01*
X025621Y005015D01*
X025664Y004939D01*
X025703Y004862D01*
X025738Y004782D01*
X025770Y004701D01*
X025797Y004619D01*
X025820Y004535D01*
X025839Y004450D01*
X025854Y004365D01*
X025864Y004278D01*
X025871Y004192D01*
X025873Y004105D01*
X025871Y004018D01*
X025864Y003932D01*
X025854Y003845D01*
X025839Y003760D01*
X025820Y003675D01*
X025797Y003591D01*
X025770Y003509D01*
X025738Y003428D01*
X025703Y003348D01*
X025664Y003271D01*
X025621Y003195D01*
X025575Y003122D01*
X025525Y003051D01*
X025471Y002982D01*
X025414Y002916D01*
X025355Y002853D01*
X025292Y002794D01*
X025226Y002737D01*
X025157Y002683D01*
X025086Y002633D01*
X025013Y002587D01*
X024937Y002544D01*
X024860Y002505D01*
X024780Y002470D01*
X024699Y002438D01*
X024617Y002411D01*
X024533Y002388D01*
X024448Y002369D01*
X024363Y002354D01*
X024276Y002344D01*
X024190Y002337D01*
X024103Y002335D01*
X024016Y002337D01*
X023930Y002344D01*
X023843Y002354D01*
X023758Y002369D01*
X023673Y002388D01*
X023589Y002411D01*
X023507Y002438D01*
X023426Y002470D01*
X023346Y002505D01*
X023269Y002544D01*
X023193Y002587D01*
X023120Y002633D01*
X023049Y002683D01*
X022980Y002737D01*
X022914Y002794D01*
X022851Y002853D01*
X022792Y002916D01*
X022735Y002982D01*
X022681Y003051D01*
X022631Y003122D01*
X022585Y003195D01*
X022542Y003271D01*
X022503Y003348D01*
X022468Y003428D01*
X022436Y003509D01*
X022409Y003591D01*
X022386Y003675D01*
X022367Y003760D01*
X022352Y003845D01*
X022342Y003932D01*
X022335Y004018D01*
X022333Y004105D01*
X023753Y008355D02*
X024453Y008355D01*
X024470Y008357D01*
X024487Y008361D01*
X024503Y008368D01*
X024517Y008378D01*
X024530Y008391D01*
X024540Y008405D01*
X024547Y008421D01*
X024551Y008438D01*
X024553Y008455D01*
X024553Y008605D01*
X024503Y008655D01*
X024503Y010555D01*
X024553Y010605D01*
X024553Y010755D01*
X024551Y010772D01*
X024547Y010789D01*
X024540Y010805D01*
X024530Y010819D01*
X024517Y010832D01*
X024503Y010842D01*
X024487Y010849D01*
X024470Y010853D01*
X024453Y010855D01*
X023753Y010855D01*
X023736Y010853D01*
X023719Y010849D01*
X023703Y010842D01*
X023689Y010832D01*
X023676Y010819D01*
X023666Y010805D01*
X023659Y010789D01*
X023655Y010772D01*
X023653Y010755D01*
X023653Y010605D01*
X023703Y010555D01*
X023703Y008655D01*
X023653Y008605D01*
X023653Y008455D01*
X023655Y008438D01*
X023659Y008421D01*
X023666Y008405D01*
X023676Y008391D01*
X023689Y008378D01*
X023703Y008368D01*
X023719Y008361D01*
X023736Y008357D01*
X023753Y008355D01*
X021553Y008705D02*
X021553Y009505D01*
X021551Y009522D01*
X021547Y009539D01*
X021540Y009555D01*
X021530Y009569D01*
X021517Y009582D01*
X021503Y009592D01*
X021487Y009599D01*
X021470Y009603D01*
X021453Y009605D01*
X018753Y009605D01*
X021453Y009605D01*
X021470Y009607D01*
X021487Y009611D01*
X021503Y009618D01*
X021517Y009628D01*
X021530Y009641D01*
X021540Y009655D01*
X021547Y009671D01*
X021551Y009688D01*
X021553Y009705D01*
X021553Y010505D01*
X021551Y010522D01*
X021547Y010539D01*
X021540Y010555D01*
X021530Y010569D01*
X021517Y010582D01*
X021503Y010592D01*
X021487Y010599D01*
X021470Y010603D01*
X021453Y010605D01*
X018753Y010605D01*
X018736Y010603D01*
X018719Y010599D01*
X018703Y010592D01*
X018689Y010582D01*
X018676Y010569D01*
X018666Y010555D01*
X018659Y010539D01*
X018655Y010522D01*
X018653Y010505D01*
X018653Y009705D01*
X018655Y009688D01*
X018659Y009671D01*
X018666Y009655D01*
X018676Y009641D01*
X018689Y009628D01*
X018703Y009618D01*
X018719Y009611D01*
X018736Y009607D01*
X018753Y009605D01*
X018736Y009603D01*
X018719Y009599D01*
X018703Y009592D01*
X018689Y009582D01*
X018676Y009569D01*
X018666Y009555D01*
X018659Y009539D01*
X018655Y009522D01*
X018653Y009505D01*
X018653Y008705D01*
X018655Y008688D01*
X018659Y008671D01*
X018666Y008655D01*
X018676Y008641D01*
X018689Y008628D01*
X018703Y008618D01*
X018719Y008611D01*
X018736Y008607D01*
X018753Y008605D01*
X021453Y008605D01*
X021470Y008607D01*
X021487Y008611D01*
X021503Y008618D01*
X021517Y008628D01*
X021530Y008641D01*
X021540Y008655D01*
X021547Y008671D01*
X021551Y008688D01*
X021553Y008705D01*
X020703Y009105D02*
X020223Y009105D01*
X019973Y009105D02*
X019503Y009105D01*
X019503Y010105D02*
X019983Y010105D01*
X020233Y010105D02*
X020703Y010105D01*
X020253Y010655D02*
X020103Y010655D01*
X020053Y010705D01*
X018153Y010705D01*
X018103Y010655D01*
X017953Y010655D01*
X017936Y010657D01*
X017919Y010661D01*
X017903Y010668D01*
X017889Y010678D01*
X017876Y010691D01*
X017866Y010705D01*
X017859Y010721D01*
X017855Y010738D01*
X017853Y010755D01*
X017853Y011455D01*
X017855Y011472D01*
X017859Y011489D01*
X017866Y011505D01*
X017876Y011519D01*
X017889Y011532D01*
X017903Y011542D01*
X017919Y011549D01*
X017936Y011553D01*
X017953Y011555D01*
X018103Y011555D01*
X018153Y011505D01*
X020053Y011505D01*
X020103Y011555D01*
X020253Y011555D01*
X020270Y011553D01*
X020287Y011549D01*
X020303Y011542D01*
X020317Y011532D01*
X020330Y011519D01*
X020340Y011505D01*
X020347Y011489D01*
X020351Y011472D01*
X020353Y011455D01*
X020353Y010755D01*
X020351Y010738D01*
X020347Y010721D01*
X020340Y010705D01*
X020330Y010691D01*
X020317Y010678D01*
X020303Y010668D01*
X020287Y010661D01*
X020270Y010657D01*
X020253Y010655D01*
X021303Y012155D02*
X021303Y014005D01*
X022053Y014205D02*
X020153Y014205D01*
X020103Y014155D01*
X019953Y014155D01*
X019936Y014157D01*
X019919Y014161D01*
X019903Y014168D01*
X019889Y014178D01*
X019876Y014191D01*
X019866Y014205D01*
X019859Y014221D01*
X019855Y014238D01*
X019853Y014255D01*
X019853Y014955D01*
X019855Y014972D01*
X019859Y014989D01*
X019866Y015005D01*
X019876Y015019D01*
X019889Y015032D01*
X019903Y015042D01*
X019919Y015049D01*
X019936Y015053D01*
X019953Y015055D01*
X020103Y015055D01*
X020153Y015005D01*
X022053Y015005D01*
X022103Y015055D01*
X022253Y015055D01*
X022270Y015053D01*
X022287Y015049D01*
X022303Y015042D01*
X022317Y015032D01*
X022330Y015019D01*
X022340Y015005D01*
X022347Y014989D01*
X022351Y014972D01*
X022353Y014955D01*
X022353Y014255D01*
X022351Y014238D01*
X022347Y014221D01*
X022340Y014205D01*
X022330Y014191D01*
X022317Y014178D01*
X022303Y014168D01*
X022287Y014161D01*
X022270Y014157D01*
X022253Y014155D01*
X022103Y014155D01*
X022053Y014205D01*
X021303Y015155D02*
X021303Y017005D01*
X022053Y017205D02*
X022103Y017155D01*
X022253Y017155D01*
X022270Y017157D01*
X022287Y017161D01*
X022303Y017168D01*
X022317Y017178D01*
X022330Y017191D01*
X022340Y017205D01*
X022347Y017221D01*
X022351Y017238D01*
X022353Y017255D01*
X022353Y017955D01*
X022351Y017972D01*
X022347Y017989D01*
X022340Y018005D01*
X022330Y018019D01*
X022317Y018032D01*
X022303Y018042D01*
X022287Y018049D01*
X022270Y018053D01*
X022253Y018055D01*
X022103Y018055D01*
X022053Y018005D01*
X020153Y018005D01*
X020103Y018055D01*
X019953Y018055D01*
X019936Y018053D01*
X019919Y018049D01*
X019903Y018042D01*
X019889Y018032D01*
X019876Y018019D01*
X019866Y018005D01*
X019859Y017989D01*
X019855Y017972D01*
X019853Y017955D01*
X019853Y017255D01*
X019855Y017238D01*
X019859Y017221D01*
X019866Y017205D01*
X019876Y017191D01*
X019889Y017178D01*
X019903Y017168D01*
X019919Y017161D01*
X019936Y017157D01*
X019953Y017155D01*
X020103Y017155D01*
X020153Y017205D01*
X022053Y017205D01*
X021303Y018155D02*
X021303Y020005D01*
X022053Y020205D02*
X020153Y020205D01*
X020103Y020155D01*
X019953Y020155D01*
X019936Y020157D01*
X019919Y020161D01*
X019903Y020168D01*
X019889Y020178D01*
X019876Y020191D01*
X019866Y020205D01*
X019859Y020221D01*
X019855Y020238D01*
X019853Y020255D01*
X019853Y020955D01*
X019855Y020972D01*
X019859Y020989D01*
X019866Y021005D01*
X019876Y021019D01*
X019889Y021032D01*
X019903Y021042D01*
X019919Y021049D01*
X019936Y021053D01*
X019953Y021055D01*
X020103Y021055D01*
X020153Y021005D01*
X022053Y021005D01*
X022103Y021055D01*
X022253Y021055D01*
X022270Y021053D01*
X022287Y021049D01*
X022303Y021042D01*
X022317Y021032D01*
X022330Y021019D01*
X022340Y021005D01*
X022347Y020989D01*
X022351Y020972D01*
X022353Y020955D01*
X022353Y020255D01*
X022351Y020238D01*
X022347Y020221D01*
X022340Y020205D01*
X022330Y020191D01*
X022317Y020178D01*
X022303Y020168D01*
X022287Y020161D01*
X022270Y020157D01*
X022253Y020155D01*
X022103Y020155D01*
X022053Y020205D01*
X021303Y021155D02*
X021303Y023005D01*
X022053Y023205D02*
X020153Y023205D01*
X020103Y023155D01*
X019953Y023155D01*
X019936Y023157D01*
X019919Y023161D01*
X019903Y023168D01*
X019889Y023178D01*
X019876Y023191D01*
X019866Y023205D01*
X019859Y023221D01*
X019855Y023238D01*
X019853Y023255D01*
X019853Y023955D01*
X019855Y023972D01*
X019859Y023989D01*
X019866Y024005D01*
X019876Y024019D01*
X019889Y024032D01*
X019903Y024042D01*
X019919Y024049D01*
X019936Y024053D01*
X019953Y024055D01*
X020103Y024055D01*
X020153Y024005D01*
X022053Y024005D01*
X022103Y024055D01*
X022253Y024055D01*
X022270Y024053D01*
X022287Y024049D01*
X022303Y024042D01*
X022317Y024032D01*
X022330Y024019D01*
X022340Y024005D01*
X022347Y023989D01*
X022351Y023972D01*
X022353Y023955D01*
X022353Y023255D01*
X022351Y023238D01*
X022347Y023221D01*
X022340Y023205D01*
X022330Y023191D01*
X022317Y023178D01*
X022303Y023168D01*
X022287Y023161D01*
X022270Y023157D01*
X022253Y023155D01*
X022103Y023155D01*
X022053Y023205D01*
X022653Y021805D02*
X022653Y021405D01*
X022703Y021455D01*
X022703Y021605D01*
X021903Y021605D01*
X021303Y021155D02*
X024903Y021155D01*
X024903Y023005D01*
X022853Y021605D02*
X022803Y021655D01*
X022753Y021705D01*
X022703Y021755D01*
X022653Y021805D01*
X022703Y021755D02*
X022703Y021605D01*
X022853Y021605D01*
X022803Y021555D01*
X022753Y021505D01*
X022703Y021455D01*
X022753Y021505D02*
X022753Y021705D01*
X022803Y021655D02*
X022803Y021555D01*
X024903Y020005D02*
X024903Y018155D01*
X021303Y018155D01*
X021903Y018605D02*
X022703Y018605D01*
X022703Y018455D01*
X022653Y018405D01*
X022653Y018805D01*
X022703Y018755D01*
X022703Y018605D01*
X022853Y018605D01*
X022803Y018655D01*
X022753Y018705D01*
X022703Y018755D01*
X022753Y018705D02*
X022753Y018505D01*
X022803Y018555D01*
X022803Y018655D01*
X022853Y018605D02*
X022803Y018555D01*
X022753Y018505D02*
X022703Y018455D01*
X024903Y017005D02*
X024903Y015155D01*
X021303Y015155D01*
X021903Y015605D02*
X022703Y015605D01*
X022703Y015455D01*
X022653Y015405D01*
X022653Y015805D01*
X022703Y015755D01*
X022703Y015605D01*
X022853Y015605D01*
X022803Y015655D01*
X022753Y015705D01*
X022703Y015755D01*
X022753Y015705D02*
X022753Y015505D01*
X022803Y015555D01*
X022803Y015655D01*
X022853Y015605D02*
X022803Y015555D01*
X022753Y015505D02*
X022703Y015455D01*
X024903Y014005D02*
X024903Y012155D01*
X021303Y012155D01*
X021903Y012605D02*
X022703Y012605D01*
X022703Y012455D01*
X022653Y012405D01*
X022653Y012805D01*
X022703Y012755D01*
X022703Y012605D01*
X022853Y012605D01*
X022803Y012655D01*
X022753Y012705D01*
X022703Y012755D01*
X022753Y012705D02*
X022753Y012505D01*
X022803Y012555D01*
X022803Y012655D01*
X022853Y012605D02*
X022803Y012555D01*
X022753Y012505D02*
X022703Y012455D01*
X017753Y006555D02*
X017603Y006555D01*
X017553Y006505D01*
X015653Y006505D01*
X015603Y006555D01*
X015453Y006555D01*
X015436Y006553D01*
X015419Y006549D01*
X015403Y006542D01*
X015389Y006532D01*
X015376Y006519D01*
X015366Y006505D01*
X015359Y006489D01*
X015355Y006472D01*
X015353Y006455D01*
X015353Y005755D01*
X015355Y005738D01*
X015359Y005721D01*
X015366Y005705D01*
X015376Y005691D01*
X015389Y005678D01*
X015403Y005668D01*
X015419Y005661D01*
X015436Y005657D01*
X015453Y005655D01*
X015603Y005655D01*
X015653Y005705D01*
X017553Y005705D01*
X017603Y005655D01*
X017753Y005655D01*
X017770Y005657D01*
X017787Y005661D01*
X017803Y005668D01*
X017817Y005678D01*
X017830Y005691D01*
X017840Y005705D01*
X017847Y005721D01*
X017851Y005738D01*
X017853Y005755D01*
X017853Y006455D01*
X017851Y006472D01*
X017847Y006489D01*
X017840Y006505D01*
X017830Y006519D01*
X017817Y006532D01*
X017803Y006542D01*
X017787Y006549D01*
X017770Y006553D01*
X017753Y006555D01*
X017753Y005055D02*
X017603Y005055D01*
X017553Y005005D01*
X015653Y005005D01*
X015603Y005055D01*
X015453Y005055D01*
X015436Y005053D01*
X015419Y005049D01*
X015403Y005042D01*
X015389Y005032D01*
X015376Y005019D01*
X015366Y005005D01*
X015359Y004989D01*
X015355Y004972D01*
X015353Y004955D01*
X015353Y004255D01*
X015355Y004238D01*
X015359Y004221D01*
X015366Y004205D01*
X015376Y004191D01*
X015389Y004178D01*
X015403Y004168D01*
X015419Y004161D01*
X015436Y004157D01*
X015453Y004155D01*
X015603Y004155D01*
X015653Y004205D01*
X017553Y004205D01*
X017603Y004155D01*
X017753Y004155D01*
X017770Y004157D01*
X017787Y004161D01*
X017803Y004168D01*
X017817Y004178D01*
X017830Y004191D01*
X017840Y004205D01*
X017847Y004221D01*
X017851Y004238D01*
X017853Y004255D01*
X017853Y004955D01*
X017851Y004972D01*
X017847Y004989D01*
X017840Y005005D01*
X017830Y005019D01*
X017817Y005032D01*
X017803Y005042D01*
X017787Y005049D01*
X017770Y005053D01*
X017753Y005055D01*
X015453Y007605D02*
X012753Y007605D01*
X012736Y007607D01*
X012719Y007611D01*
X012703Y007618D01*
X012689Y007628D01*
X012676Y007641D01*
X012666Y007655D01*
X012659Y007671D01*
X012655Y007688D01*
X012653Y007705D01*
X012653Y008505D01*
X012655Y008522D01*
X012659Y008539D01*
X012666Y008555D01*
X012676Y008569D01*
X012689Y008582D01*
X012703Y008592D01*
X012719Y008599D01*
X012736Y008603D01*
X012753Y008605D01*
X015453Y008605D01*
X015470Y008603D01*
X015487Y008599D01*
X015503Y008592D01*
X015517Y008582D01*
X015530Y008569D01*
X015540Y008555D01*
X015547Y008539D01*
X015551Y008522D01*
X015553Y008505D01*
X015553Y007705D01*
X015551Y007688D01*
X015547Y007671D01*
X015540Y007655D01*
X015530Y007641D01*
X015517Y007628D01*
X015503Y007618D01*
X015487Y007611D01*
X015470Y007607D01*
X015453Y007605D01*
X014703Y008105D02*
X014233Y008105D01*
X013983Y008105D02*
X013503Y008105D01*
X012253Y006555D02*
X012103Y006555D01*
X012053Y006505D01*
X010153Y006505D01*
X010103Y006555D01*
X009953Y006555D01*
X009936Y006553D01*
X009919Y006549D01*
X009903Y006542D01*
X009889Y006532D01*
X009876Y006519D01*
X009866Y006505D01*
X009859Y006489D01*
X009855Y006472D01*
X009853Y006455D01*
X009853Y005755D01*
X009855Y005738D01*
X009859Y005721D01*
X009866Y005705D01*
X009876Y005691D01*
X009889Y005678D01*
X009903Y005668D01*
X009919Y005661D01*
X009936Y005657D01*
X009953Y005655D01*
X010103Y005655D01*
X010153Y005705D01*
X012053Y005705D01*
X012103Y005655D01*
X012253Y005655D01*
X012270Y005657D01*
X012287Y005661D01*
X012303Y005668D01*
X012317Y005678D01*
X012330Y005691D01*
X012340Y005705D01*
X012347Y005721D01*
X012351Y005738D01*
X012353Y005755D01*
X012353Y006455D01*
X012351Y006472D01*
X012347Y006489D01*
X012340Y006505D01*
X012330Y006519D01*
X012317Y006532D01*
X012303Y006542D01*
X012287Y006549D01*
X012270Y006553D01*
X012253Y006555D01*
X011753Y005055D02*
X011603Y005055D01*
X011553Y005005D01*
X009653Y005005D01*
X009603Y005055D01*
X009453Y005055D01*
X009436Y005053D01*
X009419Y005049D01*
X009403Y005042D01*
X009389Y005032D01*
X009376Y005019D01*
X009366Y005005D01*
X009359Y004989D01*
X009355Y004972D01*
X009353Y004955D01*
X009353Y004255D01*
X009355Y004238D01*
X009359Y004221D01*
X009366Y004205D01*
X009376Y004191D01*
X009389Y004178D01*
X009403Y004168D01*
X009419Y004161D01*
X009436Y004157D01*
X009453Y004155D01*
X009603Y004155D01*
X009653Y004205D01*
X011553Y004205D01*
X011603Y004155D01*
X011753Y004155D01*
X011770Y004157D01*
X011787Y004161D01*
X011803Y004168D01*
X011817Y004178D01*
X011830Y004191D01*
X011840Y004205D01*
X011847Y004221D01*
X011851Y004238D01*
X011853Y004255D01*
X011853Y004955D01*
X011851Y004972D01*
X011847Y004989D01*
X011840Y005005D01*
X011830Y005019D01*
X011817Y005032D01*
X011803Y005042D01*
X011787Y005049D01*
X011770Y005053D01*
X011753Y005055D01*
X012953Y009655D02*
X013103Y009655D01*
X013153Y009705D01*
X015053Y009705D01*
X015103Y009655D01*
X015253Y009655D01*
X015270Y009657D01*
X015287Y009661D01*
X015303Y009668D01*
X015317Y009678D01*
X015330Y009691D01*
X015340Y009705D01*
X015347Y009721D01*
X015351Y009738D01*
X015353Y009755D01*
X015353Y010455D01*
X015351Y010472D01*
X015347Y010489D01*
X015340Y010505D01*
X015330Y010519D01*
X015317Y010532D01*
X015303Y010542D01*
X015287Y010549D01*
X015270Y010553D01*
X015253Y010555D01*
X015103Y010555D01*
X015053Y010505D01*
X013153Y010505D01*
X013103Y010555D01*
X012953Y010555D01*
X012936Y010553D01*
X012919Y010549D01*
X012903Y010542D01*
X012889Y010532D01*
X012876Y010519D01*
X012866Y010505D01*
X012859Y010489D01*
X012855Y010472D01*
X012853Y010455D01*
X012853Y009755D01*
X012855Y009738D01*
X012859Y009721D01*
X012866Y009705D01*
X012876Y009691D01*
X012889Y009678D01*
X012903Y009668D01*
X012919Y009661D01*
X012936Y009657D01*
X012953Y009655D01*
X013103Y013605D02*
X012103Y013605D01*
X012103Y020605D01*
X013103Y020605D01*
X013703Y020605D01*
X013705Y020566D01*
X013711Y020527D01*
X013720Y020489D01*
X013733Y020452D01*
X013750Y020416D01*
X013770Y020383D01*
X013794Y020351D01*
X013820Y020322D01*
X013849Y020296D01*
X013881Y020272D01*
X013914Y020252D01*
X013950Y020235D01*
X013987Y020222D01*
X014025Y020213D01*
X014064Y020207D01*
X014103Y020205D01*
X014142Y020207D01*
X014181Y020213D01*
X014219Y020222D01*
X014256Y020235D01*
X014292Y020252D01*
X014325Y020272D01*
X014357Y020296D01*
X014386Y020322D01*
X014412Y020351D01*
X014436Y020383D01*
X014456Y020416D01*
X014473Y020452D01*
X014486Y020489D01*
X014495Y020527D01*
X014501Y020566D01*
X014503Y020605D01*
X015103Y020605D01*
X015103Y013605D01*
X013103Y013605D01*
X013103Y020605D01*
X012753Y021605D02*
X015453Y021605D01*
X015470Y021607D01*
X015487Y021611D01*
X015503Y021618D01*
X015517Y021628D01*
X015530Y021641D01*
X015540Y021655D01*
X015547Y021671D01*
X015551Y021688D01*
X015553Y021705D01*
X015553Y022505D01*
X015551Y022522D01*
X015547Y022539D01*
X015540Y022555D01*
X015530Y022569D01*
X015517Y022582D01*
X015503Y022592D01*
X015487Y022599D01*
X015470Y022603D01*
X015453Y022605D01*
X012753Y022605D01*
X012736Y022603D01*
X012719Y022599D01*
X012703Y022592D01*
X012689Y022582D01*
X012676Y022569D01*
X012666Y022555D01*
X012659Y022539D01*
X012655Y022522D01*
X012653Y022505D01*
X012653Y021705D01*
X012655Y021688D01*
X012659Y021671D01*
X012666Y021655D01*
X012676Y021641D01*
X012689Y021628D01*
X012703Y021618D01*
X012719Y021611D01*
X012736Y021607D01*
X012753Y021605D01*
X013503Y022105D02*
X013983Y022105D01*
X014233Y022105D02*
X014703Y022105D01*
X015103Y020605D02*
X016103Y020605D01*
X016103Y013605D01*
X015103Y013605D01*
X009103Y015805D02*
X005103Y015805D01*
X005103Y017405D01*
X006353Y017405D01*
X006353Y017155D01*
X007853Y017155D01*
X007853Y017405D01*
X006353Y017405D01*
X006103Y017655D02*
X006153Y017705D01*
X008053Y017705D01*
X008103Y017655D01*
X008253Y017655D01*
X008270Y017657D01*
X008287Y017661D01*
X008303Y017668D01*
X008317Y017678D01*
X008330Y017691D01*
X008340Y017705D01*
X008347Y017721D01*
X008351Y017738D01*
X008353Y017755D01*
X008353Y018455D01*
X008351Y018472D01*
X008347Y018489D01*
X008340Y018505D01*
X008330Y018519D01*
X008317Y018532D01*
X008303Y018542D01*
X008287Y018549D01*
X008270Y018553D01*
X008253Y018555D01*
X008103Y018555D01*
X008053Y018505D01*
X006153Y018505D01*
X006103Y018555D01*
X005953Y018555D01*
X005936Y018553D01*
X005919Y018549D01*
X005903Y018542D01*
X005889Y018532D01*
X005876Y018519D01*
X005866Y018505D01*
X005859Y018489D01*
X005855Y018472D01*
X005853Y018455D01*
X005853Y017755D01*
X005855Y017738D01*
X005859Y017721D01*
X005866Y017705D01*
X005876Y017691D01*
X005889Y017678D01*
X005903Y017668D01*
X005919Y017661D01*
X005936Y017657D01*
X005953Y017655D01*
X006103Y017655D01*
X006353Y016905D02*
X006353Y016305D01*
X007853Y016305D01*
X007853Y016905D01*
X006353Y016905D01*
X006103Y015555D02*
X005953Y015555D01*
X005936Y015553D01*
X005919Y015549D01*
X005903Y015542D01*
X005889Y015532D01*
X005876Y015519D01*
X005866Y015505D01*
X005859Y015489D01*
X005855Y015472D01*
X005853Y015455D01*
X005853Y014755D01*
X005855Y014738D01*
X005859Y014721D01*
X005866Y014705D01*
X005876Y014691D01*
X005889Y014678D01*
X005903Y014668D01*
X005919Y014661D01*
X005936Y014657D01*
X005953Y014655D01*
X006103Y014655D01*
X006153Y014705D01*
X008053Y014705D01*
X008103Y014655D01*
X008253Y014655D01*
X008270Y014657D01*
X008287Y014661D01*
X008303Y014668D01*
X008317Y014678D01*
X008330Y014691D01*
X008340Y014705D01*
X008347Y014721D01*
X008351Y014738D01*
X008353Y014755D01*
X008353Y015455D01*
X008351Y015472D01*
X008347Y015489D01*
X008340Y015505D01*
X008330Y015519D01*
X008317Y015532D01*
X008303Y015542D01*
X008287Y015549D01*
X008270Y015553D01*
X008253Y015555D01*
X008103Y015555D01*
X008053Y015505D01*
X006153Y015505D01*
X006103Y015555D01*
X006103Y014055D02*
X005953Y014055D01*
X005936Y014053D01*
X005919Y014049D01*
X005903Y014042D01*
X005889Y014032D01*
X005876Y014019D01*
X005866Y014005D01*
X005859Y013989D01*
X005855Y013972D01*
X005853Y013955D01*
X005853Y013255D01*
X005855Y013238D01*
X005859Y013221D01*
X005866Y013205D01*
X005876Y013191D01*
X005889Y013178D01*
X005903Y013168D01*
X005919Y013161D01*
X005936Y013157D01*
X005953Y013155D01*
X006103Y013155D01*
X006153Y013205D01*
X008053Y013205D01*
X008103Y013155D01*
X008253Y013155D01*
X008270Y013157D01*
X008287Y013161D01*
X008303Y013168D01*
X008317Y013178D01*
X008330Y013191D01*
X008340Y013205D01*
X008347Y013221D01*
X008351Y013238D01*
X008353Y013255D01*
X008353Y013955D01*
X008351Y013972D01*
X008347Y013989D01*
X008340Y014005D01*
X008330Y014019D01*
X008317Y014032D01*
X008303Y014042D01*
X008287Y014049D01*
X008270Y014053D01*
X008253Y014055D01*
X008103Y014055D01*
X008053Y014005D01*
X006153Y014005D01*
X006103Y014055D01*
X006103Y012555D02*
X005953Y012555D01*
X005936Y012553D01*
X005919Y012549D01*
X005903Y012542D01*
X005889Y012532D01*
X005876Y012519D01*
X005866Y012505D01*
X005859Y012489D01*
X005855Y012472D01*
X005853Y012455D01*
X005853Y011755D01*
X005855Y011738D01*
X005859Y011721D01*
X005866Y011705D01*
X005876Y011691D01*
X005889Y011678D01*
X005903Y011668D01*
X005919Y011661D01*
X005936Y011657D01*
X005953Y011655D01*
X006103Y011655D01*
X006153Y011705D01*
X008053Y011705D01*
X008103Y011655D01*
X008253Y011655D01*
X008270Y011657D01*
X008287Y011661D01*
X008303Y011668D01*
X008317Y011678D01*
X008330Y011691D01*
X008340Y011705D01*
X008347Y011721D01*
X008351Y011738D01*
X008353Y011755D01*
X008353Y012455D01*
X008351Y012472D01*
X008347Y012489D01*
X008340Y012505D01*
X008330Y012519D01*
X008317Y012532D01*
X008303Y012542D01*
X008287Y012549D01*
X008270Y012553D01*
X008253Y012555D01*
X008103Y012555D01*
X008053Y012505D01*
X006153Y012505D01*
X006103Y012555D01*
X009103Y015805D02*
X009103Y017405D01*
X007853Y017405D01*
X008103Y019155D02*
X008253Y019155D01*
X008270Y019157D01*
X008287Y019161D01*
X008303Y019168D01*
X008317Y019178D01*
X008330Y019191D01*
X008340Y019205D01*
X008347Y019221D01*
X008351Y019238D01*
X008353Y019255D01*
X008353Y019955D01*
X008351Y019972D01*
X008347Y019989D01*
X008340Y020005D01*
X008330Y020019D01*
X008317Y020032D01*
X008303Y020042D01*
X008287Y020049D01*
X008270Y020053D01*
X008253Y020055D01*
X008103Y020055D01*
X008053Y020005D01*
X006153Y020005D01*
X006103Y020055D01*
X005953Y020055D01*
X005936Y020053D01*
X005919Y020049D01*
X005903Y020042D01*
X005889Y020032D01*
X005876Y020019D01*
X005866Y020005D01*
X005859Y019989D01*
X005855Y019972D01*
X005853Y019955D01*
X005853Y019255D01*
X005855Y019238D01*
X005859Y019221D01*
X005866Y019205D01*
X005876Y019191D01*
X005889Y019178D01*
X005903Y019168D01*
X005919Y019161D01*
X005936Y019157D01*
X005953Y019155D01*
X006103Y019155D01*
X006153Y019205D01*
X008053Y019205D01*
X008103Y019155D01*
X007603Y020655D02*
X007453Y020655D01*
X007436Y020657D01*
X007419Y020661D01*
X007403Y020668D01*
X007389Y020678D01*
X007376Y020691D01*
X007366Y020705D01*
X007359Y020721D01*
X007355Y020738D01*
X007353Y020755D01*
X007353Y021455D01*
X007355Y021472D01*
X007359Y021489D01*
X007366Y021505D01*
X007376Y021519D01*
X007389Y021532D01*
X007403Y021542D01*
X007419Y021549D01*
X007436Y021553D01*
X007453Y021555D01*
X007603Y021555D01*
X007653Y021505D01*
X009553Y021505D01*
X009603Y021555D01*
X009753Y021555D01*
X009770Y021553D01*
X009787Y021549D01*
X009803Y021542D01*
X009817Y021532D01*
X009830Y021519D01*
X009840Y021505D01*
X009847Y021489D01*
X009851Y021472D01*
X009853Y021455D01*
X009853Y020755D01*
X009851Y020738D01*
X009847Y020721D01*
X009840Y020705D01*
X009830Y020691D01*
X009817Y020678D01*
X009803Y020668D01*
X009787Y020661D01*
X009770Y020657D01*
X009753Y020655D01*
X009603Y020655D01*
X009553Y020705D01*
X007653Y020705D01*
X007603Y020655D01*
X009303Y022705D02*
X009503Y022705D01*
X009503Y023505D01*
X009303Y023505D01*
X009303Y023105D01*
X009303Y022705D01*
X009303Y023105D02*
X009053Y023105D01*
X009103Y023255D02*
X009103Y023455D01*
X009003Y023355D02*
X009203Y023355D01*
X008473Y022571D02*
X008504Y022509D01*
X008539Y022450D01*
X008576Y022392D01*
X008617Y022337D01*
X008661Y022283D01*
X008708Y022233D01*
X008757Y022185D01*
X008809Y022140D01*
X008863Y022097D01*
X008920Y022058D01*
X008978Y022022D01*
X009039Y021989D01*
X009101Y021960D01*
X009165Y021934D01*
X009230Y021912D01*
X009296Y021893D01*
X009364Y021878D01*
X009431Y021867D01*
X009500Y021859D01*
X009569Y021855D01*
X009637Y021855D01*
X009706Y021859D01*
X009775Y021867D01*
X009842Y021878D01*
X009910Y021893D01*
X009976Y021912D01*
X010041Y021934D01*
X010105Y021960D01*
X010167Y021989D01*
X010228Y022022D01*
X010286Y022058D01*
X010343Y022097D01*
X010397Y022140D01*
X010449Y022185D01*
X010498Y022233D01*
X010545Y022283D01*
X010589Y022337D01*
X010630Y022392D01*
X010667Y022450D01*
X010702Y022509D01*
X010733Y022571D01*
X010153Y023105D02*
X009853Y023105D01*
X010733Y023639D02*
X010702Y023701D01*
X010667Y023760D01*
X010630Y023818D01*
X010589Y023873D01*
X010545Y023927D01*
X010498Y023977D01*
X010449Y024025D01*
X010397Y024070D01*
X010343Y024113D01*
X010286Y024152D01*
X010228Y024188D01*
X010167Y024221D01*
X010105Y024250D01*
X010041Y024276D01*
X009976Y024298D01*
X009910Y024317D01*
X009842Y024332D01*
X009775Y024343D01*
X009706Y024351D01*
X009637Y024355D01*
X009569Y024355D01*
X009500Y024351D01*
X009431Y024343D01*
X009364Y024332D01*
X009296Y024317D01*
X009230Y024298D01*
X009165Y024276D01*
X009101Y024250D01*
X009039Y024221D01*
X008978Y024188D01*
X008920Y024152D01*
X008863Y024113D01*
X008809Y024070D01*
X008757Y024025D01*
X008708Y023977D01*
X008661Y023927D01*
X008617Y023873D01*
X008576Y023818D01*
X008539Y023760D01*
X008504Y023701D01*
X008473Y023639D01*
X009303Y025705D02*
X009503Y025705D01*
X009503Y026505D01*
X009303Y026505D01*
X009303Y026105D01*
X009303Y025705D01*
X009303Y026105D02*
X009053Y026105D01*
X009103Y026255D02*
X009103Y026455D01*
X009003Y026355D02*
X009203Y026355D01*
X008473Y025571D02*
X008504Y025509D01*
X008539Y025450D01*
X008576Y025392D01*
X008617Y025337D01*
X008661Y025283D01*
X008708Y025233D01*
X008757Y025185D01*
X008809Y025140D01*
X008863Y025097D01*
X008920Y025058D01*
X008978Y025022D01*
X009039Y024989D01*
X009101Y024960D01*
X009165Y024934D01*
X009230Y024912D01*
X009296Y024893D01*
X009364Y024878D01*
X009431Y024867D01*
X009500Y024859D01*
X009569Y024855D01*
X009637Y024855D01*
X009706Y024859D01*
X009775Y024867D01*
X009842Y024878D01*
X009910Y024893D01*
X009976Y024912D01*
X010041Y024934D01*
X010105Y024960D01*
X010167Y024989D01*
X010228Y025022D01*
X010286Y025058D01*
X010343Y025097D01*
X010397Y025140D01*
X010449Y025185D01*
X010498Y025233D01*
X010545Y025283D01*
X010589Y025337D01*
X010630Y025392D01*
X010667Y025450D01*
X010702Y025509D01*
X010733Y025571D01*
X010153Y026105D02*
X009853Y026105D01*
X010733Y026639D02*
X010702Y026701D01*
X010667Y026760D01*
X010630Y026818D01*
X010589Y026873D01*
X010545Y026927D01*
X010498Y026977D01*
X010449Y027025D01*
X010397Y027070D01*
X010343Y027113D01*
X010286Y027152D01*
X010228Y027188D01*
X010167Y027221D01*
X010105Y027250D01*
X010041Y027276D01*
X009976Y027298D01*
X009910Y027317D01*
X009842Y027332D01*
X009775Y027343D01*
X009706Y027351D01*
X009637Y027355D01*
X009569Y027355D01*
X009500Y027351D01*
X009431Y027343D01*
X009364Y027332D01*
X009296Y027317D01*
X009230Y027298D01*
X009165Y027276D01*
X009101Y027250D01*
X009039Y027221D01*
X008978Y027188D01*
X008920Y027152D01*
X008863Y027113D01*
X008809Y027070D01*
X008757Y027025D01*
X008708Y026977D01*
X008661Y026927D01*
X008617Y026873D01*
X008576Y026818D01*
X008539Y026760D01*
X008504Y026701D01*
X008473Y026639D01*
X007803Y028105D02*
X007803Y029105D01*
X009403Y029105D01*
X009403Y028105D01*
X007803Y028105D01*
X008353Y028605D02*
X008603Y028605D01*
X008603Y028355D01*
X008603Y028605D02*
X008603Y028855D01*
X008603Y028605D02*
X009003Y028855D01*
X009003Y028355D01*
X008603Y028605D01*
X009203Y028605D01*
X012653Y027005D02*
X012653Y026205D01*
X012655Y026188D01*
X012659Y026171D01*
X012666Y026155D01*
X012676Y026141D01*
X012689Y026128D01*
X012703Y026118D01*
X012719Y026111D01*
X012736Y026107D01*
X012753Y026105D01*
X015453Y026105D01*
X015470Y026107D01*
X015487Y026111D01*
X015503Y026118D01*
X015517Y026128D01*
X015530Y026141D01*
X015540Y026155D01*
X015547Y026171D01*
X015551Y026188D01*
X015553Y026205D01*
X015553Y027005D01*
X015551Y027022D01*
X015547Y027039D01*
X015540Y027055D01*
X015530Y027069D01*
X015517Y027082D01*
X015503Y027092D01*
X015487Y027099D01*
X015470Y027103D01*
X015453Y027105D01*
X012753Y027105D01*
X012736Y027103D01*
X012719Y027099D01*
X012703Y027092D01*
X012689Y027082D01*
X012676Y027069D01*
X012666Y027055D01*
X012659Y027039D01*
X012655Y027022D01*
X012653Y027005D01*
X013503Y026605D02*
X013983Y026605D01*
X014233Y026605D02*
X014703Y026605D01*
X014203Y025650D02*
X014203Y025492D01*
X014753Y025430D02*
X014753Y023780D01*
X014203Y023717D02*
X014203Y023559D01*
X014753Y023780D02*
X014702Y023743D01*
X014649Y023708D01*
X014593Y023676D01*
X014536Y023648D01*
X014477Y023624D01*
X014417Y023603D01*
X014356Y023586D01*
X014294Y023572D01*
X014231Y023563D01*
X014168Y023557D01*
X014104Y023555D01*
X014040Y023557D01*
X013977Y023563D01*
X013914Y023572D01*
X013852Y023585D01*
X013791Y023603D01*
X013731Y023623D01*
X013672Y023648D01*
X013615Y023676D01*
X013559Y023707D01*
X013506Y023741D01*
X013455Y023779D01*
X013406Y023820D01*
X013360Y023864D01*
X013316Y023910D01*
X013275Y023959D01*
X013238Y024010D01*
X013203Y024064D01*
X013172Y024119D01*
X013144Y024176D01*
X013120Y024235D01*
X013100Y024295D01*
X013100Y024915D02*
X013120Y024975D01*
X013144Y025034D01*
X013172Y025091D01*
X013203Y025146D01*
X013238Y025200D01*
X013275Y025251D01*
X013316Y025300D01*
X013360Y025346D01*
X013406Y025390D01*
X013455Y025431D01*
X013506Y025469D01*
X013559Y025503D01*
X013615Y025535D01*
X013672Y025562D01*
X013731Y025587D01*
X013791Y025607D01*
X013852Y025625D01*
X013914Y025638D01*
X013977Y025647D01*
X014040Y025653D01*
X014104Y025655D01*
X014168Y025653D01*
X014231Y025647D01*
X014294Y025638D01*
X014356Y025624D01*
X014417Y025607D01*
X014477Y025586D01*
X014536Y025562D01*
X014593Y025534D01*
X014649Y025502D01*
X014702Y025467D01*
X014753Y025430D01*
X005553Y022505D02*
X005553Y021705D01*
X005551Y021688D01*
X005547Y021671D01*
X005540Y021655D01*
X005530Y021641D01*
X005517Y021628D01*
X005503Y021618D01*
X005487Y021611D01*
X005470Y021607D01*
X005453Y021605D01*
X002753Y021605D01*
X002736Y021607D01*
X002719Y021611D01*
X002703Y021618D01*
X002689Y021628D01*
X002676Y021641D01*
X002666Y021655D01*
X002659Y021671D01*
X002655Y021688D01*
X002653Y021705D01*
X002653Y022505D01*
X002655Y022522D01*
X002659Y022539D01*
X002666Y022555D01*
X002676Y022569D01*
X002689Y022582D01*
X002703Y022592D01*
X002719Y022599D01*
X002736Y022603D01*
X002753Y022605D01*
X005453Y022605D01*
X005470Y022603D01*
X005487Y022599D01*
X005503Y022592D01*
X005517Y022582D01*
X005530Y022569D01*
X005540Y022555D01*
X005547Y022539D01*
X005551Y022522D01*
X005553Y022505D01*
X004703Y022105D02*
X004223Y022105D01*
X003973Y022105D02*
X003503Y022105D01*
X002257Y028105D02*
X002259Y028163D01*
X002265Y028220D01*
X002275Y028277D01*
X002288Y028333D01*
X002306Y028388D01*
X002327Y028442D01*
X002352Y028494D01*
X002380Y028545D01*
X002412Y028593D01*
X002447Y028639D01*
X002485Y028682D01*
X002526Y028723D01*
X002569Y028761D01*
X002615Y028796D01*
X002663Y028828D01*
X002714Y028856D01*
X002766Y028881D01*
X002820Y028902D01*
X002875Y028920D01*
X002931Y028933D01*
X002988Y028943D01*
X003045Y028949D01*
X003103Y028951D01*
X003161Y028949D01*
X003218Y028943D01*
X003275Y028933D01*
X003331Y028920D01*
X003386Y028902D01*
X003440Y028881D01*
X003492Y028856D01*
X003543Y028828D01*
X003591Y028796D01*
X003637Y028761D01*
X003680Y028723D01*
X003721Y028682D01*
X003759Y028639D01*
X003794Y028593D01*
X003826Y028545D01*
X003854Y028494D01*
X003879Y028442D01*
X003900Y028388D01*
X003918Y028333D01*
X003931Y028277D01*
X003941Y028220D01*
X003947Y028163D01*
X003949Y028105D01*
X003947Y028047D01*
X003941Y027990D01*
X003931Y027933D01*
X003918Y027877D01*
X003900Y027822D01*
X003879Y027768D01*
X003854Y027716D01*
X003826Y027665D01*
X003794Y027617D01*
X003759Y027571D01*
X003721Y027528D01*
X003680Y027487D01*
X003637Y027449D01*
X003591Y027414D01*
X003543Y027382D01*
X003492Y027354D01*
X003440Y027329D01*
X003386Y027308D01*
X003331Y027290D01*
X003275Y027277D01*
X003218Y027267D01*
X003161Y027261D01*
X003103Y027259D01*
X003045Y027261D01*
X002988Y027267D01*
X002931Y027277D01*
X002875Y027290D01*
X002820Y027308D01*
X002766Y027329D01*
X002714Y027354D01*
X002663Y027382D01*
X002615Y027414D01*
X002569Y027449D01*
X002526Y027487D01*
X002485Y027528D01*
X002447Y027571D01*
X002412Y027617D01*
X002380Y027665D01*
X002352Y027716D01*
X002327Y027768D01*
X002306Y027822D01*
X002288Y027877D01*
X002275Y027933D01*
X002265Y027990D01*
X002259Y028047D01*
X002257Y028105D01*
X001333Y028105D02*
X001335Y028192D01*
X001342Y028278D01*
X001352Y028365D01*
X001367Y028450D01*
X001386Y028535D01*
X001409Y028619D01*
X001436Y028701D01*
X001468Y028782D01*
X001503Y028862D01*
X001542Y028939D01*
X001585Y029015D01*
X001631Y029088D01*
X001681Y029159D01*
X001735Y029228D01*
X001792Y029294D01*
X001851Y029357D01*
X001914Y029416D01*
X001980Y029473D01*
X002049Y029527D01*
X002120Y029577D01*
X002193Y029623D01*
X002269Y029666D01*
X002346Y029705D01*
X002426Y029740D01*
X002507Y029772D01*
X002589Y029799D01*
X002673Y029822D01*
X002758Y029841D01*
X002843Y029856D01*
X002930Y029866D01*
X003016Y029873D01*
X003103Y029875D01*
X003190Y029873D01*
X003276Y029866D01*
X003363Y029856D01*
X003448Y029841D01*
X003533Y029822D01*
X003617Y029799D01*
X003699Y029772D01*
X003780Y029740D01*
X003860Y029705D01*
X003937Y029666D01*
X004013Y029623D01*
X004086Y029577D01*
X004157Y029527D01*
X004226Y029473D01*
X004292Y029416D01*
X004355Y029357D01*
X004414Y029294D01*
X004471Y029228D01*
X004525Y029159D01*
X004575Y029088D01*
X004621Y029015D01*
X004664Y028939D01*
X004703Y028862D01*
X004738Y028782D01*
X004770Y028701D01*
X004797Y028619D01*
X004820Y028535D01*
X004839Y028450D01*
X004854Y028365D01*
X004864Y028278D01*
X004871Y028192D01*
X004873Y028105D01*
X004871Y028018D01*
X004864Y027932D01*
X004854Y027845D01*
X004839Y027760D01*
X004820Y027675D01*
X004797Y027591D01*
X004770Y027509D01*
X004738Y027428D01*
X004703Y027348D01*
X004664Y027271D01*
X004621Y027195D01*
X004575Y027122D01*
X004525Y027051D01*
X004471Y026982D01*
X004414Y026916D01*
X004355Y026853D01*
X004292Y026794D01*
X004226Y026737D01*
X004157Y026683D01*
X004086Y026633D01*
X004013Y026587D01*
X003937Y026544D01*
X003860Y026505D01*
X003780Y026470D01*
X003699Y026438D01*
X003617Y026411D01*
X003533Y026388D01*
X003448Y026369D01*
X003363Y026354D01*
X003276Y026344D01*
X003190Y026337D01*
X003103Y026335D01*
X003016Y026337D01*
X002930Y026344D01*
X002843Y026354D01*
X002758Y026369D01*
X002673Y026388D01*
X002589Y026411D01*
X002507Y026438D01*
X002426Y026470D01*
X002346Y026505D01*
X002269Y026544D01*
X002193Y026587D01*
X002120Y026633D01*
X002049Y026683D01*
X001980Y026737D01*
X001914Y026794D01*
X001851Y026853D01*
X001792Y026916D01*
X001735Y026982D01*
X001681Y027051D01*
X001631Y027122D01*
X001585Y027195D01*
X001542Y027271D01*
X001503Y027348D01*
X001468Y027428D01*
X001436Y027509D01*
X001409Y027591D01*
X001386Y027675D01*
X001367Y027760D01*
X001352Y027845D01*
X001342Y027932D01*
X001335Y028018D01*
X001333Y028105D01*
X002603Y010705D02*
X002648Y010703D01*
X002694Y010698D01*
X002738Y010690D01*
X002782Y010678D01*
X002825Y010662D01*
X002867Y010644D01*
X002907Y010622D01*
X002945Y010598D01*
X002981Y010571D01*
X003016Y010541D01*
X003047Y010508D01*
X003077Y010473D01*
X002603Y010705D02*
X002558Y010703D01*
X002512Y010698D01*
X002468Y010690D01*
X002424Y010678D01*
X002381Y010662D01*
X002339Y010644D01*
X002299Y010622D01*
X002261Y010598D01*
X002225Y010571D01*
X002190Y010541D01*
X002159Y010508D01*
X002129Y010473D01*
X002603Y009505D02*
X002649Y009507D01*
X002695Y009512D01*
X002741Y009521D01*
X002786Y009533D01*
X002829Y009549D01*
X002871Y009568D01*
X002912Y009591D01*
X002951Y009616D01*
X002987Y009644D01*
X003022Y009675D01*
X003054Y009709D01*
X003083Y009745D01*
X002603Y009505D02*
X002556Y009507D01*
X002508Y009513D01*
X002462Y009522D01*
X002416Y009535D01*
X002372Y009551D01*
X002328Y009571D01*
X002287Y009595D01*
X002248Y009621D01*
X002211Y009651D01*
X002176Y009684D01*
X002144Y009719D01*
X002115Y009756D01*
X002257Y004105D02*
X002259Y004163D01*
X002265Y004220D01*
X002275Y004277D01*
X002288Y004333D01*
X002306Y004388D01*
X002327Y004442D01*
X002352Y004494D01*
X002380Y004545D01*
X002412Y004593D01*
X002447Y004639D01*
X002485Y004682D01*
X002526Y004723D01*
X002569Y004761D01*
X002615Y004796D01*
X002663Y004828D01*
X002714Y004856D01*
X002766Y004881D01*
X002820Y004902D01*
X002875Y004920D01*
X002931Y004933D01*
X002988Y004943D01*
X003045Y004949D01*
X003103Y004951D01*
X003161Y004949D01*
X003218Y004943D01*
X003275Y004933D01*
X003331Y004920D01*
X003386Y004902D01*
X003440Y004881D01*
X003492Y004856D01*
X003543Y004828D01*
X003591Y004796D01*
X003637Y004761D01*
X003680Y004723D01*
X003721Y004682D01*
X003759Y004639D01*
X003794Y004593D01*
X003826Y004545D01*
X003854Y004494D01*
X003879Y004442D01*
X003900Y004388D01*
X003918Y004333D01*
X003931Y004277D01*
X003941Y004220D01*
X003947Y004163D01*
X003949Y004105D01*
X003947Y004047D01*
X003941Y003990D01*
X003931Y003933D01*
X003918Y003877D01*
X003900Y003822D01*
X003879Y003768D01*
X003854Y003716D01*
X003826Y003665D01*
X003794Y003617D01*
X003759Y003571D01*
X003721Y003528D01*
X003680Y003487D01*
X003637Y003449D01*
X003591Y003414D01*
X003543Y003382D01*
X003492Y003354D01*
X003440Y003329D01*
X003386Y003308D01*
X003331Y003290D01*
X003275Y003277D01*
X003218Y003267D01*
X003161Y003261D01*
X003103Y003259D01*
X003045Y003261D01*
X002988Y003267D01*
X002931Y003277D01*
X002875Y003290D01*
X002820Y003308D01*
X002766Y003329D01*
X002714Y003354D01*
X002663Y003382D01*
X002615Y003414D01*
X002569Y003449D01*
X002526Y003487D01*
X002485Y003528D01*
X002447Y003571D01*
X002412Y003617D01*
X002380Y003665D01*
X002352Y003716D01*
X002327Y003768D01*
X002306Y003822D01*
X002288Y003877D01*
X002275Y003933D01*
X002265Y003990D01*
X002259Y004047D01*
X002257Y004105D01*
X001333Y004105D02*
X001335Y004192D01*
X001342Y004278D01*
X001352Y004365D01*
X001367Y004450D01*
X001386Y004535D01*
X001409Y004619D01*
X001436Y004701D01*
X001468Y004782D01*
X001503Y004862D01*
X001542Y004939D01*
X001585Y005015D01*
X001631Y005088D01*
X001681Y005159D01*
X001735Y005228D01*
X001792Y005294D01*
X001851Y005357D01*
X001914Y005416D01*
X001980Y005473D01*
X002049Y005527D01*
X002120Y005577D01*
X002193Y005623D01*
X002269Y005666D01*
X002346Y005705D01*
X002426Y005740D01*
X002507Y005772D01*
X002589Y005799D01*
X002673Y005822D01*
X002758Y005841D01*
X002843Y005856D01*
X002930Y005866D01*
X003016Y005873D01*
X003103Y005875D01*
X003190Y005873D01*
X003276Y005866D01*
X003363Y005856D01*
X003448Y005841D01*
X003533Y005822D01*
X003617Y005799D01*
X003699Y005772D01*
X003780Y005740D01*
X003860Y005705D01*
X003937Y005666D01*
X004013Y005623D01*
X004086Y005577D01*
X004157Y005527D01*
X004226Y005473D01*
X004292Y005416D01*
X004355Y005357D01*
X004414Y005294D01*
X004471Y005228D01*
X004525Y005159D01*
X004575Y005088D01*
X004621Y005015D01*
X004664Y004939D01*
X004703Y004862D01*
X004738Y004782D01*
X004770Y004701D01*
X004797Y004619D01*
X004820Y004535D01*
X004839Y004450D01*
X004854Y004365D01*
X004864Y004278D01*
X004871Y004192D01*
X004873Y004105D01*
X004871Y004018D01*
X004864Y003932D01*
X004854Y003845D01*
X004839Y003760D01*
X004820Y003675D01*
X004797Y003591D01*
X004770Y003509D01*
X004738Y003428D01*
X004703Y003348D01*
X004664Y003271D01*
X004621Y003195D01*
X004575Y003122D01*
X004525Y003051D01*
X004471Y002982D01*
X004414Y002916D01*
X004355Y002853D01*
X004292Y002794D01*
X004226Y002737D01*
X004157Y002683D01*
X004086Y002633D01*
X004013Y002587D01*
X003937Y002544D01*
X003860Y002505D01*
X003780Y002470D01*
X003699Y002438D01*
X003617Y002411D01*
X003533Y002388D01*
X003448Y002369D01*
X003363Y002354D01*
X003276Y002344D01*
X003190Y002337D01*
X003103Y002335D01*
X003016Y002337D01*
X002930Y002344D01*
X002843Y002354D01*
X002758Y002369D01*
X002673Y002388D01*
X002589Y002411D01*
X002507Y002438D01*
X002426Y002470D01*
X002346Y002505D01*
X002269Y002544D01*
X002193Y002587D01*
X002120Y002633D01*
X002049Y002683D01*
X001980Y002737D01*
X001914Y002794D01*
X001851Y002853D01*
X001792Y002916D01*
X001735Y002982D01*
X001681Y003051D01*
X001631Y003122D01*
X001585Y003195D01*
X001542Y003271D01*
X001503Y003348D01*
X001468Y003428D01*
X001436Y003509D01*
X001409Y003591D01*
X001386Y003675D01*
X001367Y003760D01*
X001352Y003845D01*
X001342Y003932D01*
X001335Y004018D01*
X001333Y004105D01*
X023257Y028105D02*
X023259Y028163D01*
X023265Y028220D01*
X023275Y028277D01*
X023288Y028333D01*
X023306Y028388D01*
X023327Y028442D01*
X023352Y028494D01*
X023380Y028545D01*
X023412Y028593D01*
X023447Y028639D01*
X023485Y028682D01*
X023526Y028723D01*
X023569Y028761D01*
X023615Y028796D01*
X023663Y028828D01*
X023714Y028856D01*
X023766Y028881D01*
X023820Y028902D01*
X023875Y028920D01*
X023931Y028933D01*
X023988Y028943D01*
X024045Y028949D01*
X024103Y028951D01*
X024161Y028949D01*
X024218Y028943D01*
X024275Y028933D01*
X024331Y028920D01*
X024386Y028902D01*
X024440Y028881D01*
X024492Y028856D01*
X024543Y028828D01*
X024591Y028796D01*
X024637Y028761D01*
X024680Y028723D01*
X024721Y028682D01*
X024759Y028639D01*
X024794Y028593D01*
X024826Y028545D01*
X024854Y028494D01*
X024879Y028442D01*
X024900Y028388D01*
X024918Y028333D01*
X024931Y028277D01*
X024941Y028220D01*
X024947Y028163D01*
X024949Y028105D01*
X024947Y028047D01*
X024941Y027990D01*
X024931Y027933D01*
X024918Y027877D01*
X024900Y027822D01*
X024879Y027768D01*
X024854Y027716D01*
X024826Y027665D01*
X024794Y027617D01*
X024759Y027571D01*
X024721Y027528D01*
X024680Y027487D01*
X024637Y027449D01*
X024591Y027414D01*
X024543Y027382D01*
X024492Y027354D01*
X024440Y027329D01*
X024386Y027308D01*
X024331Y027290D01*
X024275Y027277D01*
X024218Y027267D01*
X024161Y027261D01*
X024103Y027259D01*
X024045Y027261D01*
X023988Y027267D01*
X023931Y027277D01*
X023875Y027290D01*
X023820Y027308D01*
X023766Y027329D01*
X023714Y027354D01*
X023663Y027382D01*
X023615Y027414D01*
X023569Y027449D01*
X023526Y027487D01*
X023485Y027528D01*
X023447Y027571D01*
X023412Y027617D01*
X023380Y027665D01*
X023352Y027716D01*
X023327Y027768D01*
X023306Y027822D01*
X023288Y027877D01*
X023275Y027933D01*
X023265Y027990D01*
X023259Y028047D01*
X023257Y028105D01*
X022333Y028105D02*
X022335Y028192D01*
X022342Y028278D01*
X022352Y028365D01*
X022367Y028450D01*
X022386Y028535D01*
X022409Y028619D01*
X022436Y028701D01*
X022468Y028782D01*
X022503Y028862D01*
X022542Y028939D01*
X022585Y029015D01*
X022631Y029088D01*
X022681Y029159D01*
X022735Y029228D01*
X022792Y029294D01*
X022851Y029357D01*
X022914Y029416D01*
X022980Y029473D01*
X023049Y029527D01*
X023120Y029577D01*
X023193Y029623D01*
X023269Y029666D01*
X023346Y029705D01*
X023426Y029740D01*
X023507Y029772D01*
X023589Y029799D01*
X023673Y029822D01*
X023758Y029841D01*
X023843Y029856D01*
X023930Y029866D01*
X024016Y029873D01*
X024103Y029875D01*
X024190Y029873D01*
X024276Y029866D01*
X024363Y029856D01*
X024448Y029841D01*
X024533Y029822D01*
X024617Y029799D01*
X024699Y029772D01*
X024780Y029740D01*
X024860Y029705D01*
X024937Y029666D01*
X025013Y029623D01*
X025086Y029577D01*
X025157Y029527D01*
X025226Y029473D01*
X025292Y029416D01*
X025355Y029357D01*
X025414Y029294D01*
X025471Y029228D01*
X025525Y029159D01*
X025575Y029088D01*
X025621Y029015D01*
X025664Y028939D01*
X025703Y028862D01*
X025738Y028782D01*
X025770Y028701D01*
X025797Y028619D01*
X025820Y028535D01*
X025839Y028450D01*
X025854Y028365D01*
X025864Y028278D01*
X025871Y028192D01*
X025873Y028105D01*
X025871Y028018D01*
X025864Y027932D01*
X025854Y027845D01*
X025839Y027760D01*
X025820Y027675D01*
X025797Y027591D01*
X025770Y027509D01*
X025738Y027428D01*
X025703Y027348D01*
X025664Y027271D01*
X025621Y027195D01*
X025575Y027122D01*
X025525Y027051D01*
X025471Y026982D01*
X025414Y026916D01*
X025355Y026853D01*
X025292Y026794D01*
X025226Y026737D01*
X025157Y026683D01*
X025086Y026633D01*
X025013Y026587D01*
X024937Y026544D01*
X024860Y026505D01*
X024780Y026470D01*
X024699Y026438D01*
X024617Y026411D01*
X024533Y026388D01*
X024448Y026369D01*
X024363Y026354D01*
X024276Y026344D01*
X024190Y026337D01*
X024103Y026335D01*
X024016Y026337D01*
X023930Y026344D01*
X023843Y026354D01*
X023758Y026369D01*
X023673Y026388D01*
X023589Y026411D01*
X023507Y026438D01*
X023426Y026470D01*
X023346Y026505D01*
X023269Y026544D01*
X023193Y026587D01*
X023120Y026633D01*
X023049Y026683D01*
X022980Y026737D01*
X022914Y026794D01*
X022851Y026853D01*
X022792Y026916D01*
X022735Y026982D01*
X022681Y027051D01*
X022631Y027122D01*
X022585Y027195D01*
X022542Y027271D01*
X022503Y027348D01*
X022468Y027428D01*
X022436Y027509D01*
X022409Y027591D01*
X022386Y027675D01*
X022367Y027760D01*
X022352Y027845D01*
X022342Y027932D01*
X022335Y028018D01*
X022333Y028105D01*
D12*
X009803Y026105D03*
X009803Y023105D03*
D13*
X008649Y022180D02*
X008349Y022180D01*
X008349Y021955D01*
X008499Y022030D01*
X008574Y022030D01*
X008649Y021955D01*
X008649Y021805D01*
X008574Y021730D01*
X008424Y021730D01*
X008349Y021805D01*
X008189Y021730D02*
X007888Y021730D01*
X008038Y021730D02*
X008038Y022180D01*
X007888Y022030D01*
X007728Y022105D02*
X007653Y022180D01*
X007428Y022180D01*
X007428Y021730D01*
X007428Y021880D02*
X007653Y021880D01*
X007728Y021955D01*
X007728Y022105D01*
X007578Y021880D02*
X007728Y021730D01*
X007074Y020680D02*
X006924Y020680D01*
X006849Y020605D01*
X006849Y020530D01*
X006924Y020455D01*
X007149Y020455D01*
X007149Y020305D02*
X007149Y020605D01*
X007074Y020680D01*
X007149Y020305D02*
X007074Y020230D01*
X006924Y020230D01*
X006849Y020305D01*
X006689Y020230D02*
X006388Y020230D01*
X006538Y020230D02*
X006538Y020680D01*
X006388Y020530D01*
X006228Y020605D02*
X006228Y020455D01*
X006153Y020380D01*
X005928Y020380D01*
X006078Y020380D02*
X006228Y020230D01*
X005928Y020230D02*
X005928Y020680D01*
X006153Y020680D01*
X006228Y020605D01*
X005318Y020980D02*
X005018Y020980D01*
X005168Y020980D02*
X005168Y021430D01*
X005018Y021280D01*
X004857Y020980D02*
X004557Y020980D01*
X004707Y020980D02*
X004707Y021430D01*
X004557Y021280D01*
X004397Y021355D02*
X004322Y021430D01*
X004172Y021430D01*
X004097Y021355D01*
X004097Y021055D01*
X004172Y020980D01*
X004322Y020980D01*
X004397Y021055D01*
X003028Y020440D02*
X003028Y020140D01*
X003028Y020290D02*
X002578Y020290D01*
X002728Y020140D01*
X002653Y019980D02*
X002953Y019980D01*
X003028Y019905D01*
X003028Y019755D01*
X002953Y019680D01*
X002653Y019680D01*
X002578Y019755D01*
X002578Y019905D01*
X002653Y019980D01*
X002803Y020600D02*
X002803Y020901D01*
X002653Y020751D02*
X002953Y020751D01*
X001028Y020440D02*
X001028Y020140D01*
X001028Y020290D02*
X000578Y020290D01*
X000728Y020140D01*
X000653Y019980D02*
X000578Y019905D01*
X000578Y019755D01*
X000653Y019680D01*
X000953Y019680D01*
X001028Y019755D01*
X001028Y019905D01*
X000953Y019980D01*
X000653Y019980D01*
X000803Y020600D02*
X000803Y020901D01*
X002903Y018520D02*
X002903Y018219D01*
X002828Y018059D02*
X002753Y018059D01*
X002678Y017984D01*
X002678Y017834D01*
X002753Y017759D01*
X002753Y017599D02*
X002678Y017524D01*
X002678Y017374D01*
X002753Y017299D01*
X003053Y017299D01*
X003128Y017374D01*
X003128Y017524D01*
X003053Y017599D01*
X002753Y017599D01*
X003128Y017759D02*
X002828Y018059D01*
X003128Y018059D02*
X003128Y017759D01*
X003053Y018369D02*
X002753Y018369D01*
X001128Y017440D02*
X001128Y017140D01*
X000828Y017440D01*
X000753Y017440D01*
X000678Y017365D01*
X000678Y017215D01*
X000753Y017140D01*
X000753Y016980D02*
X000678Y016905D01*
X000678Y016755D01*
X000753Y016680D01*
X001053Y016680D01*
X001128Y016755D01*
X001128Y016905D01*
X001053Y016980D01*
X000753Y016980D01*
X000903Y017600D02*
X000903Y017901D01*
X000903Y015801D02*
X000903Y015500D01*
X000978Y015340D02*
X001053Y015340D01*
X001128Y015265D01*
X001128Y015115D01*
X001053Y015040D01*
X001053Y014880D02*
X000753Y014880D01*
X000678Y014805D01*
X000678Y014655D01*
X000753Y014580D01*
X001053Y014580D01*
X001128Y014655D01*
X001128Y014805D01*
X001053Y014880D01*
X000753Y015040D02*
X000678Y015115D01*
X000678Y015265D01*
X000753Y015340D01*
X000828Y015340D01*
X000903Y015265D01*
X000978Y015340D01*
X000903Y015265D02*
X000903Y015190D01*
X000903Y013901D02*
X000903Y013600D01*
X000903Y013440D02*
X000903Y013140D01*
X000678Y013365D01*
X001128Y013365D01*
X001053Y012980D02*
X000753Y012980D01*
X000678Y012905D01*
X000678Y012755D01*
X000753Y012680D01*
X001053Y012680D01*
X001128Y012755D01*
X001128Y012905D01*
X001053Y012980D01*
X000994Y011930D02*
X000844Y011930D01*
X000769Y011855D01*
X000769Y011780D01*
X000844Y011705D01*
X000994Y011705D01*
X001069Y011630D01*
X001069Y011555D01*
X000994Y011480D01*
X000844Y011480D01*
X000769Y011555D01*
X001069Y011855D02*
X000994Y011930D01*
X001229Y011930D02*
X001380Y011930D01*
X001305Y011930D02*
X001305Y011480D01*
X001380Y011480D02*
X001229Y011480D01*
X001536Y011555D02*
X001611Y011480D01*
X001762Y011480D01*
X001837Y011555D01*
X001837Y011705D01*
X001686Y011705D01*
X001536Y011855D02*
X001611Y011930D01*
X001762Y011930D01*
X001837Y011855D01*
X001997Y011930D02*
X001997Y011480D01*
X002297Y011480D02*
X002297Y011930D01*
X002457Y011780D02*
X002607Y011930D01*
X002757Y011780D01*
X002757Y011480D01*
X002917Y011480D02*
X003218Y011480D01*
X002917Y011480D02*
X002917Y011930D01*
X002757Y011705D02*
X002457Y011705D01*
X002457Y011780D02*
X002457Y011480D01*
X002297Y011480D02*
X001997Y011930D01*
X001536Y011855D02*
X001536Y011555D01*
X002678Y012755D02*
X002678Y012905D01*
X002753Y012980D01*
X003053Y012980D01*
X003128Y012905D01*
X003128Y012755D01*
X003053Y012680D01*
X002753Y012680D01*
X002678Y012755D01*
X002903Y013140D02*
X002678Y013365D01*
X003128Y013365D01*
X002903Y013440D02*
X002903Y013140D01*
X002903Y013600D02*
X002903Y013901D01*
X002753Y013751D02*
X003053Y013751D01*
X003053Y014680D02*
X002753Y014680D01*
X002678Y014755D01*
X002678Y014905D01*
X002753Y014980D01*
X003053Y014980D01*
X003128Y014905D01*
X003128Y014755D01*
X003053Y014680D01*
X003053Y015140D02*
X003128Y015215D01*
X003128Y015365D01*
X003053Y015440D01*
X002978Y015440D01*
X002903Y015365D01*
X002903Y015290D01*
X002903Y015365D02*
X002828Y015440D01*
X002753Y015440D01*
X002678Y015365D01*
X002678Y015215D01*
X002753Y015140D01*
X002903Y015600D02*
X002903Y015901D01*
X002753Y015751D02*
X003053Y015751D01*
X005928Y015730D02*
X005928Y016180D01*
X006153Y016180D01*
X006228Y016105D01*
X006228Y015955D01*
X006153Y015880D01*
X005928Y015880D01*
X006078Y015880D02*
X006228Y015730D01*
X006388Y015730D02*
X006689Y015730D01*
X006538Y015730D02*
X006538Y016180D01*
X006388Y016030D01*
X006849Y016180D02*
X007149Y016180D01*
X007149Y016105D01*
X006849Y015805D01*
X006849Y015730D01*
X007149Y014680D02*
X006999Y014605D01*
X006849Y014455D01*
X007074Y014455D01*
X007149Y014380D01*
X007149Y014305D01*
X007074Y014230D01*
X006924Y014230D01*
X006849Y014305D01*
X006849Y014455D01*
X006689Y014230D02*
X006388Y014230D01*
X006538Y014230D02*
X006538Y014680D01*
X006388Y014530D01*
X006228Y014605D02*
X006228Y014455D01*
X006153Y014380D01*
X005928Y014380D01*
X006078Y014380D02*
X006228Y014230D01*
X005928Y014230D02*
X005928Y014680D01*
X006153Y014680D01*
X006228Y014605D01*
X006153Y013180D02*
X005928Y013180D01*
X005928Y012730D01*
X005928Y012880D02*
X006153Y012880D01*
X006228Y012955D01*
X006228Y013105D01*
X006153Y013180D01*
X006388Y013105D02*
X006463Y013180D01*
X006614Y013180D01*
X006689Y013105D01*
X006689Y013030D01*
X006388Y012730D01*
X006689Y012730D01*
X006849Y012805D02*
X007149Y013105D01*
X007149Y012805D01*
X007074Y012730D01*
X006924Y012730D01*
X006849Y012805D01*
X006849Y013105D01*
X006924Y013180D01*
X007074Y013180D01*
X007149Y013105D01*
X006228Y012730D02*
X006078Y012880D01*
X003324Y009130D02*
X003099Y009130D01*
X003099Y008680D01*
X003324Y008680D01*
X003399Y008755D01*
X003399Y009055D01*
X003324Y009130D01*
X002939Y009130D02*
X002939Y008680D01*
X002638Y009130D01*
X002638Y008680D01*
X002478Y008755D02*
X002478Y008905D01*
X002328Y008905D01*
X002178Y009055D02*
X002178Y008755D01*
X002253Y008680D01*
X002403Y008680D01*
X002478Y008755D01*
X002478Y009055D02*
X002403Y009130D01*
X002253Y009130D01*
X002178Y009055D01*
X007753Y002130D02*
X007678Y002055D01*
X007678Y001980D01*
X007753Y001905D01*
X007903Y001905D01*
X007978Y001830D01*
X007978Y001755D01*
X007903Y001680D01*
X007753Y001680D01*
X007678Y001755D01*
X007753Y002130D02*
X007903Y002130D01*
X007978Y002055D01*
X008138Y002130D02*
X008288Y002130D01*
X008213Y002130D02*
X008213Y001680D01*
X008138Y001680D02*
X008288Y001680D01*
X008445Y001755D02*
X008445Y002055D01*
X008520Y002130D01*
X008670Y002130D01*
X008745Y002055D01*
X008745Y001905D02*
X008595Y001905D01*
X008745Y001905D02*
X008745Y001755D01*
X008670Y001680D01*
X008520Y001680D01*
X008445Y001755D01*
X008906Y001605D02*
X009206Y001605D01*
X009366Y001680D02*
X009366Y002130D01*
X009366Y001680D02*
X009666Y001680D01*
X012178Y001755D02*
X012253Y001680D01*
X012403Y001680D01*
X012478Y001755D01*
X012478Y001830D01*
X012403Y001905D01*
X012253Y001905D01*
X012178Y001980D01*
X012178Y002055D01*
X012253Y002130D01*
X012403Y002130D01*
X012478Y002055D01*
X012638Y002130D02*
X012788Y002130D01*
X012713Y002130D02*
X012713Y001680D01*
X012638Y001680D02*
X012788Y001680D01*
X012945Y001755D02*
X013020Y001680D01*
X013170Y001680D01*
X013245Y001755D01*
X013245Y001905D01*
X013095Y001905D01*
X012945Y002055D02*
X013020Y002130D01*
X013170Y002130D01*
X013245Y002055D01*
X012945Y002055D02*
X012945Y001755D01*
X013406Y001605D02*
X013706Y001605D01*
X013866Y001755D02*
X013866Y002055D01*
X013941Y002130D01*
X014091Y002130D01*
X014166Y002055D01*
X014166Y001905D02*
X014016Y001905D01*
X014166Y001905D02*
X014166Y001755D01*
X014091Y001680D01*
X013941Y001680D01*
X013866Y001755D01*
X014326Y001680D02*
X014326Y002130D01*
X014627Y001680D01*
X014627Y002130D01*
X014787Y002130D02*
X015012Y002130D01*
X015087Y002055D01*
X015087Y001755D01*
X015012Y001680D01*
X014787Y001680D01*
X014787Y002130D01*
X017178Y002055D02*
X017178Y001980D01*
X017253Y001905D01*
X017403Y001905D01*
X017478Y001830D01*
X017478Y001755D01*
X017403Y001680D01*
X017253Y001680D01*
X017178Y001755D01*
X017178Y002055D02*
X017253Y002130D01*
X017403Y002130D01*
X017478Y002055D01*
X017638Y002130D02*
X017788Y002130D01*
X017713Y002130D02*
X017713Y001680D01*
X017638Y001680D02*
X017788Y001680D01*
X017945Y001755D02*
X017945Y002055D01*
X018020Y002130D01*
X018170Y002130D01*
X018245Y002055D01*
X018245Y001905D02*
X018095Y001905D01*
X018245Y001905D02*
X018245Y001755D01*
X018170Y001680D01*
X018020Y001680D01*
X017945Y001755D01*
X018406Y001605D02*
X018706Y001605D01*
X018866Y001680D02*
X018866Y002130D01*
X019091Y002130D01*
X019166Y002055D01*
X019166Y001905D01*
X019091Y001830D01*
X018866Y001830D01*
X019016Y001830D02*
X019166Y001680D01*
X016114Y005230D02*
X015963Y005230D01*
X015888Y005305D01*
X015728Y005230D02*
X015578Y005380D01*
X015653Y005380D02*
X015428Y005380D01*
X015428Y005230D02*
X015428Y005680D01*
X015653Y005680D01*
X015728Y005605D01*
X015728Y005455D01*
X015653Y005380D01*
X015888Y005605D02*
X015963Y005680D01*
X016114Y005680D01*
X016189Y005605D01*
X016189Y005530D01*
X016114Y005455D01*
X016189Y005380D01*
X016189Y005305D01*
X016114Y005230D01*
X016114Y005455D02*
X016038Y005455D01*
X016038Y006730D02*
X016038Y007180D01*
X015888Y007030D01*
X015728Y007105D02*
X015728Y006955D01*
X015653Y006880D01*
X015428Y006880D01*
X015578Y006880D02*
X015728Y006730D01*
X015888Y006730D02*
X016189Y006730D01*
X015728Y007105D02*
X015653Y007180D01*
X015428Y007180D01*
X015428Y006730D01*
X015093Y009030D02*
X014943Y009030D01*
X014868Y009105D01*
X014868Y009180D01*
X014943Y009255D01*
X015093Y009255D01*
X015168Y009180D01*
X015168Y009105D01*
X015093Y009030D01*
X015093Y009255D02*
X015168Y009330D01*
X015168Y009405D01*
X015093Y009480D01*
X014943Y009480D01*
X014868Y009405D01*
X014868Y009330D01*
X014943Y009255D01*
X014707Y009255D02*
X014707Y009405D01*
X014632Y009480D01*
X014407Y009480D01*
X014407Y009030D01*
X014407Y009180D02*
X014632Y009180D01*
X014707Y009255D01*
X014557Y009180D02*
X014707Y009030D01*
X013539Y008780D02*
X013238Y008780D01*
X013388Y008780D02*
X013388Y009230D01*
X013238Y009080D01*
X013078Y009155D02*
X013003Y009230D01*
X012853Y009230D01*
X012778Y009155D01*
X012778Y008855D01*
X012853Y008780D01*
X013003Y008780D01*
X013078Y008855D01*
X011089Y006905D02*
X011089Y006830D01*
X010788Y006530D01*
X011089Y006530D01*
X010628Y006530D02*
X010478Y006680D01*
X010553Y006680D02*
X010328Y006680D01*
X010328Y006530D02*
X010328Y006980D01*
X010553Y006980D01*
X010628Y006905D01*
X010628Y006755D01*
X010553Y006680D01*
X010788Y006905D02*
X010863Y006980D01*
X011014Y006980D01*
X011089Y006905D01*
X010593Y005480D02*
X010368Y005255D01*
X010668Y005255D01*
X010593Y005030D02*
X010593Y005480D01*
X010207Y005405D02*
X010207Y005255D01*
X010132Y005180D01*
X009907Y005180D01*
X009907Y005030D02*
X009907Y005480D01*
X010132Y005480D01*
X010207Y005405D01*
X010057Y005180D02*
X010207Y005030D01*
X011282Y011930D02*
X011207Y012005D01*
X011207Y012305D01*
X011282Y012380D01*
X011432Y012380D01*
X011507Y012305D01*
X011507Y012005D01*
X011432Y011930D01*
X011282Y011930D01*
X011357Y012080D02*
X011507Y011930D01*
X011668Y012005D02*
X011743Y011930D01*
X011893Y011930D01*
X011968Y012005D01*
X011968Y012080D01*
X011893Y012155D01*
X011818Y012155D01*
X011893Y012155D02*
X011968Y012230D01*
X011968Y012305D01*
X011893Y012380D01*
X011743Y012380D01*
X011668Y012305D01*
X013278Y012755D02*
X014928Y012755D01*
X014656Y012155D02*
X014550Y012155D01*
X015053Y012552D02*
X015026Y012606D01*
X014996Y012657D01*
X014963Y012707D01*
X014928Y012755D01*
X015053Y011658D02*
X015024Y011601D01*
X014991Y011545D01*
X014956Y011492D01*
X014916Y011441D01*
X014874Y011393D01*
X014829Y011347D01*
X014782Y011304D01*
X014732Y011264D01*
X014679Y011227D01*
X014624Y011194D01*
X014568Y011163D01*
X014509Y011137D01*
X014449Y011114D01*
X014388Y011094D01*
X014326Y011079D01*
X014263Y011067D01*
X014199Y011059D01*
X014135Y011055D01*
X014071Y011055D01*
X014007Y011059D01*
X013943Y011067D01*
X013880Y011079D01*
X013818Y011094D01*
X013757Y011114D01*
X013697Y011137D01*
X013638Y011163D01*
X013582Y011194D01*
X013527Y011227D01*
X013474Y011264D01*
X013424Y011304D01*
X013377Y011347D01*
X013332Y011393D01*
X013290Y011441D01*
X013250Y011492D01*
X013215Y011545D01*
X013182Y011601D01*
X013153Y011658D01*
X013550Y012155D02*
X013656Y012155D01*
X013149Y012543D02*
X013176Y012599D01*
X013207Y012653D01*
X013241Y012705D01*
X013278Y012755D01*
X016178Y013630D02*
X016478Y013630D01*
X016328Y013630D02*
X016328Y013180D01*
X016638Y013180D02*
X016638Y013630D01*
X016864Y013630D01*
X016939Y013555D01*
X016939Y013405D01*
X016864Y013330D01*
X016638Y013330D01*
X017099Y013480D02*
X017249Y013630D01*
X017249Y013180D01*
X017099Y013180D02*
X017399Y013180D01*
X018328Y013130D02*
X018328Y012680D01*
X018328Y012905D02*
X018478Y012905D01*
X018328Y013130D02*
X018628Y013130D01*
X018788Y013130D02*
X019014Y013130D01*
X019089Y013055D01*
X019089Y012905D01*
X019014Y012830D01*
X018788Y012830D01*
X018788Y012680D02*
X018788Y013130D01*
X018938Y012830D02*
X019089Y012680D01*
X019249Y012680D02*
X019549Y012680D01*
X019709Y012755D02*
X019784Y012680D01*
X019934Y012680D01*
X020009Y012755D01*
X020009Y013055D01*
X019934Y013130D01*
X019784Y013130D01*
X019709Y013055D01*
X019709Y012755D01*
X019859Y012830D02*
X020009Y012680D01*
X020169Y012905D02*
X020470Y012905D01*
X020395Y012680D02*
X020395Y013130D01*
X020169Y012905D01*
X019549Y013130D02*
X019249Y013130D01*
X019249Y012680D01*
X019249Y012905D02*
X019399Y012905D01*
X019074Y012180D02*
X018924Y012180D01*
X018849Y012105D01*
X019074Y012180D02*
X019149Y012105D01*
X019149Y012030D01*
X018849Y011730D01*
X019149Y011730D01*
X018689Y011730D02*
X018388Y011730D01*
X018538Y011730D02*
X018538Y012180D01*
X018388Y012030D01*
X018228Y012105D02*
X018228Y011955D01*
X018153Y011880D01*
X017928Y011880D01*
X018078Y011880D02*
X018228Y011730D01*
X017928Y011730D02*
X017928Y012180D01*
X018153Y012180D01*
X018228Y012105D01*
X019447Y015030D02*
X019447Y015480D01*
X019672Y015480D01*
X019747Y015405D01*
X019747Y015255D01*
X019672Y015180D01*
X019447Y015180D01*
X019597Y015180D02*
X019747Y015030D01*
X019907Y015030D02*
X020207Y015030D01*
X020057Y015030D02*
X020057Y015480D01*
X019907Y015330D01*
X020368Y015255D02*
X020668Y015255D01*
X020593Y015030D02*
X020593Y015480D01*
X020368Y015255D01*
X020395Y016180D02*
X020244Y016180D01*
X020169Y016255D01*
X020009Y016255D02*
X019934Y016180D01*
X019784Y016180D01*
X019709Y016255D01*
X019709Y016555D01*
X019784Y016630D01*
X019934Y016630D01*
X020009Y016555D01*
X020009Y016255D01*
X020009Y016180D02*
X019859Y016330D01*
X019549Y016180D02*
X019249Y016180D01*
X019249Y016630D01*
X019549Y016630D01*
X019399Y016405D02*
X019249Y016405D01*
X019089Y016405D02*
X019089Y016555D01*
X019014Y016630D01*
X018788Y016630D01*
X018788Y016180D01*
X018788Y016330D02*
X019014Y016330D01*
X019089Y016405D01*
X018938Y016330D02*
X019089Y016180D01*
X018628Y016630D02*
X018328Y016630D01*
X018328Y016180D01*
X018328Y016405D02*
X018478Y016405D01*
X020169Y016555D02*
X020244Y016630D01*
X020395Y016630D01*
X020470Y016555D01*
X020470Y016480D01*
X020395Y016405D01*
X020470Y016330D01*
X020470Y016255D01*
X020395Y016180D01*
X020395Y016405D02*
X020320Y016405D01*
X021428Y016505D02*
X021503Y016580D01*
X021653Y016580D01*
X021728Y016505D01*
X021728Y016430D01*
X021653Y016355D01*
X021728Y016280D01*
X021728Y016205D01*
X021653Y016130D01*
X021503Y016130D01*
X021428Y016205D01*
X021578Y016355D02*
X021653Y016355D01*
X023128Y015755D02*
X023203Y015830D01*
X023353Y015830D01*
X023428Y015755D01*
X023428Y015680D01*
X023353Y015605D01*
X023428Y015530D01*
X023428Y015455D01*
X023353Y015380D01*
X023203Y015380D01*
X023128Y015455D01*
X023278Y015605D02*
X023353Y015605D01*
X021653Y013580D02*
X021728Y013505D01*
X021728Y013430D01*
X021653Y013355D01*
X021728Y013280D01*
X021728Y013205D01*
X021653Y013130D01*
X021503Y013130D01*
X021428Y013205D01*
X021578Y013355D02*
X021653Y013355D01*
X021653Y013580D02*
X021503Y013580D01*
X021428Y013505D01*
X023128Y012755D02*
X023203Y012830D01*
X023353Y012830D01*
X023428Y012755D01*
X023428Y012680D01*
X023353Y012605D01*
X023428Y012530D01*
X023428Y012455D01*
X023353Y012380D01*
X023203Y012380D01*
X023128Y012455D01*
X023278Y012605D02*
X023353Y012605D01*
X024728Y010670D02*
X024803Y010519D01*
X024953Y010369D01*
X024953Y010594D01*
X025028Y010670D01*
X025103Y010670D01*
X025178Y010594D01*
X025178Y010444D01*
X025103Y010369D01*
X024953Y010369D01*
X024953Y010209D02*
X024803Y010209D01*
X024728Y010134D01*
X024728Y009909D01*
X025178Y009909D01*
X025028Y009909D02*
X025028Y010134D01*
X024953Y010209D01*
X025028Y010059D02*
X025178Y010209D01*
X023039Y010155D02*
X023039Y010080D01*
X022964Y010005D01*
X022813Y010005D01*
X022738Y010080D01*
X022738Y010155D01*
X022813Y010230D01*
X022964Y010230D01*
X023039Y010155D01*
X022964Y010005D02*
X023039Y009930D01*
X023039Y009855D01*
X022964Y009780D01*
X022813Y009780D01*
X022738Y009855D01*
X022738Y009930D01*
X022813Y010005D01*
X022578Y010155D02*
X022503Y010230D01*
X022353Y010230D01*
X022278Y010155D01*
X022278Y009855D01*
X022353Y009780D01*
X022503Y009780D01*
X022578Y009855D01*
X022818Y008930D02*
X022668Y008855D01*
X022518Y008705D01*
X022743Y008705D01*
X022818Y008630D01*
X022818Y008555D01*
X022743Y008480D01*
X022593Y008480D01*
X022518Y008555D01*
X022518Y008705D01*
X022357Y008855D02*
X022282Y008930D01*
X022132Y008930D01*
X022057Y008855D01*
X022057Y008555D01*
X022132Y008480D01*
X022282Y008480D01*
X022357Y008555D01*
X014328Y016205D02*
X014328Y016355D01*
X014253Y016430D01*
X013878Y016430D01*
X014028Y016590D02*
X013878Y016740D01*
X014328Y016740D01*
X014328Y016590D02*
X014328Y016890D01*
X014328Y016205D02*
X014253Y016130D01*
X013878Y016130D01*
X009728Y016584D02*
X009653Y016509D01*
X009728Y016584D02*
X009728Y016734D01*
X009653Y016809D01*
X009578Y016809D01*
X009503Y016734D01*
X009503Y016584D01*
X009428Y016509D01*
X009353Y016509D01*
X009278Y016584D01*
X009278Y016734D01*
X009353Y016809D01*
X009428Y016969D02*
X009278Y017119D01*
X009728Y017119D01*
X009728Y016969D02*
X009728Y017270D01*
X007149Y018805D02*
X007074Y018730D01*
X006924Y018730D01*
X006849Y018805D01*
X006849Y018880D01*
X006924Y018955D01*
X007074Y018955D01*
X007149Y018880D01*
X007149Y018805D01*
X007074Y018955D02*
X007149Y019030D01*
X007149Y019105D01*
X007074Y019180D01*
X006924Y019180D01*
X006849Y019105D01*
X006849Y019030D01*
X006924Y018955D01*
X006689Y018730D02*
X006388Y018730D01*
X006538Y018730D02*
X006538Y019180D01*
X006388Y019030D01*
X006228Y019105D02*
X006228Y018955D01*
X006153Y018880D01*
X005928Y018880D01*
X006078Y018880D02*
X006228Y018730D01*
X005928Y018730D02*
X005928Y019180D01*
X006153Y019180D01*
X006228Y019105D01*
X006903Y023830D02*
X007053Y023830D01*
X007128Y023905D01*
X007288Y024055D02*
X007589Y024055D01*
X007514Y023830D02*
X007514Y024280D01*
X007288Y024055D01*
X007128Y024205D02*
X007053Y024280D01*
X006903Y024280D01*
X006828Y024205D01*
X006828Y023905D01*
X006903Y023830D01*
X007403Y025830D02*
X007553Y025830D01*
X007628Y025905D01*
X007788Y025830D02*
X008089Y026130D01*
X008089Y026205D01*
X008014Y026280D01*
X007863Y026280D01*
X007788Y026205D01*
X007628Y026205D02*
X007553Y026280D01*
X007403Y026280D01*
X007328Y026205D01*
X007328Y025905D01*
X007403Y025830D01*
X007788Y025830D02*
X008089Y025830D01*
X008053Y029280D02*
X007828Y029280D01*
X007828Y029730D01*
X008053Y029730D01*
X008128Y029655D01*
X008128Y029355D01*
X008053Y029280D01*
X008288Y029280D02*
X008589Y029280D01*
X008438Y029280D02*
X008438Y029730D01*
X008288Y029580D01*
X011178Y029680D02*
X011178Y030130D01*
X011403Y030130D01*
X011478Y030055D01*
X011478Y029905D01*
X011403Y029830D01*
X011178Y029830D01*
X011638Y029755D02*
X011638Y030055D01*
X011713Y030130D01*
X011864Y030130D01*
X011939Y030055D01*
X011939Y029755D01*
X011864Y029680D01*
X011713Y029680D01*
X011638Y029755D01*
X012099Y029680D02*
X012249Y029830D01*
X012399Y029680D01*
X012399Y030130D01*
X012559Y030130D02*
X012559Y029680D01*
X012859Y029680D01*
X013019Y029680D02*
X013019Y030130D01*
X013245Y030130D01*
X013320Y030055D01*
X013320Y029905D01*
X013245Y029830D01*
X013019Y029830D01*
X013170Y029830D02*
X013320Y029680D01*
X013480Y029905D02*
X013780Y029905D01*
X013630Y030055D02*
X013630Y029755D01*
X012859Y030130D02*
X012559Y030130D01*
X012559Y029905D02*
X012709Y029905D01*
X012099Y030130D02*
X012099Y029680D01*
X012853Y027730D02*
X012778Y027655D01*
X012778Y027355D01*
X012853Y027280D01*
X013003Y027280D01*
X013078Y027355D01*
X013238Y027355D02*
X013313Y027280D01*
X013464Y027280D01*
X013539Y027355D01*
X013539Y027430D01*
X013464Y027505D01*
X013388Y027505D01*
X013464Y027505D02*
X013539Y027580D01*
X013539Y027655D01*
X013464Y027730D01*
X013313Y027730D01*
X013238Y027655D01*
X013078Y027655D02*
X013003Y027730D01*
X012853Y027730D01*
X015150Y025830D02*
X015300Y025830D01*
X015225Y025830D02*
X015225Y025380D01*
X015150Y025380D02*
X015300Y025380D01*
X015457Y025455D02*
X015457Y025755D01*
X015532Y025830D01*
X015682Y025830D01*
X015757Y025755D01*
X015918Y025755D02*
X015993Y025830D01*
X016143Y025830D01*
X016218Y025755D01*
X016218Y025680D01*
X015918Y025380D01*
X016218Y025380D01*
X015757Y025455D02*
X015682Y025380D01*
X015532Y025380D01*
X015457Y025455D01*
X013539Y023230D02*
X013238Y023230D01*
X013238Y023005D01*
X013388Y023080D01*
X013464Y023080D01*
X013539Y023005D01*
X013539Y022855D01*
X013464Y022780D01*
X013313Y022780D01*
X013238Y022855D01*
X013078Y022855D02*
X013003Y022780D01*
X012853Y022780D01*
X012778Y022855D01*
X012778Y023155D01*
X012853Y023230D01*
X013003Y023230D01*
X013078Y023155D01*
X018328Y022630D02*
X018328Y022180D01*
X018328Y022405D02*
X018478Y022405D01*
X018328Y022630D02*
X018628Y022630D01*
X018788Y022630D02*
X018788Y022180D01*
X018788Y022330D02*
X019014Y022330D01*
X019089Y022405D01*
X019089Y022555D01*
X019014Y022630D01*
X018788Y022630D01*
X018938Y022330D02*
X019089Y022180D01*
X019249Y022180D02*
X019249Y022630D01*
X019549Y022630D01*
X019709Y022555D02*
X019784Y022630D01*
X019934Y022630D01*
X020009Y022555D01*
X020009Y022255D01*
X019934Y022180D01*
X019784Y022180D01*
X019709Y022255D01*
X019709Y022555D01*
X019859Y022330D02*
X020009Y022180D01*
X020169Y022180D02*
X020470Y022180D01*
X020320Y022180D02*
X020320Y022630D01*
X020169Y022480D01*
X019549Y022180D02*
X019249Y022180D01*
X019249Y022405D02*
X019399Y022405D01*
X019928Y021680D02*
X020153Y021680D01*
X020228Y021605D01*
X020228Y021455D01*
X020153Y021380D01*
X019928Y021380D01*
X020078Y021380D02*
X020228Y021230D01*
X020388Y021230D02*
X020689Y021230D01*
X020538Y021230D02*
X020538Y021680D01*
X020388Y021530D01*
X020849Y021530D02*
X020999Y021680D01*
X020999Y021230D01*
X020849Y021230D02*
X021149Y021230D01*
X021503Y022130D02*
X021428Y022205D01*
X021503Y022130D02*
X021653Y022130D01*
X021728Y022205D01*
X021728Y022280D01*
X021653Y022355D01*
X021578Y022355D01*
X021653Y022355D02*
X021728Y022430D01*
X021728Y022505D01*
X021653Y022580D01*
X021503Y022580D01*
X021428Y022505D01*
X021074Y024230D02*
X020924Y024230D01*
X020849Y024305D01*
X021149Y024605D01*
X021149Y024305D01*
X021074Y024230D01*
X020849Y024305D02*
X020849Y024605D01*
X020924Y024680D01*
X021074Y024680D01*
X021149Y024605D01*
X020689Y024230D02*
X020388Y024230D01*
X020538Y024230D02*
X020538Y024680D01*
X020388Y024530D01*
X020228Y024605D02*
X020153Y024680D01*
X019928Y024680D01*
X019928Y024230D01*
X019928Y024380D02*
X020153Y024380D01*
X020228Y024455D01*
X020228Y024605D01*
X020078Y024380D02*
X020228Y024230D01*
X019928Y021680D02*
X019928Y021230D01*
X019934Y019630D02*
X020009Y019555D01*
X020009Y019255D01*
X019934Y019180D01*
X019784Y019180D01*
X019709Y019255D01*
X019709Y019555D01*
X019784Y019630D01*
X019934Y019630D01*
X020169Y019555D02*
X020244Y019630D01*
X020395Y019630D01*
X020470Y019555D01*
X020470Y019480D01*
X020169Y019180D01*
X020470Y019180D01*
X020009Y019180D02*
X019859Y019330D01*
X019549Y019180D02*
X019249Y019180D01*
X019249Y019630D01*
X019549Y019630D01*
X019399Y019405D02*
X019249Y019405D01*
X019089Y019405D02*
X019014Y019330D01*
X018788Y019330D01*
X018788Y019180D02*
X018788Y019630D01*
X019014Y019630D01*
X019089Y019555D01*
X019089Y019405D01*
X018938Y019330D02*
X019089Y019180D01*
X018628Y019630D02*
X018328Y019630D01*
X018328Y019180D01*
X018328Y019405D02*
X018478Y019405D01*
X019928Y018680D02*
X019928Y018230D01*
X019928Y018380D02*
X020153Y018380D01*
X020228Y018455D01*
X020228Y018605D01*
X020153Y018680D01*
X019928Y018680D01*
X020078Y018380D02*
X020228Y018230D01*
X020388Y018230D02*
X020689Y018230D01*
X020538Y018230D02*
X020538Y018680D01*
X020388Y018530D01*
X020849Y018605D02*
X020924Y018680D01*
X021074Y018680D01*
X021149Y018605D01*
X021149Y018530D01*
X021074Y018455D01*
X021149Y018380D01*
X021149Y018305D01*
X021074Y018230D01*
X020924Y018230D01*
X020849Y018305D01*
X020999Y018455D02*
X021074Y018455D01*
X021503Y019130D02*
X021428Y019205D01*
X021503Y019130D02*
X021653Y019130D01*
X021728Y019205D01*
X021728Y019280D01*
X021653Y019355D01*
X021578Y019355D01*
X021653Y019355D02*
X021728Y019430D01*
X021728Y019505D01*
X021653Y019580D01*
X021503Y019580D01*
X021428Y019505D01*
X023128Y018755D02*
X023203Y018830D01*
X023353Y018830D01*
X023428Y018755D01*
X023428Y018680D01*
X023353Y018605D01*
X023428Y018530D01*
X023428Y018455D01*
X023353Y018380D01*
X023203Y018380D01*
X023128Y018455D01*
X023278Y018605D02*
X023353Y018605D01*
X023353Y021380D02*
X023203Y021380D01*
X023128Y021455D01*
X023278Y021605D02*
X023353Y021605D01*
X023428Y021530D01*
X023428Y021455D01*
X023353Y021380D01*
X023353Y021605D02*
X023428Y021680D01*
X023428Y021755D01*
X023353Y021830D01*
X023203Y021830D01*
X023128Y021755D01*
X018280Y029905D02*
X017980Y029905D01*
X017820Y029905D02*
X017820Y030055D01*
X017745Y030130D01*
X017519Y030130D01*
X017519Y029680D01*
X017519Y029830D02*
X017745Y029830D01*
X017820Y029905D01*
X017670Y029830D02*
X017820Y029680D01*
X017359Y029680D02*
X017059Y029680D01*
X017059Y030130D01*
X017359Y030130D01*
X017209Y029905D02*
X017059Y029905D01*
X016899Y029680D02*
X016899Y030130D01*
X016599Y030130D02*
X016599Y029680D01*
X016749Y029830D01*
X016899Y029680D01*
X016439Y029755D02*
X016439Y030055D01*
X016364Y030130D01*
X016213Y030130D01*
X016138Y030055D01*
X016138Y029755D01*
X016213Y029680D01*
X016364Y029680D01*
X016439Y029755D01*
X015978Y029905D02*
X015978Y030055D01*
X015903Y030130D01*
X015678Y030130D01*
X015678Y029680D01*
X015678Y029830D02*
X015903Y029830D01*
X015978Y029905D01*
D14*
X014233Y026855D02*
X014233Y026605D01*
X014233Y026355D01*
X013983Y026355D02*
X013983Y026605D01*
X013983Y026855D01*
X013983Y022355D02*
X013983Y022105D01*
X013983Y021855D01*
X014233Y021855D02*
X014233Y022105D01*
X014233Y022355D01*
X021303Y023005D02*
X024903Y023005D01*
X024603Y021855D02*
X024203Y021455D01*
X024903Y020005D02*
X021303Y020005D01*
X021303Y017005D02*
X024903Y017005D01*
X024603Y015855D02*
X024203Y015455D01*
X024903Y014005D02*
X021303Y014005D01*
X024203Y012455D02*
X024603Y012855D01*
X020233Y010355D02*
X020233Y010105D01*
X020233Y009855D01*
X019983Y009855D02*
X019983Y010105D01*
X019983Y010355D01*
X019973Y009355D02*
X019973Y009105D01*
X019973Y008855D01*
X020223Y008855D02*
X020223Y009105D01*
X020223Y009355D01*
X014233Y008355D02*
X014233Y008105D01*
X014233Y007855D01*
X013983Y007855D02*
X013983Y008105D01*
X013983Y008355D01*
X024203Y018455D02*
X024603Y018855D01*
X004223Y021855D02*
X004223Y022105D01*
X004223Y022355D01*
X003973Y022355D02*
X003973Y022105D01*
X003973Y021855D01*
D15*
X005683Y019605D03*
X005683Y018105D03*
X007183Y021105D03*
X008523Y019605D03*
X008523Y018105D03*
X010023Y021105D03*
X008523Y015105D03*
X008523Y013605D03*
X008523Y012105D03*
X005683Y012105D03*
X005683Y013605D03*
X005683Y015105D03*
X012683Y010105D03*
X015523Y010105D03*
X017683Y011105D03*
X020523Y011105D03*
X019683Y014605D03*
X019683Y017605D03*
X019683Y020605D03*
X019683Y023605D03*
X022523Y023605D03*
X022523Y020605D03*
X022523Y017605D03*
X022523Y014605D03*
X018023Y006105D03*
X018023Y004605D03*
X015183Y004605D03*
X015183Y006105D03*
X012523Y006105D03*
X012023Y004605D03*
X009683Y006105D03*
X009183Y004605D03*
D16*
X008053Y028605D03*
D17*
X007428Y028605D03*
X009778Y028605D03*
D18*
X006728Y016605D03*
D19*
X024153Y015655D02*
X024155Y015686D01*
X024161Y015717D01*
X024171Y015747D01*
X024184Y015775D01*
X024201Y015802D01*
X024221Y015826D01*
X024244Y015848D01*
X024269Y015866D01*
X024297Y015881D01*
X024326Y015893D01*
X024356Y015901D01*
X024387Y015905D01*
X024419Y015905D01*
X024450Y015901D01*
X024480Y015893D01*
X024509Y015881D01*
X024537Y015866D01*
X024562Y015848D01*
X024585Y015826D01*
X024605Y015802D01*
X024622Y015775D01*
X024635Y015747D01*
X024645Y015717D01*
X024651Y015686D01*
X024653Y015655D01*
X024651Y015624D01*
X024645Y015593D01*
X024635Y015563D01*
X024622Y015535D01*
X024605Y015508D01*
X024585Y015484D01*
X024562Y015462D01*
X024537Y015444D01*
X024509Y015429D01*
X024480Y015417D01*
X024450Y015409D01*
X024419Y015405D01*
X024387Y015405D01*
X024356Y015409D01*
X024326Y015417D01*
X024297Y015429D01*
X024269Y015444D01*
X024244Y015462D01*
X024221Y015484D01*
X024201Y015508D01*
X024184Y015535D01*
X024171Y015563D01*
X024161Y015593D01*
X024155Y015624D01*
X024153Y015655D01*
X024153Y018655D02*
X024155Y018686D01*
X024161Y018717D01*
X024171Y018747D01*
X024184Y018775D01*
X024201Y018802D01*
X024221Y018826D01*
X024244Y018848D01*
X024269Y018866D01*
X024297Y018881D01*
X024326Y018893D01*
X024356Y018901D01*
X024387Y018905D01*
X024419Y018905D01*
X024450Y018901D01*
X024480Y018893D01*
X024509Y018881D01*
X024537Y018866D01*
X024562Y018848D01*
X024585Y018826D01*
X024605Y018802D01*
X024622Y018775D01*
X024635Y018747D01*
X024645Y018717D01*
X024651Y018686D01*
X024653Y018655D01*
X024651Y018624D01*
X024645Y018593D01*
X024635Y018563D01*
X024622Y018535D01*
X024605Y018508D01*
X024585Y018484D01*
X024562Y018462D01*
X024537Y018444D01*
X024509Y018429D01*
X024480Y018417D01*
X024450Y018409D01*
X024419Y018405D01*
X024387Y018405D01*
X024356Y018409D01*
X024326Y018417D01*
X024297Y018429D01*
X024269Y018444D01*
X024244Y018462D01*
X024221Y018484D01*
X024201Y018508D01*
X024184Y018535D01*
X024171Y018563D01*
X024161Y018593D01*
X024155Y018624D01*
X024153Y018655D01*
X024153Y021655D02*
X024155Y021686D01*
X024161Y021717D01*
X024171Y021747D01*
X024184Y021775D01*
X024201Y021802D01*
X024221Y021826D01*
X024244Y021848D01*
X024269Y021866D01*
X024297Y021881D01*
X024326Y021893D01*
X024356Y021901D01*
X024387Y021905D01*
X024419Y021905D01*
X024450Y021901D01*
X024480Y021893D01*
X024509Y021881D01*
X024537Y021866D01*
X024562Y021848D01*
X024585Y021826D01*
X024605Y021802D01*
X024622Y021775D01*
X024635Y021747D01*
X024645Y021717D01*
X024651Y021686D01*
X024653Y021655D01*
X024651Y021624D01*
X024645Y021593D01*
X024635Y021563D01*
X024622Y021535D01*
X024605Y021508D01*
X024585Y021484D01*
X024562Y021462D01*
X024537Y021444D01*
X024509Y021429D01*
X024480Y021417D01*
X024450Y021409D01*
X024419Y021405D01*
X024387Y021405D01*
X024356Y021409D01*
X024326Y021417D01*
X024297Y021429D01*
X024269Y021444D01*
X024244Y021462D01*
X024221Y021484D01*
X024201Y021508D01*
X024184Y021535D01*
X024171Y021563D01*
X024161Y021593D01*
X024155Y021624D01*
X024153Y021655D01*
X024153Y012655D02*
X024155Y012686D01*
X024161Y012717D01*
X024171Y012747D01*
X024184Y012775D01*
X024201Y012802D01*
X024221Y012826D01*
X024244Y012848D01*
X024269Y012866D01*
X024297Y012881D01*
X024326Y012893D01*
X024356Y012901D01*
X024387Y012905D01*
X024419Y012905D01*
X024450Y012901D01*
X024480Y012893D01*
X024509Y012881D01*
X024537Y012866D01*
X024562Y012848D01*
X024585Y012826D01*
X024605Y012802D01*
X024622Y012775D01*
X024635Y012747D01*
X024645Y012717D01*
X024651Y012686D01*
X024653Y012655D01*
X024651Y012624D01*
X024645Y012593D01*
X024635Y012563D01*
X024622Y012535D01*
X024605Y012508D01*
X024585Y012484D01*
X024562Y012462D01*
X024537Y012444D01*
X024509Y012429D01*
X024480Y012417D01*
X024450Y012409D01*
X024419Y012405D01*
X024387Y012405D01*
X024356Y012409D01*
X024326Y012417D01*
X024297Y012429D01*
X024269Y012444D01*
X024244Y012462D01*
X024221Y012484D01*
X024201Y012508D01*
X024184Y012535D01*
X024171Y012563D01*
X024161Y012593D01*
X024155Y012624D01*
X024153Y012655D01*
D20*
X003298Y010502D02*
X003268Y010550D01*
X003235Y010595D01*
X003199Y010638D01*
X003161Y010679D01*
X003119Y010716D01*
X003075Y010751D01*
X003029Y010782D01*
X002980Y010811D01*
X002930Y010835D01*
X002878Y010856D01*
X002824Y010874D01*
X002770Y010887D01*
X002715Y010897D01*
X002659Y010903D01*
X002603Y010905D01*
X002550Y010903D01*
X002496Y010898D01*
X002444Y010889D01*
X002392Y010877D01*
X002341Y010861D01*
X002291Y010842D01*
X002242Y010819D01*
X002195Y010793D01*
X002150Y010765D01*
X002107Y010733D01*
X002067Y010699D01*
X002028Y010661D01*
X001992Y010622D01*
X002603Y009305D02*
X002657Y009307D01*
X002711Y009312D01*
X002764Y009321D01*
X002817Y009334D01*
X002868Y009350D01*
X002918Y009370D01*
X002967Y009393D01*
X003015Y009419D01*
X003060Y009448D01*
X003103Y009481D01*
X003144Y009516D01*
X003183Y009554D01*
X003219Y009594D01*
X003252Y009637D01*
X003282Y009682D01*
X003309Y009729D01*
X002603Y009305D02*
X002549Y009307D01*
X002496Y009312D01*
X002442Y009321D01*
X002390Y009334D01*
X002339Y009350D01*
X002288Y009370D01*
X002239Y009392D01*
X002192Y009418D01*
X002147Y009448D01*
X002104Y009480D01*
X002063Y009515D01*
X002024Y009553D01*
X001988Y009593D01*
D21*
X024103Y008185D03*
X024103Y011025D03*
M02*
