%
M48
M72
T01C0.0315
T02C0.0320
T03C0.0440
T04C0.0670
T05C0.1614
%
T01
X14103Y23605
X14103Y24605
X14103Y25605
T02
X15103Y26605
X13103Y26605
X10603Y26105
X8603Y26105
X8603Y23105
X6603Y21105
X5103Y22105
X3103Y22105
X5103Y19605
X5103Y18105
X5603Y16605
X5103Y15105
X5103Y13605
X5103Y12105
X3103Y10105
X2103Y10105
X8603Y4605
X9103Y6105
X12603Y4605
X13103Y6105
X14603Y6105
X14603Y4605
X15103Y8105
X13103Y8105
X12103Y10105
X13103Y12105
X14103Y12105
X15103Y12105
X16103Y10105
X17103Y11105
X19103Y10105
X19103Y9105
X21103Y9105
X21103Y10105
X21103Y11105
X22103Y13355
X23103Y13355
X24103Y13355
X23103Y14605
X23103Y16355
X22103Y16355
X23103Y17605
X24103Y16355
X24103Y19355
X23103Y19355
X22103Y19355
X23103Y20605
X23103Y22355
X22103Y22355
X23103Y23605
X24103Y22355
X19103Y23605
X19103Y20605
X19103Y17605
X19103Y14605
X15603Y15105
X15603Y16105
X15603Y17105
X15603Y18105
X15603Y19105
X15603Y20105
X15103Y22105
X13103Y22105
X12603Y20105
X12603Y19105
X12603Y18105
X12603Y17105
X12603Y16105
X12603Y15105
X12603Y14105
X15603Y14105
X10603Y21105
X9103Y19605
X9103Y18105
X8603Y16605
X9103Y15105
X9103Y13605
X9103Y12105
X18603Y6105
X18603Y4605
X24103Y7605
X24103Y11605
X10603Y23105
T03
X10603Y28605
X6603Y28605
T04
X12603Y28605
X15603Y28605
X3603Y20105
X3603Y18105
X1603Y18105
X1603Y20105
X1603Y15105
X1603Y13105
X3603Y13105
X3603Y15105
X2603Y8105
X7603Y3105
X9603Y3105
X12603Y3105
X14603Y3105
X17103Y3105
X19103Y3105
X16603Y12605
T05
X3103Y4105
X3103Y28105
X24103Y28105
X24103Y4105
M30
