G75*
G70*
%OFA0B0*%
%FSLAX24Y24*%
%IPPOS*%
%LPD*%
%AMOC8*
5,1,8,0,0,1.08239X$1,22.5*
%
%ADD10C,0.0750*%
%ADD11OC8,0.0750*%
%ADD12C,0.0520*%
%ADD13C,0.0630*%
%ADD14OC8,0.1005*%
%ADD15C,0.0515*%
%ADD16C,0.0860*%
%ADD17C,0.1000*%
%ADD18C,0.0700*%
%ADD19OC8,0.0660*%
D10*
X008603Y023105D03*
X008603Y026105D03*
D11*
X010603Y026105D03*
X010603Y023105D03*
D12*
X012843Y022105D02*
X013363Y022105D01*
X014843Y022105D02*
X015363Y022105D01*
X015363Y026605D02*
X014843Y026605D01*
X013363Y026605D02*
X012843Y026605D01*
X005363Y022105D02*
X004843Y022105D01*
X003363Y022105D02*
X002843Y022105D01*
X005343Y016605D02*
X005863Y016605D01*
X008343Y016605D02*
X008863Y016605D01*
X013103Y012365D02*
X013103Y011845D01*
X014103Y011845D02*
X014103Y012365D01*
X015103Y012365D02*
X015103Y011845D01*
X014843Y008105D02*
X015363Y008105D01*
X013363Y008105D02*
X012843Y008105D01*
X018843Y009105D02*
X019363Y009105D01*
X019363Y010105D02*
X018843Y010105D01*
X020843Y010105D02*
X021363Y010105D01*
X021363Y009105D02*
X020843Y009105D01*
D13*
X015918Y014105D02*
X015288Y014105D01*
X015288Y015105D02*
X015918Y015105D01*
X015918Y016105D02*
X015288Y016105D01*
X015288Y017105D02*
X015918Y017105D01*
X015918Y018105D02*
X015288Y018105D01*
X015288Y019105D02*
X015918Y019105D01*
X015918Y020105D02*
X015288Y020105D01*
X012918Y020105D02*
X012288Y020105D01*
X012288Y019105D02*
X012918Y019105D01*
X012918Y018105D02*
X012288Y018105D01*
X012288Y017105D02*
X012918Y017105D01*
X012918Y016105D02*
X012288Y016105D01*
X012288Y015105D02*
X012918Y015105D01*
X012918Y014105D02*
X012288Y014105D01*
D14*
X002603Y008105D03*
X001603Y013105D03*
X001603Y015105D03*
X003603Y015105D03*
X003603Y013105D03*
X003603Y018105D03*
X003603Y020105D03*
X001603Y020105D03*
X001603Y018105D03*
X012603Y028605D03*
X015603Y028605D03*
X016603Y012605D03*
X017103Y003105D03*
X019103Y003105D03*
X014603Y003105D03*
X012603Y003105D03*
X009603Y003105D03*
X007603Y003105D03*
D15*
X013846Y023605D02*
X014360Y023605D01*
X014360Y024605D02*
X013846Y024605D01*
X013846Y025605D02*
X014360Y025605D01*
D16*
X010603Y021105D03*
X009103Y019605D03*
X009103Y018105D03*
X006603Y021105D03*
X005103Y019605D03*
X005103Y018105D03*
X005103Y015105D03*
X005103Y013605D03*
X005103Y012105D03*
X009103Y012105D03*
X009103Y013605D03*
X009103Y015105D03*
X012103Y010105D03*
X013103Y006105D03*
X014603Y006105D03*
X014603Y004605D03*
X012603Y004605D03*
X009103Y006105D03*
X008603Y004605D03*
X016103Y010105D03*
X017103Y011105D03*
X019103Y014605D03*
X019103Y017605D03*
X019103Y020605D03*
X019103Y023605D03*
X023103Y023605D03*
X023103Y020605D03*
X023103Y017605D03*
X023103Y014605D03*
X024103Y011605D03*
X021103Y011105D03*
X024103Y007605D03*
X018603Y006105D03*
X018603Y004605D03*
D17*
X010603Y028605D03*
X006603Y028605D03*
D18*
X022103Y022705D02*
X022103Y022005D01*
X023103Y022005D02*
X023103Y022705D01*
X024103Y022705D02*
X024103Y022005D01*
X024103Y019705D02*
X024103Y019005D01*
X023103Y019005D02*
X023103Y019705D01*
X022103Y019705D02*
X022103Y019005D01*
X022103Y016705D02*
X022103Y016005D01*
X023103Y016005D02*
X023103Y016705D01*
X024103Y016705D02*
X024103Y016005D01*
X024103Y013705D02*
X024103Y013005D01*
X023103Y013005D02*
X023103Y013705D01*
X022103Y013705D02*
X022103Y013005D01*
D19*
X003103Y010105D03*
X002103Y010105D03*
M02*
